<ttFont>
    <TTGlyph name=".notdef" xMin="50" yMin="0" xMax="450" yMax="696">
      <contour>
        <pt x="50" y="696" on="1"/>
        <pt x="450" y="696" on="1"/>
        <pt x="450" y="0" on="1"/>
        <pt x="50" y="0" on="1"/>
      </contour>
      <contour>
        <pt x="399" y="46" on="1"/>
        <pt x="399" y="650" on="1"/>
        <pt x="101" y="650" on="1"/>
        <pt x="101" y="46" on="1"/>
      </contour>
    </TTGlyph>
    <TTGlyph name="A" xMin="23" yMin="0" xMax="537" yMax="683">
      <contour>
        <pt x="431" y="196" on="1"/>
        <pt x="127" y="196" on="1"/>
        <pt x="62" y="0" on="1"/>
        <pt x="23" y="0" on="1"/>
        <pt x="256" y="683" on="1"/>
        <pt x="304" y="683" on="1"/>
        <pt x="537" y="0" on="1"/>
        <pt x="496" y="0" on="1"/>
      </contour>
      <contour>
        <pt x="419" y="231" on="1"/>
        <pt x="280" y="651" on="1"/>
        <pt x="139" y="231" on="1"/>
      </contour>
    </TTGlyph>
    <TTGlyph name="AE" xMin="6" yMin="0" xMax="723" yMax="683">
      <contour>
        <pt x="723" y="35" on="1"/>
        <pt x="723" y="0" on="1"/>
        <pt x="463" y="0" on="1"/>
        <pt x="414" y="190" on="1"/>
        <pt x="118" y="190" on="1"/>
        <pt x="46" y="0" on="1"/>
        <pt x="6" y="0" on="1"/>
        <pt x="271" y="683" on="1"/>
        <pt x="671" y="683" on="1"/>
        <pt x="666" y="648" on="1"/>
        <pt x="333" y="648" on="1"/>
        <pt x="404" y="375" on="1"/>
        <pt x="664" y="375" on="1"/>
        <pt x="664" y="341" on="1"/>
        <pt x="413" y="341" on="1"/>
        <pt x="493" y="35" on="1"/>
      </contour>
      <contour>
        <pt x="405" y="226" on="1"/>
        <pt x="294" y="651" on="1"/>
        <pt x="132" y="226" on="1"/>
      </contour>
    </TTGlyph>
    <TTGlyph name="AEacute" xMin="6" yMin="0" xMax="723" yMax="874">
      <component glyphName="AE" x="0" y="0" flags="0x0"/>
      <component glyphName="acutecomb.case" x="566" y="0" flags="0x0"/>
    </TTGlyph>
    <TTGlyph name="Aacute" xMin="23" yMin="0" xMax="537" yMax="874">
      <component glyphName="A" x="0" y="0" flags="0x0"/>
      <component glyphName="acutecomb.case" x="400" y="0" flags="0x0"/>
    </TTGlyph>
    <TTGlyph name="Abreve" xMin="23" yMin="0" xMax="537" yMax="862">
      <component glyphName="A" x="0" y="0" flags="0x0"/>
      <component glyphName="uni0306.case" x="410" y="0" flags="0x0"/>
    </TTGlyph>
    <TTGlyph name="Acircumflex" xMin="23" yMin="0" xMax="537" yMax="882">
      <component glyphName="A" x="0" y="0" flags="0x0"/>
      <component glyphName="uni0302.case" x="448" y="0" flags="0x0"/>
    </TTGlyph>
    <TTGlyph name="Adieresis" xMin="23" yMin="0" xMax="537" yMax="852">
      <component glyphName="A" x="0" y="0" flags="0x0"/>
      <component glyphName="uni0308.case" x="428" y="0" flags="0x0"/>
    </TTGlyph>
    <TTGlyph name="Agrave" xMin="23" yMin="0" xMax="537" yMax="874">
      <component glyphName="A" x="0" y="0" flags="0x0"/>
      <component glyphName="gravecomb.case" x="399" y="0" flags="0x0"/>
    </TTGlyph>
    <TTGlyph name="Alpha" xMin="23" yMin="0" xMax="537" yMax="683">
      <contour>
        <pt x="431" y="196" on="1"/>
        <pt x="127" y="196" on="1"/>
        <pt x="62" y="0" on="1"/>
        <pt x="23" y="0" on="1"/>
        <pt x="256" y="683" on="1"/>
        <pt x="304" y="683" on="1"/>
        <pt x="537" y="0" on="1"/>
        <pt x="496" y="0" on="1"/>
      </contour>
      <contour>
        <pt x="419" y="231" on="1"/>
        <pt x="280" y="651" on="1"/>
        <pt x="139" y="231" on="1"/>
      </contour>
    </TTGlyph>
    <TTGlyph name="Alphatonos" xMin="23" yMin="0" xMax="537" yMax="692">
      <component glyphName="tonos.case" x="22" y="0" flags="0x0"/>
      <component glyphName="A" x="0" y="0" flags="0x0"/>
    </TTGlyph>
    <TTGlyph name="Amacron" xMin="23" yMin="0" xMax="537" yMax="841">
      <component glyphName="A" x="0" y="0" flags="0x0"/>
      <component glyphName="uni0304.case" x="412" y="0" flags="0x0"/>
    </TTGlyph>
    <TTGlyph name="Aogonek" xMin="23" yMin="-209" xMax="537" yMax="683">
      <contour>
        <pt x="411" y="-146" on="0"/>
        <pt x="444" y="-174" on="0"/>
        <pt x="477" y="-174" on="1"/>
        <pt x="501" y="-174" on="0"/>
        <pt x="534" y="-168" on="1"/>
        <pt x="530" y="-203" on="1"/>
        <pt x="500" y="-209" on="0"/>
        <pt x="475" y="-209" on="1"/>
        <pt x="424" y="-209" on="0"/>
        <pt x="372" y="-162" on="0"/>
        <pt x="372" y="-123" on="1"/>
        <pt x="372" y="-81" on="0"/>
        <pt x="431" y="-19" on="0"/>
        <pt x="493" y="8" on="1"/>
        <pt x="431" y="196" on="1"/>
        <pt x="127" y="196" on="1"/>
        <pt x="62" y="0" on="1"/>
        <pt x="23" y="0" on="1"/>
        <pt x="256" y="683" on="1"/>
        <pt x="304" y="683" on="1"/>
        <pt x="537" y="0" on="1"/>
        <pt x="532" y="0" on="1"/>
        <pt x="468" y="-30" on="0"/>
        <pt x="411" y="-82" on="0"/>
        <pt x="411" y="-120" on="1"/>
      </contour>
      <contour>
        <pt x="419" y="231" on="1"/>
        <pt x="280" y="651" on="1"/>
        <pt x="139" y="231" on="1"/>
      </contour>
    </TTGlyph>
    <TTGlyph name="Aring" xMin="23" yMin="0" xMax="537" yMax="938">
      <component glyphName="A" x="0" y="0" flags="0x0"/>
      <component glyphName="uni030A.case" x="396" y="0" flags="0x0"/>
    </TTGlyph>
    <TTGlyph name="Aringacute" xMin="23" yMin="0" xMax="537" yMax="1029">
      <contour>
        <pt x="193" y="915" on="1"/>
        <pt x="182" y="940" on="1"/>
        <pt x="362" y="1029" on="1"/>
        <pt x="381" y="992" on="1"/>
      </contour>
      <contour>
        <pt x="190" y="853" on="0"/>
        <pt x="240" y="901" on="0"/>
        <pt x="280" y="901" on="1"/>
        <pt x="320" y="901" on="0"/>
        <pt x="369" y="853" on="0"/>
        <pt x="369" y="814" on="1"/>
        <pt x="369" y="775" on="0"/>
        <pt x="320" y="727" on="0"/>
        <pt x="280" y="727" on="1"/>
        <pt x="240" y="727" on="0"/>
        <pt x="190" y="775" on="0"/>
        <pt x="190" y="814" on="1"/>
      </contour>
      <contour>
        <pt x="336" y="842" on="0"/>
        <pt x="307" y="873" on="0"/>
        <pt x="280" y="873" on="1"/>
        <pt x="252" y="873" on="0"/>
        <pt x="223" y="842" on="0"/>
        <pt x="223" y="814" on="1"/>
        <pt x="223" y="785" on="0"/>
        <pt x="252" y="754" on="0"/>
        <pt x="280" y="754" on="1"/>
        <pt x="307" y="754" on="0"/>
        <pt x="336" y="785" on="0"/>
        <pt x="336" y="814" on="1"/>
      </contour>
      <contour>
        <pt x="431" y="196" on="1"/>
        <pt x="127" y="196" on="1"/>
        <pt x="62" y="0" on="1"/>
        <pt x="23" y="0" on="1"/>
        <pt x="256" y="683" on="1"/>
        <pt x="304" y="683" on="1"/>
        <pt x="537" y="0" on="1"/>
        <pt x="496" y="0" on="1"/>
      </contour>
      <contour>
        <pt x="419" y="231" on="1"/>
        <pt x="280" y="651" on="1"/>
        <pt x="139" y="231" on="1"/>
      </contour>
    </TTGlyph>
    <TTGlyph name="Atilde" xMin="23" yMin="0" xMax="537" yMax="875">
      <component glyphName="A" x="0" y="0" flags="0x0"/>
      <component glyphName="tildecomb.case" x="440" y="0" flags="0x0"/>
    </TTGlyph>
    <TTGlyph name="B" xMin="117" yMin="0" xMax="533" yMax="683">
      <contour>
        <pt x="445" y="357" on="0"/>
        <pt x="533" y="270" on="0"/>
        <pt x="533" y="186" on="1"/>
        <pt x="533" y="96" on="0"/>
        <pt x="412" y="0" on="0"/>
        <pt x="302" y="0" on="1"/>
        <pt x="117" y="0" on="1"/>
        <pt x="117" y="683" on="1"/>
        <pt x="264" y="683" on="1"/>
        <pt x="377" y="683" on="0"/>
        <pt x="500" y="597" on="0"/>
        <pt x="500" y="513" on="1"/>
        <pt x="500" y="448" on="0"/>
        <pt x="434" y="372" on="0"/>
        <pt x="376" y="362" on="1"/>
      </contour>
      <contour>
        <pt x="157" y="648" on="1"/>
        <pt x="157" y="377" on="1"/>
        <pt x="315" y="377" on="1"/>
        <pt x="380" y="377" on="0"/>
        <pt x="460" y="449" on="0"/>
        <pt x="460" y="511" on="1"/>
        <pt x="460" y="648" on="0"/>
        <pt x="269" y="648" on="1"/>
      </contour>
      <contour>
        <pt x="393" y="35" on="0"/>
        <pt x="493" y="111" on="0"/>
        <pt x="493" y="186" on="1"/>
        <pt x="493" y="265" on="0"/>
        <pt x="399" y="343" on="0"/>
        <pt x="320" y="343" on="1"/>
        <pt x="157" y="343" on="1"/>
        <pt x="157" y="35" on="1"/>
        <pt x="303" y="35" on="1"/>
      </contour>
    </TTGlyph>
    <TTGlyph name="Beta" xMin="117" yMin="0" xMax="533" yMax="683">
      <component glyphName="B" x="0" y="0" flags="0x0"/>
    </TTGlyph>
    <TTGlyph name="C" xMin="72" yMin="-10" xMax="520" yMax="693">
      <contour>
        <pt x="398" y="693" on="0"/>
        <pt x="475" y="663" on="0"/>
        <pt x="512" y="633" on="1"/>
        <pt x="490" y="606" on="1"/>
        <pt x="454" y="634" on="0"/>
        <pt x="391" y="658" on="0"/>
        <pt x="347" y="658" on="1"/>
        <pt x="280" y="658" on="0"/>
        <pt x="175" y="591" on="0"/>
        <pt x="113" y="450" on="0"/>
        <pt x="113" y="342" on="1"/>
        <pt x="113" y="239" on="0"/>
        <pt x="173" y="97" on="0"/>
        <pt x="277" y="26" on="0"/>
        <pt x="343" y="26" on="1"/>
        <pt x="394" y="26" on="0"/>
        <pt x="461" y="55" on="0"/>
        <pt x="497" y="84" on="1"/>
        <pt x="520" y="56" on="1"/>
        <pt x="445" y="-10" on="0"/>
        <pt x="342" y="-10" on="1"/>
        <pt x="264" y="-10" on="0"/>
        <pt x="142" y="71" on="0"/>
        <pt x="72" y="230" on="0"/>
        <pt x="72" y="342" on="1"/>
        <pt x="72" y="456" on="0"/>
        <pt x="144" y="614" on="0"/>
        <pt x="268" y="693" on="0"/>
        <pt x="344" y="693" on="1"/>
      </contour>
    </TTGlyph>
    <TTGlyph name="Cacute" xMin="72" yMin="-10" xMax="520" yMax="874">
      <component glyphName="C" x="0" y="0" flags="0x0"/>
      <component glyphName="acutecomb.case" x="463" y="0" flags="0x0"/>
    </TTGlyph>
    <TTGlyph name="Cacute.loclPLK" xMin="72" yMin="-10" xMax="520" yMax="898">
      <component glyphName="C" x="0" y="0" flags="0x0"/>
      <component glyphName="acute.case.loclPLK" x="218" y="0" flags="0x0"/>
    </TTGlyph>
    <TTGlyph name="Ccaron" xMin="72" yMin="-10" xMax="520" yMax="875">
      <component glyphName="C" x="0" y="0" flags="0x0"/>
      <component glyphName="uni030C.case" x="498" y="0" flags="0x0"/>
    </TTGlyph>
    <TTGlyph name="Ccedilla" xMin="72" yMin="-219" xMax="520" yMax="693">
      <contour>
        <pt x="395" y="-72" on="0"/>
        <pt x="440" y="-109" on="0"/>
        <pt x="440" y="-140" on="1"/>
        <pt x="440" y="-176" on="0"/>
        <pt x="385" y="-219" on="0"/>
        <pt x="346" y="-219" on="1"/>
        <pt x="304" y="-219" on="0"/>
        <pt x="272" y="-200" on="1"/>
        <pt x="287" y="-173" on="1"/>
        <pt x="311" y="-188" on="0"/>
        <pt x="345" y="-188" on="1"/>
        <pt x="371" y="-188" on="0"/>
        <pt x="403" y="-164" on="0"/>
        <pt x="403" y="-140" on="1"/>
        <pt x="403" y="-117" on="0"/>
        <pt x="360" y="-95" on="0"/>
        <pt x="314" y="-94" on="1"/>
        <pt x="320" y="-9" on="1"/>
        <pt x="247" y="-3" on="0"/>
        <pt x="135" y="81" on="0"/>
        <pt x="72" y="235" on="0"/>
        <pt x="72" y="342" on="1"/>
        <pt x="72" y="456" on="0"/>
        <pt x="144" y="614" on="0"/>
        <pt x="268" y="693" on="0"/>
        <pt x="344" y="693" on="1"/>
        <pt x="398" y="693" on="0"/>
        <pt x="475" y="663" on="0"/>
        <pt x="512" y="633" on="1"/>
        <pt x="490" y="606" on="1"/>
        <pt x="454" y="634" on="0"/>
        <pt x="391" y="658" on="0"/>
        <pt x="347" y="658" on="1"/>
        <pt x="280" y="658" on="0"/>
        <pt x="175" y="591" on="0"/>
        <pt x="113" y="450" on="0"/>
        <pt x="113" y="342" on="1"/>
        <pt x="113" y="239" on="0"/>
        <pt x="173" y="97" on="0"/>
        <pt x="277" y="26" on="0"/>
        <pt x="343" y="26" on="1"/>
        <pt x="394" y="26" on="0"/>
        <pt x="461" y="55" on="0"/>
        <pt x="497" y="84" on="1"/>
        <pt x="520" y="56" on="1"/>
        <pt x="447" y="-9" on="0"/>
        <pt x="349" y="-10" on="1"/>
        <pt x="349" y="-69" on="1"/>
      </contour>
    </TTGlyph>
    <TTGlyph name="Ccircumflex" xMin="72" yMin="-10" xMax="520" yMax="882">
      <component glyphName="C" x="0" y="0" flags="0x0"/>
      <component glyphName="uni0302.case" x="510" y="0" flags="0x0"/>
    </TTGlyph>
    <TTGlyph name="Cdotaccent" xMin="72" yMin="-10" xMax="520" yMax="863">
      <component glyphName="C" x="0" y="0" flags="0x0"/>
      <component glyphName="uni0307.case" x="402" y="0" flags="0x0"/>
    </TTGlyph>
    <TTGlyph name="Chi" xMin="14" yMin="0" xMax="485" yMax="683">
      <component glyphName="X" x="0" y="0" flags="0x0"/>
    </TTGlyph>
    <TTGlyph name="D" xMin="117" yMin="0" xMax="552" yMax="683">
      <contour>
        <pt x="383" y="683" on="0"/>
        <pt x="552" y="539" on="0"/>
        <pt x="552" y="348" on="1"/>
        <pt x="552" y="154" on="0"/>
        <pt x="379" y="0" on="0"/>
        <pt x="254" y="0" on="1"/>
        <pt x="117" y="0" on="1"/>
        <pt x="117" y="683" on="1"/>
        <pt x="248" y="683" on="1"/>
      </contour>
      <contour>
        <pt x="157" y="648" on="1"/>
        <pt x="157" y="35" on="1"/>
        <pt x="255" y="35" on="1"/>
        <pt x="512" y="35" on="0"/>
        <pt x="512" y="348" on="1"/>
        <pt x="512" y="471" on="0"/>
        <pt x="438" y="603" on="0"/>
        <pt x="323" y="648" on="0"/>
        <pt x="248" y="648" on="1"/>
      </contour>
    </TTGlyph>
    <TTGlyph name="Dcaron" xMin="117" yMin="0" xMax="552" yMax="875">
      <component glyphName="D" x="0" y="0" flags="0x0"/>
      <component glyphName="uni030C.case" x="454" y="0" flags="0x0"/>
    </TTGlyph>
    <TTGlyph name="Dcroat" xMin="24" yMin="0" xMax="553" yMax="683">
      <component glyphName="Eth" x="0" y="0" flags="0x0"/>
    </TTGlyph>
    <TTGlyph name="Delta" xMin="23" yMin="0" xMax="547" yMax="683">
      <contour>
        <pt x="547" y="0" on="1"/>
        <pt x="23" y="0" on="1"/>
        <pt x="261" y="683" on="1"/>
        <pt x="310" y="683" on="1"/>
      </contour>
      <contour>
        <pt x="74" y="34" on="1"/>
        <pt x="495" y="34" on="1"/>
        <pt x="286" y="651" on="1"/>
      </contour>
    </TTGlyph>
    <TTGlyph name="E" xMin="117" yMin="0" xMax="457" yMax="683">
      <contour>
        <pt x="445" y="648" on="1"/>
        <pt x="157" y="648" on="1"/>
        <pt x="157" y="375" on="1"/>
        <pt x="406" y="375" on="1"/>
        <pt x="406" y="341" on="1"/>
        <pt x="157" y="341" on="1"/>
        <pt x="157" y="35" on="1"/>
        <pt x="457" y="35" on="1"/>
        <pt x="457" y="0" on="1"/>
        <pt x="117" y="0" on="1"/>
        <pt x="117" y="683" on="1"/>
        <pt x="450" y="683" on="1"/>
      </contour>
    </TTGlyph>
    <TTGlyph name="Eacute" xMin="117" yMin="0" xMax="457" yMax="874">
      <component glyphName="E" x="0" y="0" flags="0x0"/>
      <component glyphName="acutecomb.case" x="408" y="0" flags="0x0"/>
    </TTGlyph>
    <TTGlyph name="Ebreve" xMin="117" yMin="0" xMax="457" yMax="862">
      <component glyphName="E" x="0" y="0" flags="0x0"/>
      <component glyphName="uni0306.case" x="418" y="0" flags="0x0"/>
    </TTGlyph>
    <TTGlyph name="Ecaron" xMin="117" yMin="0" xMax="457" yMax="875">
      <component glyphName="E" x="0" y="0" flags="0x0"/>
      <component glyphName="uni030C.case" x="444" y="0" flags="0x0"/>
    </TTGlyph>
    <TTGlyph name="Ecircumflex" xMin="117" yMin="0" xMax="457" yMax="882">
      <component glyphName="E" x="0" y="0" flags="0x0"/>
      <component glyphName="uni0302.case" x="456" y="0" flags="0x0"/>
    </TTGlyph>
    <TTGlyph name="Edieresis" xMin="117" yMin="0" xMax="457" yMax="852">
      <component glyphName="E" x="0" y="0" flags="0x0"/>
      <component glyphName="uni0308.case" x="437" y="0" flags="0x0"/>
    </TTGlyph>
    <TTGlyph name="Edotaccent" xMin="117" yMin="0" xMax="457" yMax="863">
      <component glyphName="E" x="0" y="0" flags="0x0"/>
      <component glyphName="uni0307.case" x="347" y="0" flags="0x0"/>
    </TTGlyph>
    <TTGlyph name="Egrave" xMin="117" yMin="0" xMax="457" yMax="874">
      <component glyphName="E" x="0" y="0" flags="0x0"/>
      <component glyphName="gravecomb.case" x="407" y="0" flags="0x0"/>
    </TTGlyph>
    <TTGlyph name="Emacron" xMin="117" yMin="0" xMax="457" yMax="841">
      <component glyphName="E" x="0" y="0" flags="0x0"/>
      <component glyphName="uni0304.case" x="420" y="0" flags="0x0"/>
    </TTGlyph>
    <TTGlyph name="Eng" xMin="117" yMin="-201" xMax="549" yMax="683">
      <contour>
        <pt x="549" y="-79" on="1"/>
        <pt x="549" y="-139" on="0"/>
        <pt x="489" y="-201" on="0"/>
        <pt x="439" y="-201" on="1"/>
        <pt x="390" y="-201" on="0"/>
        <pt x="345" y="-169" on="1"/>
        <pt x="363" y="-143" on="1"/>
        <pt x="398" y="-167" on="0"/>
        <pt x="438" y="-167" on="1"/>
        <pt x="470" y="-167" on="0"/>
        <pt x="510" y="-124" on="0"/>
        <pt x="510" y="-78" on="1"/>
        <pt x="510" y="0" on="1"/>
        <pt x="500" y="0" on="1"/>
        <pt x="150" y="639" on="1"/>
        <pt x="155" y="571" on="0"/>
        <pt x="155" y="422" on="1"/>
        <pt x="155" y="0" on="1"/>
        <pt x="117" y="0" on="1"/>
        <pt x="117" y="683" on="1"/>
        <pt x="167" y="683" on="1"/>
        <pt x="517" y="44" on="1"/>
        <pt x="511" y="155" on="0"/>
        <pt x="511" y="242" on="1"/>
        <pt x="511" y="683" on="1"/>
        <pt x="549" y="683" on="1"/>
      </contour>
    </TTGlyph>
    <TTGlyph name="Eng.ss01" xMin="117" yMin="-201" xMax="548" yMax="693">
      <contour>
        <pt x="548" y="-139" on="0"/>
        <pt x="488" y="-201" on="0"/>
        <pt x="438" y="-201" on="1"/>
        <pt x="388" y="-201" on="0"/>
        <pt x="343" y="-169" on="1"/>
        <pt x="361" y="-143" on="1"/>
        <pt x="379" y="-155" on="0"/>
        <pt x="413" y="-167" on="0"/>
        <pt x="437" y="-167" on="1"/>
        <pt x="469" y="-167" on="0"/>
        <pt x="508" y="-125" on="0"/>
        <pt x="508" y="-78" on="1"/>
        <pt x="508" y="487" on="1"/>
        <pt x="508" y="574" on="0"/>
        <pt x="437" y="658" on="0"/>
        <pt x="370" y="658" on="1"/>
        <pt x="301" y="658" on="0"/>
        <pt x="199" y="591" on="0"/>
        <pt x="157" y="533" on="1"/>
        <pt x="157" y="0" on="1"/>
        <pt x="117" y="0" on="1"/>
        <pt x="117" y="683" on="1"/>
        <pt x="152" y="683" on="1"/>
        <pt x="155" y="577" on="1"/>
        <pt x="195" y="630" on="0"/>
        <pt x="304" y="693" on="0"/>
        <pt x="373" y="693" on="1"/>
        <pt x="457" y="693" on="0"/>
        <pt x="548" y="590" on="0"/>
        <pt x="548" y="494" on="1"/>
        <pt x="548" y="-79" on="1"/>
      </contour>
    </TTGlyph>
    <TTGlyph name="Eogonek" xMin="117" yMin="-209" xMax="457" yMax="683">
      <contour>
        <pt x="366" y="-30" on="0"/>
        <pt x="309" y="-82" on="0"/>
        <pt x="309" y="-120" on="1"/>
        <pt x="309" y="-146" on="0"/>
        <pt x="342" y="-174" on="0"/>
        <pt x="375" y="-174" on="1"/>
        <pt x="399" y="-174" on="0"/>
        <pt x="432" y="-168" on="1"/>
        <pt x="428" y="-203" on="1"/>
        <pt x="398" y="-209" on="0"/>
        <pt x="373" y="-209" on="1"/>
        <pt x="322" y="-209" on="0"/>
        <pt x="270" y="-162" on="0"/>
        <pt x="270" y="-123" on="1"/>
        <pt x="270" y="-85" on="0"/>
        <pt x="321" y="-25" on="0"/>
        <pt x="373" y="0" on="1"/>
        <pt x="117" y="0" on="1"/>
        <pt x="117" y="683" on="1"/>
        <pt x="450" y="683" on="1"/>
        <pt x="445" y="648" on="1"/>
        <pt x="157" y="648" on="1"/>
        <pt x="157" y="375" on="1"/>
        <pt x="406" y="375" on="1"/>
        <pt x="406" y="341" on="1"/>
        <pt x="157" y="341" on="1"/>
        <pt x="157" y="35" on="1"/>
        <pt x="457" y="35" on="1"/>
        <pt x="457" y="0" on="1"/>
        <pt x="430" y="0" on="1"/>
      </contour>
    </TTGlyph>
    <TTGlyph name="Epsilon" xMin="117" yMin="0" xMax="457" yMax="683">
      <contour>
        <pt x="445" y="648" on="1"/>
        <pt x="157" y="648" on="1"/>
        <pt x="157" y="375" on="1"/>
        <pt x="406" y="375" on="1"/>
        <pt x="406" y="341" on="1"/>
        <pt x="157" y="341" on="1"/>
        <pt x="157" y="35" on="1"/>
        <pt x="457" y="35" on="1"/>
        <pt x="457" y="0" on="1"/>
        <pt x="117" y="0" on="1"/>
        <pt x="117" y="683" on="1"/>
        <pt x="450" y="683" on="1"/>
      </contour>
    </TTGlyph>
    <TTGlyph name="Epsilontonos" xMin="30" yMin="0" xMax="505" yMax="692">
      <component glyphName="tonos.case" x="0" y="0" flags="0x0"/>
      <component glyphName="E" x="48" y="0" flags="0x0"/>
    </TTGlyph>
    <TTGlyph name="Eta" xMin="117" yMin="0" xMax="547" yMax="683">
      <contour>
        <pt x="508" y="342" on="1"/>
        <pt x="157" y="342" on="1"/>
        <pt x="157" y="0" on="1"/>
        <pt x="117" y="0" on="1"/>
        <pt x="117" y="683" on="1"/>
        <pt x="157" y="683" on="1"/>
        <pt x="157" y="377" on="1"/>
        <pt x="508" y="377" on="1"/>
        <pt x="508" y="683" on="1"/>
        <pt x="547" y="683" on="1"/>
        <pt x="547" y="0" on="1"/>
        <pt x="508" y="0" on="1"/>
      </contour>
    </TTGlyph>
    <TTGlyph name="Etatonos" xMin="30" yMin="0" xMax="595" yMax="692">
      <component glyphName="tonos.case" x="0" y="0" flags="0x0"/>
      <component glyphName="H" x="48" y="0" flags="0x0"/>
    </TTGlyph>
    <TTGlyph name="Eth" xMin="24" yMin="0" xMax="553" yMax="683">
      <contour>
        <pt x="384" y="683" on="0"/>
        <pt x="553" y="539" on="0"/>
        <pt x="553" y="348" on="1"/>
        <pt x="553" y="154" on="0"/>
        <pt x="379" y="0" on="0"/>
        <pt x="254" y="0" on="1"/>
        <pt x="118" y="0" on="1"/>
        <pt x="118" y="335" on="1"/>
        <pt x="24" y="335" on="1"/>
        <pt x="24" y="370" on="1"/>
        <pt x="118" y="370" on="1"/>
        <pt x="118" y="683" on="1"/>
        <pt x="249" y="683" on="1"/>
      </contour>
      <contour>
        <pt x="512" y="35" on="0"/>
        <pt x="512" y="348" on="1"/>
        <pt x="512" y="471" on="0"/>
        <pt x="438" y="603" on="0"/>
        <pt x="324" y="648" on="0"/>
        <pt x="249" y="648" on="1"/>
        <pt x="157" y="648" on="1"/>
        <pt x="157" y="370" on="1"/>
        <pt x="343" y="370" on="1"/>
        <pt x="343" y="335" on="1"/>
        <pt x="157" y="335" on="1"/>
        <pt x="157" y="35" on="1"/>
        <pt x="256" y="35" on="1"/>
      </contour>
    </TTGlyph>
    <TTGlyph name="Euro" xMin="40" yMin="-10" xMax="525" yMax="693">
      <contour>
        <pt x="287" y="658" on="0"/>
        <pt x="181" y="545" on="0"/>
        <pt x="161" y="434" on="1"/>
        <pt x="443" y="434" on="1"/>
        <pt x="435" y="402" on="1"/>
        <pt x="158" y="402" on="1"/>
        <pt x="158" y="292" on="1"/>
        <pt x="414" y="292" on="1"/>
        <pt x="407" y="258" on="1"/>
        <pt x="159" y="258" on="1"/>
        <pt x="173" y="138" on="0"/>
        <pt x="278" y="25" on="0"/>
        <pt x="363" y="25" on="1"/>
        <pt x="404" y="25" on="0"/>
        <pt x="465" y="46" on="0"/>
        <pt x="501" y="69" on="1"/>
        <pt x="501" y="29" on="1"/>
        <pt x="436" y="-10" on="0"/>
        <pt x="359" y="-10" on="1"/>
        <pt x="260" y="-10" on="0"/>
        <pt x="135" y="125" on="0"/>
        <pt x="120" y="258" on="1"/>
        <pt x="40" y="258" on="1"/>
        <pt x="48" y="292" on="1"/>
        <pt x="118" y="292" on="1"/>
        <pt x="118" y="402" on="1"/>
        <pt x="40" y="402" on="1"/>
        <pt x="48" y="434" on="1"/>
        <pt x="121" y="434" on="1"/>
        <pt x="143" y="559" on="0"/>
        <pt x="271" y="693" on="0"/>
        <pt x="363" y="693" on="1"/>
        <pt x="408" y="693" on="0"/>
        <pt x="485" y="667" on="0"/>
        <pt x="525" y="640" on="1"/>
        <pt x="507" y="610" on="1"/>
        <pt x="468" y="636" on="0"/>
        <pt x="403" y="658" on="0"/>
        <pt x="362" y="658" on="1"/>
      </contour>
    </TTGlyph>
    <TTGlyph name="Euro.lf" xMin="42" yMin="-10" xMax="527" yMax="675">
      <contour>
        <pt x="289" y="640" on="0"/>
        <pt x="183" y="529" on="0"/>
        <pt x="163" y="424" on="1"/>
        <pt x="445" y="424" on="1"/>
        <pt x="437" y="392" on="1"/>
        <pt x="160" y="392" on="1"/>
        <pt x="160" y="281" on="1"/>
        <pt x="416" y="281" on="1"/>
        <pt x="409" y="248" on="1"/>
        <pt x="162" y="248" on="1"/>
        <pt x="176" y="135" on="0"/>
        <pt x="282" y="25" on="0"/>
        <pt x="365" y="25" on="1"/>
        <pt x="406" y="25" on="0"/>
        <pt x="467" y="46" on="0"/>
        <pt x="503" y="69" on="1"/>
        <pt x="503" y="29" on="1"/>
        <pt x="438" y="-10" on="0"/>
        <pt x="361" y="-10" on="1"/>
        <pt x="262" y="-10" on="0"/>
        <pt x="138" y="121" on="0"/>
        <pt x="122" y="248" on="1"/>
        <pt x="42" y="248" on="1"/>
        <pt x="50" y="281" on="1"/>
        <pt x="120" y="281" on="1"/>
        <pt x="120" y="392" on="1"/>
        <pt x="42" y="392" on="1"/>
        <pt x="50" y="424" on="1"/>
        <pt x="123" y="424" on="1"/>
        <pt x="145" y="543" on="0"/>
        <pt x="274" y="675" on="0"/>
        <pt x="365" y="675" on="1"/>
        <pt x="410" y="675" on="0"/>
        <pt x="487" y="649" on="0"/>
        <pt x="527" y="621" on="1"/>
        <pt x="509" y="591" on="1"/>
        <pt x="469" y="618" on="0"/>
        <pt x="405" y="640" on="0"/>
        <pt x="364" y="640" on="1"/>
      </contour>
    </TTGlyph>
    <TTGlyph name="Euro.osf" xMin="42" yMin="-10" xMax="527" yMax="675">
      <component glyphName="Euro.lf" x="0" y="0" flags="0x0"/>
    </TTGlyph>
    <TTGlyph name="Euro.tosf" xMin="58" yMin="-10" xMax="532" yMax="675">
      <contour>
        <pt x="300" y="640" on="0"/>
        <pt x="198" y="530" on="0"/>
        <pt x="178" y="424" on="1"/>
        <pt x="455" y="424" on="1"/>
        <pt x="447" y="392" on="1"/>
        <pt x="175" y="392" on="1"/>
        <pt x="175" y="281" on="1"/>
        <pt x="426" y="281" on="1"/>
        <pt x="419" y="248" on="1"/>
        <pt x="177" y="248" on="1"/>
        <pt x="204" y="25" on="0"/>
        <pt x="375" y="25" on="1"/>
        <pt x="416" y="25" on="0"/>
        <pt x="473" y="46" on="0"/>
        <pt x="509" y="69" on="1"/>
        <pt x="509" y="29" on="1"/>
        <pt x="478" y="10" on="0"/>
        <pt x="412" y="-10" on="0"/>
        <pt x="371" y="-10" on="1"/>
        <pt x="273" y="-10" on="0"/>
        <pt x="153" y="121" on="0"/>
        <pt x="137" y="248" on="1"/>
        <pt x="58" y="248" on="1"/>
        <pt x="66" y="281" on="1"/>
        <pt x="136" y="281" on="1"/>
        <pt x="136" y="392" on="1"/>
        <pt x="58" y="392" on="1"/>
        <pt x="66" y="424" on="1"/>
        <pt x="139" y="424" on="1"/>
        <pt x="161" y="544" on="0"/>
        <pt x="285" y="675" on="0"/>
        <pt x="375" y="675" on="1"/>
        <pt x="420" y="675" on="0"/>
        <pt x="493" y="649" on="0"/>
        <pt x="532" y="621" on="1"/>
        <pt x="514" y="591" on="1"/>
        <pt x="476" y="618" on="0"/>
        <pt x="415" y="640" on="0"/>
        <pt x="375" y="640" on="1"/>
      </contour>
    </TTGlyph>
    <TTGlyph name="F" xMin="117" yMin="0" xMax="445" yMax="683">
      <contour>
        <pt x="440" y="648" on="1"/>
        <pt x="157" y="648" on="1"/>
        <pt x="157" y="361" on="1"/>
        <pt x="402" y="361" on="1"/>
        <pt x="402" y="327" on="1"/>
        <pt x="157" y="327" on="1"/>
        <pt x="157" y="0" on="1"/>
        <pt x="117" y="0" on="1"/>
        <pt x="117" y="683" on="1"/>
        <pt x="445" y="683" on="1"/>
      </contour>
    </TTGlyph>
    <TTGlyph name="G" xMin="72" yMin="-10" xMax="542" yMax="693">
      <contour>
        <pt x="404" y="693" on="0"/>
        <pt x="486" y="663" on="0"/>
        <pt x="528" y="630" on="1"/>
        <pt x="504" y="604" on="1"/>
        <pt x="468" y="633" on="0"/>
        <pt x="396" y="658" on="0"/>
        <pt x="349" y="658" on="1"/>
        <pt x="288" y="658" on="0"/>
        <pt x="181" y="593" on="0"/>
        <pt x="113" y="452" on="0"/>
        <pt x="113" y="345" on="1"/>
        <pt x="113" y="187" on="0"/>
        <pt x="241" y="25" on="0"/>
        <pt x="352" y="25" on="1"/>
        <pt x="397" y="25" on="0"/>
        <pt x="469" y="44" on="0"/>
        <pt x="503" y="63" on="1"/>
        <pt x="503" y="327" on="1"/>
        <pt x="363" y="327" on="1"/>
        <pt x="358" y="362" on="1"/>
        <pt x="542" y="362" on="1"/>
        <pt x="542" y="43" on="1"/>
        <pt x="452" y="-10" on="0"/>
        <pt x="351" y="-10" on="1"/>
        <pt x="267" y="-10" on="0"/>
        <pt x="142" y="70" on="0"/>
        <pt x="72" y="230" on="0"/>
        <pt x="72" y="345" on="1"/>
        <pt x="72" y="458" on="0"/>
        <pt x="151" y="615" on="0"/>
        <pt x="278" y="693" on="0"/>
        <pt x="349" y="693" on="1"/>
      </contour>
    </TTGlyph>
    <TTGlyph name="Gamma" xMin="117" yMin="0" xMax="498" yMax="683">
      <component glyphName="uni0413" x="0" y="0" flags="0x0"/>
    </TTGlyph>
    <TTGlyph name="Gbreve" xMin="72" yMin="-10" xMax="542" yMax="862">
      <component glyphName="G" x="0" y="0" flags="0x0"/>
      <component glyphName="uni0306.case" x="480" y="0" flags="0x0"/>
    </TTGlyph>
    <TTGlyph name="Gcaron" xMin="72" yMin="-10" xMax="542" yMax="875">
      <component glyphName="G" x="0" y="0" flags="0x0"/>
      <component glyphName="uni030C.case" x="506" y="0" flags="0x0"/>
    </TTGlyph>
    <TTGlyph name="Gcircumflex" xMin="72" yMin="-10" xMax="542" yMax="882">
      <component glyphName="G" x="0" y="0" flags="0x0"/>
      <component glyphName="uni0302.case" x="517" y="0" flags="0x0"/>
    </TTGlyph>
    <TTGlyph name="Gcommaaccent" xMin="72" yMin="-269" xMax="542" yMax="693">
      <component glyphName="G" x="0" y="0" flags="0x0"/>
      <component glyphName="uni0326.case" x="401" y="0" flags="0x0"/>
    </TTGlyph>
    <TTGlyph name="Gdotaccent" xMin="72" yMin="-10" xMax="542" yMax="863">
      <component glyphName="G" x="0" y="0" flags="0x0"/>
      <component glyphName="uni0307.case" x="409" y="0" flags="0x0"/>
    </TTGlyph>
    <TTGlyph name="H" xMin="117" yMin="0" xMax="547" yMax="683">
      <contour>
        <pt x="508" y="342" on="1"/>
        <pt x="157" y="342" on="1"/>
        <pt x="157" y="0" on="1"/>
        <pt x="117" y="0" on="1"/>
        <pt x="117" y="683" on="1"/>
        <pt x="157" y="683" on="1"/>
        <pt x="157" y="377" on="1"/>
        <pt x="508" y="377" on="1"/>
        <pt x="508" y="683" on="1"/>
        <pt x="547" y="683" on="1"/>
        <pt x="547" y="0" on="1"/>
        <pt x="508" y="0" on="1"/>
      </contour>
    </TTGlyph>
    <TTGlyph name="Hbar" xMin="54" yMin="0" xMax="611" yMax="683">
      <contour>
        <pt x="611" y="517" on="1"/>
        <pt x="547" y="517" on="1"/>
        <pt x="547" y="0" on="1"/>
        <pt x="508" y="0" on="1"/>
        <pt x="508" y="342" on="1"/>
        <pt x="157" y="342" on="1"/>
        <pt x="157" y="0" on="1"/>
        <pt x="118" y="0" on="1"/>
        <pt x="118" y="517" on="1"/>
        <pt x="54" y="517" on="1"/>
        <pt x="54" y="547" on="1"/>
        <pt x="118" y="547" on="1"/>
        <pt x="118" y="683" on="1"/>
        <pt x="157" y="683" on="1"/>
        <pt x="157" y="547" on="1"/>
        <pt x="508" y="547" on="1"/>
        <pt x="508" y="683" on="1"/>
        <pt x="547" y="683" on="1"/>
        <pt x="547" y="547" on="1"/>
        <pt x="611" y="547" on="1"/>
      </contour>
      <contour>
        <pt x="508" y="517" on="1"/>
        <pt x="157" y="517" on="1"/>
        <pt x="157" y="377" on="1"/>
        <pt x="508" y="377" on="1"/>
      </contour>
    </TTGlyph>
    <TTGlyph name="Hcircumflex" xMin="117" yMin="0" xMax="547" yMax="882">
      <component glyphName="H" x="0" y="0" flags="0x0"/>
      <component glyphName="uni0302.case" x="498" y="0" flags="0x0"/>
    </TTGlyph>
    <TTGlyph name="I" xMin="117" yMin="0" xMax="157" yMax="683">
      <contour>
        <pt x="157" y="0" on="1"/>
        <pt x="117" y="0" on="1"/>
        <pt x="117" y="683" on="1"/>
        <pt x="157" y="683" on="1"/>
      </contour>
    </TTGlyph>
    <TTGlyph name="IJ" xMin="117" yMin="-108" xMax="445" yMax="683">
      <component glyphName="I" x="0" y="0" flags="0x0"/>
      <component glyphName="J" x="274" y="0" flags="0x0"/>
    </TTGlyph>
    <TTGlyph name="Iacute" xMin="37" yMin="0" xMax="236" yMax="874">
      <component glyphName="I" x="0" y="0" flags="0x0"/>
      <component glyphName="acutecomb.case" x="257" y="0" flags="0x0"/>
    </TTGlyph>
    <TTGlyph name="Ibreve" xMin="19" yMin="0" xMax="255" yMax="862">
      <component glyphName="I" x="0" y="0" flags="0x0"/>
      <component glyphName="uni0306.case" x="267" y="0" flags="0x0"/>
    </TTGlyph>
    <TTGlyph name="Icircumflex" xMin="-1" yMin="0" xMax="273" yMax="882">
      <component glyphName="I" x="0" y="0" flags="0x0"/>
      <component glyphName="uni0302.case" x="304" y="0" flags="0x0"/>
    </TTGlyph>
    <TTGlyph name="Idieresis" xMin="18" yMin="0" xMax="254" yMax="852">
      <component glyphName="I" x="0" y="0" flags="0x0"/>
      <component glyphName="uni0308.case" x="285" y="0" flags="0x0"/>
    </TTGlyph>
    <TTGlyph name="Idotaccent" xMin="106" yMin="0" xMax="168" yMax="863">
      <component glyphName="I" x="0" y="0" flags="0x0"/>
      <component glyphName="uni0307.case" x="196" y="0" flags="0x0"/>
    </TTGlyph>
    <TTGlyph name="Igrave" xMin="35" yMin="0" xMax="234" yMax="874">
      <component glyphName="I" x="0" y="0" flags="0x0"/>
      <component glyphName="gravecomb.case" x="255" y="0" flags="0x0"/>
    </TTGlyph>
    <TTGlyph name="Imacron" xMin="26" yMin="0" xMax="248" yMax="841">
      <component glyphName="I" x="0" y="0" flags="0x0"/>
      <component glyphName="uni0304.case" x="269" y="0" flags="0x0"/>
    </TTGlyph>
    <TTGlyph name="Iogonek" xMin="-3" yMin="-209" xMax="159" yMax="683">
      <contour>
        <pt x="126" y="-174" on="0"/>
        <pt x="159" y="-168" on="1"/>
        <pt x="155" y="-203" on="1"/>
        <pt x="125" y="-209" on="0"/>
        <pt x="100" y="-209" on="1"/>
        <pt x="49" y="-209" on="0"/>
        <pt x="-3" y="-162" on="0"/>
        <pt x="-3" y="-123" on="1"/>
        <pt x="-3" y="-82" on="0"/>
        <pt x="56" y="-20" on="0"/>
        <pt x="117" y="8" on="1"/>
        <pt x="117" y="683" on="1"/>
        <pt x="157" y="683" on="1"/>
        <pt x="157" y="0" on="1"/>
        <pt x="93" y="-30" on="0"/>
        <pt x="36" y="-82" on="0"/>
        <pt x="36" y="-120" on="1"/>
        <pt x="36" y="-146" on="0"/>
        <pt x="69" y="-174" on="0"/>
        <pt x="102" y="-174" on="1"/>
      </contour>
    </TTGlyph>
    <TTGlyph name="Iota" xMin="117" yMin="0" xMax="157" yMax="683">
      <contour>
        <pt x="157" y="0" on="1"/>
        <pt x="117" y="0" on="1"/>
        <pt x="117" y="683" on="1"/>
        <pt x="157" y="683" on="1"/>
      </contour>
    </TTGlyph>
    <TTGlyph name="Iotadieresis" xMin="18" yMin="0" xMax="254" yMax="852">
      <component glyphName="I" x="0" y="0" flags="0x0"/>
      <component glyphName="uni0308.case" x="285" y="0" flags="0x0"/>
    </TTGlyph>
    <TTGlyph name="Iotatonos" xMin="30" yMin="0" xMax="205" yMax="692">
      <component glyphName="tonos.case" x="0" y="0" flags="0x0"/>
      <component glyphName="I" x="48" y="0" flags="0x0"/>
    </TTGlyph>
    <TTGlyph name="Itilde" xMin="-4" yMin="0" xMax="277" yMax="875">
      <component glyphName="I" x="0" y="0" flags="0x0"/>
      <component glyphName="tildecomb.case" x="297" y="0" flags="0x0"/>
    </TTGlyph>
    <TTGlyph name="J" xMin="18" yMin="-108" xMax="171" yMax="683">
      <contour>
        <pt x="171" y="89" on="1"/>
        <pt x="171" y="34" on="0"/>
        <pt x="146" y="-34" on="0"/>
        <pt x="87" y="-83" on="0"/>
        <pt x="29" y="-108" on="1"/>
        <pt x="18" y="-79" on="1"/>
        <pt x="65" y="-57" on="0"/>
        <pt x="113" y="-15" on="0"/>
        <pt x="132" y="43" on="0"/>
        <pt x="132" y="91" on="1"/>
        <pt x="132" y="683" on="1"/>
        <pt x="171" y="683" on="1"/>
      </contour>
    </TTGlyph>
    <TTGlyph name="Jcircumflex" xMin="12" yMin="-108" xMax="286" yMax="882">
      <component glyphName="J" x="0" y="0" flags="0x0"/>
      <component glyphName="uni0302.case" x="317" y="0" flags="0x0"/>
    </TTGlyph>
    <TTGlyph name="K" xMin="117" yMin="0" xMax="523" yMax="683">
      <contour>
        <pt x="157" y="0" on="1"/>
        <pt x="117" y="0" on="1"/>
        <pt x="117" y="683" on="1"/>
        <pt x="157" y="683" on="1"/>
      </contour>
      <contour>
        <pt x="209" y="368" on="1"/>
        <pt x="523" y="0" on="1"/>
        <pt x="475" y="0" on="1"/>
        <pt x="160" y="367" on="1"/>
        <pt x="460" y="683" on="1"/>
        <pt x="506" y="683" on="1"/>
      </contour>
    </TTGlyph>
    <TTGlyph name="Kappa" xMin="117" yMin="0" xMax="523" yMax="683">
      <component glyphName="K" x="0" y="0" flags="0x0"/>
    </TTGlyph>
    <TTGlyph name="Kcommaaccent" xMin="117" yMin="-269" xMax="523" yMax="683">
      <component glyphName="K" x="0" y="0" flags="0x0"/>
      <component glyphName="uni0326.case" x="366" y="0" flags="0x0"/>
    </TTGlyph>
    <TTGlyph name="L" xMin="117" yMin="0" xMax="445" yMax="683">
      <contour>
        <pt x="157" y="37" on="1"/>
        <pt x="445" y="37" on="1"/>
        <pt x="438" y="0" on="1"/>
        <pt x="117" y="0" on="1"/>
        <pt x="117" y="683" on="1"/>
        <pt x="157" y="683" on="1"/>
      </contour>
    </TTGlyph>
    <TTGlyph name="Lacute" xMin="38" yMin="0" xMax="445" yMax="874">
      <component glyphName="L" x="0" y="0" flags="0x0"/>
      <component glyphName="acutecomb.case" x="258" y="0" flags="0x0"/>
    </TTGlyph>
    <TTGlyph name="Lambda" xMin="23" yMin="0" xMax="537" yMax="683">
      <contour>
        <pt x="537" y="0" on="1"/>
        <pt x="496" y="0" on="1"/>
        <pt x="280" y="651" on="1"/>
        <pt x="62" y="0" on="1"/>
        <pt x="23" y="0" on="1"/>
        <pt x="256" y="683" on="1"/>
        <pt x="304" y="683" on="1"/>
      </contour>
    </TTGlyph>
    <TTGlyph name="Lcaron" xMin="117" yMin="0" xMax="445" yMax="687">
      <component glyphName="L" x="0" y="0" flags="0x0"/>
      <component glyphName="caron.alt" x="161" y="0" flags="0x0"/>
    </TTGlyph>
    <TTGlyph name="Lcommaaccent" xMin="117" yMin="-269" xMax="445" yMax="683">
      <component glyphName="L" x="0" y="0" flags="0x0"/>
      <component glyphName="uni0326.case" x="345" y="0" flags="0x0"/>
    </TTGlyph>
    <TTGlyph name="Ldot" xMin="117" yMin="0" xMax="445" yMax="683">
      <component glyphName="L" x="0" y="0" flags="0x0"/>
      <component glyphName="uni0307" x="418" y="-349" flags="0x0"/>
    </TTGlyph>
    <TTGlyph name="Lslash" xMin="39" yMin="0" xMax="452" yMax="683">
      <contour>
        <pt x="452" y="37" on="1"/>
        <pt x="446" y="0" on="1"/>
        <pt x="125" y="0" on="1"/>
        <pt x="125" y="296" on="1"/>
        <pt x="56" y="252" on="1"/>
        <pt x="39" y="279" on="1"/>
        <pt x="125" y="332" on="1"/>
        <pt x="125" y="683" on="1"/>
        <pt x="164" y="683" on="1"/>
        <pt x="164" y="357" on="1"/>
        <pt x="357" y="478" on="1"/>
        <pt x="373" y="451" on="1"/>
        <pt x="164" y="320" on="1"/>
        <pt x="164" y="37" on="1"/>
      </contour>
    </TTGlyph>
    <TTGlyph name="M" xMin="73" yMin="0" xMax="692" yMax="683">
      <contour>
        <pt x="692" y="0" on="1"/>
        <pt x="654" y="0" on="1"/>
        <pt x="618" y="338" on="1"/>
        <pt x="588" y="647" on="1"/>
        <pt x="402" y="82" on="1"/>
        <pt x="364" y="82" on="1"/>
        <pt x="173" y="647" on="1"/>
        <pt x="170" y="592" on="0"/>
        <pt x="156" y="456" on="1"/>
        <pt x="145" y="345" on="1"/>
        <pt x="111" y="0" on="1"/>
        <pt x="73" y="0" on="1"/>
        <pt x="143" y="683" on="1"/>
        <pt x="199" y="683" on="1"/>
        <pt x="383" y="130" on="1"/>
        <pt x="564" y="683" on="1"/>
        <pt x="622" y="683" on="1"/>
      </contour>
    </TTGlyph>
    <TTGlyph name="Mu" xMin="73" yMin="0" xMax="692" yMax="683">
      <component glyphName="M" x="0" y="0" flags="0x0"/>
    </TTGlyph>
    <TTGlyph name="N" xMin="117" yMin="0" xMax="549" yMax="683">
      <contour>
        <pt x="549" y="0" on="1"/>
        <pt x="500" y="0" on="1"/>
        <pt x="150" y="639" on="1"/>
        <pt x="155" y="571" on="0"/>
        <pt x="155" y="422" on="1"/>
        <pt x="155" y="0" on="1"/>
        <pt x="117" y="0" on="1"/>
        <pt x="117" y="683" on="1"/>
        <pt x="167" y="683" on="1"/>
        <pt x="517" y="44" on="1"/>
        <pt x="511" y="155" on="0"/>
        <pt x="511" y="242" on="1"/>
        <pt x="511" y="683" on="1"/>
        <pt x="549" y="683" on="1"/>
      </contour>
    </TTGlyph>
    <TTGlyph name="Nacute" xMin="117" yMin="0" xMax="549" yMax="874">
      <component glyphName="N" x="0" y="0" flags="0x0"/>
      <component glyphName="acutecomb.case" x="461" y="0" flags="0x0"/>
    </TTGlyph>
    <TTGlyph name="Nacute.loclPLK" xMin="117" yMin="0" xMax="549" yMax="898">
      <component glyphName="N" x="0" y="0" flags="0x0"/>
      <component glyphName="acute.case.loclPLK" x="216" y="0" flags="0x0"/>
    </TTGlyph>
    <TTGlyph name="Ncaron" xMin="117" yMin="0" xMax="549" yMax="875">
      <component glyphName="N" x="0" y="0" flags="0x0"/>
      <component glyphName="uni030C.case" x="497" y="0" flags="0x0"/>
    </TTGlyph>
    <TTGlyph name="Ncommaaccent" xMin="117" yMin="-269" xMax="549" yMax="683">
      <component glyphName="N" x="0" y="0" flags="0x0"/>
      <component glyphName="uni0326.case" x="397" y="0" flags="0x0"/>
    </TTGlyph>
    <TTGlyph name="Ntilde" xMin="117" yMin="0" xMax="549" yMax="875">
      <component glyphName="N" x="0" y="0" flags="0x0"/>
      <component glyphName="tildecomb.case" x="501" y="0" flags="0x0"/>
    </TTGlyph>
    <TTGlyph name="Nu" xMin="117" yMin="0" xMax="549" yMax="683">
      <component glyphName="N" x="0" y="0" flags="0x0"/>
    </TTGlyph>
    <TTGlyph name="O" xMin="72" yMin="-10" xMax="618" yMax="693">
      <contour>
        <pt x="427" y="693" on="0"/>
        <pt x="550" y="612" on="0"/>
        <pt x="618" y="454" on="0"/>
        <pt x="618" y="341" on="1"/>
        <pt x="618" y="231" on="0"/>
        <pt x="551" y="73" on="0"/>
        <pt x="428" y="-10" on="0"/>
        <pt x="345" y="-10" on="1"/>
        <pt x="264" y="-10" on="0"/>
        <pt x="141" y="72" on="0"/>
        <pt x="72" y="229" on="0"/>
        <pt x="72" y="340" on="1"/>
        <pt x="72" y="451" on="0"/>
        <pt x="141" y="610" on="0"/>
        <pt x="264" y="693" on="0"/>
        <pt x="345" y="693" on="1"/>
      </contour>
      <contour>
        <pt x="238" y="658" on="0"/>
        <pt x="113" y="495" on="0"/>
        <pt x="113" y="340" on="1"/>
        <pt x="113" y="238" on="0"/>
        <pt x="171" y="96" on="0"/>
        <pt x="276" y="25" on="0"/>
        <pt x="345" y="25" on="1"/>
        <pt x="455" y="25" on="0"/>
        <pt x="577" y="186" on="0"/>
        <pt x="577" y="341" on="1"/>
        <pt x="577" y="497" on="0"/>
        <pt x="453" y="658" on="0"/>
        <pt x="345" y="658" on="1"/>
      </contour>
    </TTGlyph>
    <TTGlyph name="OE" xMin="72" yMin="-10" xMax="813" yMax="693">
      <contour>
        <pt x="813" y="0" on="1"/>
        <pt x="402" y="0" on="1"/>
        <pt x="372" y="-10" on="0"/>
        <pt x="335" y="-10" on="1"/>
        <pt x="259" y="-10" on="0"/>
        <pt x="140" y="72" on="0"/>
        <pt x="72" y="230" on="0"/>
        <pt x="72" y="340" on="1"/>
        <pt x="72" y="450" on="0"/>
        <pt x="140" y="610" on="0"/>
        <pt x="259" y="693" on="0"/>
        <pt x="335" y="693" on="1"/>
        <pt x="374" y="693" on="0"/>
        <pt x="405" y="683" on="1"/>
        <pt x="806" y="683" on="1"/>
        <pt x="801" y="648" on="1"/>
        <pt x="472" y="648" on="1"/>
        <pt x="529" y="610" on="0"/>
        <pt x="593" y="472" on="0"/>
        <pt x="597" y="375" on="1"/>
        <pt x="762" y="375" on="1"/>
        <pt x="762" y="341" on="1"/>
        <pt x="598" y="341" on="1"/>
        <pt x="597" y="228" on="0"/>
        <pt x="531" y="74" on="0"/>
        <pt x="470" y="35" on="1"/>
        <pt x="813" y="35" on="1"/>
      </contour>
      <contour>
        <pt x="113" y="238" on="0"/>
        <pt x="170" y="97" on="0"/>
        <pt x="271" y="25" on="0"/>
        <pt x="335" y="25" on="1"/>
        <pt x="438" y="25" on="0"/>
        <pt x="557" y="189" on="0"/>
        <pt x="557" y="348" on="1"/>
        <pt x="557" y="449" on="0"/>
        <pt x="501" y="588" on="0"/>
        <pt x="401" y="658" on="0"/>
        <pt x="335" y="658" on="1"/>
        <pt x="270" y="658" on="0"/>
        <pt x="170" y="586" on="0"/>
        <pt x="113" y="443" on="0"/>
        <pt x="113" y="340" on="1"/>
      </contour>
    </TTGlyph>
    <TTGlyph name="Oacute" xMin="72" yMin="-10" xMax="618" yMax="874">
      <component glyphName="O" x="0" y="0" flags="0x0"/>
      <component glyphName="acutecomb.case" x="465" y="0" flags="0x0"/>
    </TTGlyph>
    <TTGlyph name="Oacute.loclPLK" xMin="72" yMin="-10" xMax="618" yMax="898">
      <component glyphName="O" x="0" y="0" flags="0x0"/>
      <component glyphName="acute.case.loclPLK" x="221" y="0" flags="0x0"/>
    </TTGlyph>
    <TTGlyph name="Obreve" xMin="72" yMin="-10" xMax="618" yMax="862">
      <component glyphName="O" x="0" y="0" flags="0x0"/>
      <component glyphName="uni0306.case" x="475" y="0" flags="0x0"/>
    </TTGlyph>
    <TTGlyph name="Ocircumflex" xMin="72" yMin="-10" xMax="618" yMax="882">
      <component glyphName="O" x="0" y="0" flags="0x0"/>
      <component glyphName="uni0302.case" x="513" y="0" flags="0x0"/>
    </TTGlyph>
    <TTGlyph name="Odieresis" xMin="72" yMin="-10" xMax="618" yMax="852">
      <component glyphName="O" x="0" y="0" flags="0x0"/>
      <component glyphName="uni0308.case" x="494" y="0" flags="0x0"/>
    </TTGlyph>
    <TTGlyph name="Ograve" xMin="72" yMin="-10" xMax="618" yMax="874">
      <component glyphName="O" x="0" y="0" flags="0x0"/>
      <component glyphName="gravecomb.case" x="464" y="0" flags="0x0"/>
    </TTGlyph>
    <TTGlyph name="Ohorn" xMin="72" yMin="-10" xMax="618" yMax="768">
      <contour>
        <pt x="618" y="509" on="0"/>
        <pt x="618" y="341" on="1"/>
        <pt x="618" y="231" on="0"/>
        <pt x="551" y="73" on="0"/>
        <pt x="428" y="-10" on="0"/>
        <pt x="345" y="-10" on="1"/>
        <pt x="264" y="-10" on="0"/>
        <pt x="141" y="72" on="0"/>
        <pt x="72" y="229" on="0"/>
        <pt x="72" y="340" on="1"/>
        <pt x="72" y="451" on="0"/>
        <pt x="141" y="610" on="0"/>
        <pt x="264" y="693" on="0"/>
        <pt x="345" y="693" on="1"/>
        <pt x="452" y="693" on="0"/>
        <pt x="522" y="625" on="1"/>
        <pt x="555" y="629" on="0"/>
        <pt x="584" y="658" on="0"/>
        <pt x="584" y="686" on="1"/>
        <pt x="584" y="723" on="0"/>
        <pt x="570" y="758" on="1"/>
        <pt x="599" y="768" on="1"/>
        <pt x="617" y="732" on="0"/>
        <pt x="617" y="687" on="1"/>
        <pt x="617" y="650" on="0"/>
        <pt x="579" y="606" on="0"/>
        <pt x="544" y="602" on="1"/>
      </contour>
      <contour>
        <pt x="455" y="25" on="0"/>
        <pt x="577" y="186" on="0"/>
        <pt x="577" y="341" on="1"/>
        <pt x="577" y="497" on="0"/>
        <pt x="453" y="658" on="0"/>
        <pt x="345" y="658" on="1"/>
        <pt x="238" y="658" on="0"/>
        <pt x="113" y="495" on="0"/>
        <pt x="113" y="340" on="1"/>
        <pt x="113" y="238" on="0"/>
        <pt x="171" y="96" on="0"/>
        <pt x="276" y="25" on="0"/>
        <pt x="345" y="25" on="1"/>
      </contour>
    </TTGlyph>
    <TTGlyph name="Ohungarumlaut" xMin="72" yMin="-10" xMax="618" yMax="925">
      <component glyphName="O" x="0" y="0" flags="0x0"/>
      <component glyphName="uni030B.case" x="520" y="0" flags="0x0"/>
    </TTGlyph>
    <TTGlyph name="Omacron" xMin="72" yMin="-10" xMax="618" yMax="841">
      <component glyphName="O" x="0" y="0" flags="0x0"/>
      <component glyphName="uni0304.case" x="477" y="0" flags="0x0"/>
    </TTGlyph>
    <TTGlyph name="Omega" xMin="72" yMin="0" xMax="618" yMax="693">
      <contour>
        <pt x="427" y="693" on="0"/>
        <pt x="550" y="613" on="0"/>
        <pt x="618" y="455" on="0"/>
        <pt x="618" y="342" on="1"/>
        <pt x="618" y="219" on="0"/>
        <pt x="542" y="73" on="0"/>
        <pt x="468" y="36" on="1"/>
        <pt x="596" y="36" on="1"/>
        <pt x="596" y="0" on="1"/>
        <pt x="407" y="0" on="1"/>
        <pt x="407" y="36" on="1"/>
        <pt x="492" y="67" on="0"/>
        <pt x="577" y="216" on="0"/>
        <pt x="577" y="342" on="1"/>
        <pt x="577" y="497" on="0"/>
        <pt x="453" y="658" on="0"/>
        <pt x="345" y="658" on="1"/>
        <pt x="238" y="658" on="0"/>
        <pt x="113" y="495" on="0"/>
        <pt x="113" y="341" on="1"/>
        <pt x="113" y="218" on="0"/>
        <pt x="198" y="72" on="0"/>
        <pt x="283" y="36" on="1"/>
        <pt x="283" y="0" on="1"/>
        <pt x="94" y="0" on="1"/>
        <pt x="94" y="36" on="1"/>
        <pt x="223" y="36" on="1"/>
        <pt x="145" y="76" on="0"/>
        <pt x="72" y="221" on="0"/>
        <pt x="72" y="341" on="1"/>
        <pt x="72" y="451" on="0"/>
        <pt x="141" y="610" on="0"/>
        <pt x="264" y="693" on="0"/>
        <pt x="345" y="693" on="1"/>
      </contour>
    </TTGlyph>
    <TTGlyph name="Omegatonos" xMin="30" yMin="0" xMax="656" yMax="693">
      <component glyphName="tonos.case" x="0" y="0" flags="0x0"/>
      <component glyphName="Omega" x="38" y="0" flags="0x0"/>
    </TTGlyph>
    <TTGlyph name="Omicron" xMin="72" yMin="-10" xMax="618" yMax="693">
      <contour>
        <pt x="427" y="693" on="0"/>
        <pt x="550" y="612" on="0"/>
        <pt x="618" y="454" on="0"/>
        <pt x="618" y="341" on="1"/>
        <pt x="618" y="231" on="0"/>
        <pt x="551" y="73" on="0"/>
        <pt x="428" y="-10" on="0"/>
        <pt x="345" y="-10" on="1"/>
        <pt x="264" y="-10" on="0"/>
        <pt x="141" y="72" on="0"/>
        <pt x="72" y="229" on="0"/>
        <pt x="72" y="340" on="1"/>
        <pt x="72" y="451" on="0"/>
        <pt x="141" y="610" on="0"/>
        <pt x="264" y="693" on="0"/>
        <pt x="345" y="693" on="1"/>
      </contour>
      <contour>
        <pt x="238" y="658" on="0"/>
        <pt x="113" y="495" on="0"/>
        <pt x="113" y="340" on="1"/>
        <pt x="113" y="238" on="0"/>
        <pt x="171" y="96" on="0"/>
        <pt x="276" y="25" on="0"/>
        <pt x="345" y="25" on="1"/>
        <pt x="455" y="25" on="0"/>
        <pt x="577" y="186" on="0"/>
        <pt x="577" y="341" on="1"/>
        <pt x="577" y="497" on="0"/>
        <pt x="453" y="658" on="0"/>
        <pt x="345" y="658" on="1"/>
      </contour>
    </TTGlyph>
    <TTGlyph name="Omicrontonos" xMin="30" yMin="-10" xMax="656" yMax="693">
      <component glyphName="tonos.case" x="0" y="0" flags="0x0"/>
      <component glyphName="O" x="38" y="0" flags="0x0"/>
    </TTGlyph>
    <TTGlyph name="Oslash" xMin="72" yMin="-116" xMax="618" yMax="805">
      <contour>
        <pt x="534" y="635" on="0"/>
        <pt x="618" y="467" on="0"/>
        <pt x="618" y="341" on="1"/>
        <pt x="618" y="231" on="0"/>
        <pt x="551" y="73" on="0"/>
        <pt x="428" y="-10" on="0"/>
        <pt x="345" y="-10" on="1"/>
        <pt x="300" y="-10" on="0"/>
        <pt x="261" y="2" on="1"/>
        <pt x="229" y="-116" on="1"/>
        <pt x="192" y="-105" on="1"/>
        <pt x="229" y="15" on="1"/>
        <pt x="155" y="51" on="0"/>
        <pt x="72" y="218" on="0"/>
        <pt x="72" y="340" on="1"/>
        <pt x="72" y="451" on="0"/>
        <pt x="141" y="610" on="0"/>
        <pt x="264" y="693" on="0"/>
        <pt x="345" y="693" on="1"/>
        <pt x="386" y="693" on="0"/>
        <pt x="427" y="682" on="1"/>
        <pt x="460" y="805" on="1"/>
        <pt x="498" y="795" on="1"/>
        <pt x="458" y="670" on="1"/>
      </contour>
      <contour>
        <pt x="113" y="229" on="0"/>
        <pt x="181" y="81" on="0"/>
        <pt x="243" y="49" on="1"/>
        <pt x="419" y="647" on="1"/>
        <pt x="383" y="658" on="0"/>
        <pt x="345" y="658" on="1"/>
        <pt x="238" y="658" on="0"/>
        <pt x="113" y="495" on="0"/>
        <pt x="113" y="340" on="1"/>
      </contour>
      <contour>
        <pt x="455" y="25" on="0"/>
        <pt x="577" y="186" on="0"/>
        <pt x="577" y="341" on="1"/>
        <pt x="577" y="456" on="0"/>
        <pt x="508" y="604" on="0"/>
        <pt x="446" y="636" on="1"/>
        <pt x="269" y="37" on="1"/>
        <pt x="305" y="25" on="0"/>
        <pt x="345" y="25" on="1"/>
      </contour>
    </TTGlyph>
    <TTGlyph name="Oslashacute" xMin="72" yMin="-116" xMax="618" yMax="885">
      <component glyphName="Oslash" x="0" y="0" flags="0x0"/>
      <component glyphName="acutecomb.case" x="458" y="11" flags="0x0"/>
    </TTGlyph>
    <TTGlyph name="Otilde" xMin="72" yMin="-10" xMax="618" yMax="875">
      <component glyphName="O" x="0" y="0" flags="0x0"/>
      <component glyphName="tildecomb.case" x="505" y="0" flags="0x0"/>
    </TTGlyph>
    <TTGlyph name="P" xMin="117" yMin="0" xMax="512" yMax="683">
      <contour>
        <pt x="512" y="683" on="0"/>
        <pt x="512" y="482" on="1"/>
        <pt x="512" y="374" on="0"/>
        <pt x="379" y="275" on="0"/>
        <pt x="262" y="275" on="1"/>
        <pt x="157" y="275" on="1"/>
        <pt x="157" y="0" on="1"/>
        <pt x="117" y="0" on="1"/>
        <pt x="117" y="683" on="1"/>
        <pt x="266" y="683" on="1"/>
      </contour>
      <contour>
        <pt x="362" y="310" on="0"/>
        <pt x="471" y="388" on="0"/>
        <pt x="471" y="481" on="1"/>
        <pt x="471" y="571" on="0"/>
        <pt x="368" y="648" on="0"/>
        <pt x="266" y="648" on="1"/>
        <pt x="157" y="648" on="1"/>
        <pt x="157" y="310" on="1"/>
        <pt x="264" y="310" on="1"/>
      </contour>
    </TTGlyph>
    <TTGlyph name="Phi" xMin="44" yMin="0" xMax="736" yMax="683">
      <contour>
        <pt x="736" y="86" on="0"/>
        <pt x="409" y="72" on="1"/>
        <pt x="409" y="0" on="1"/>
        <pt x="370" y="0" on="1"/>
        <pt x="370" y="72" on="1"/>
        <pt x="210" y="76" on="0"/>
        <pt x="44" y="218" on="0"/>
        <pt x="44" y="342" on="1"/>
        <pt x="44" y="598" on="0"/>
        <pt x="370" y="612" on="1"/>
        <pt x="370" y="683" on="1"/>
        <pt x="409" y="683" on="1"/>
        <pt x="409" y="612" on="1"/>
        <pt x="570" y="608" on="0"/>
        <pt x="736" y="466" on="0"/>
        <pt x="736" y="343" on="1"/>
      </contour>
      <contour>
        <pt x="554" y="113" on="0"/>
        <pt x="695" y="226" on="0"/>
        <pt x="695" y="343" on="1"/>
        <pt x="695" y="454" on="0"/>
        <pt x="549" y="575" on="0"/>
        <pt x="408" y="578" on="1"/>
        <pt x="408" y="105" on="1"/>
      </contour>
      <contour>
        <pt x="84" y="230" on="0"/>
        <pt x="229" y="109" on="0"/>
        <pt x="371" y="105" on="1"/>
        <pt x="371" y="578" on="1"/>
        <pt x="225" y="570" on="0"/>
        <pt x="84" y="458" on="0"/>
        <pt x="84" y="342" on="1"/>
      </contour>
    </TTGlyph>
    <TTGlyph name="Pi" xMin="117" yMin="0" xMax="542" yMax="683">
      <component glyphName="uni041F" x="0" y="0" flags="0x0"/>
    </TTGlyph>
    <TTGlyph name="Psi" xMin="44" yMin="0" xMax="613" yMax="683">
      <contour>
        <pt x="613" y="683" on="1"/>
        <pt x="613" y="426" on="1"/>
        <pt x="613" y="321" on="0"/>
        <pt x="478" y="210" on="0"/>
        <pt x="348" y="205" on="1"/>
        <pt x="348" y="0" on="1"/>
        <pt x="309" y="0" on="1"/>
        <pt x="309" y="205" on="1"/>
        <pt x="180" y="210" on="0"/>
        <pt x="44" y="322" on="0"/>
        <pt x="44" y="426" on="1"/>
        <pt x="44" y="683" on="1"/>
        <pt x="83" y="683" on="1"/>
        <pt x="83" y="430" on="1"/>
        <pt x="83" y="339" on="0"/>
        <pt x="197" y="244" on="0"/>
        <pt x="309" y="240" on="1"/>
        <pt x="309" y="683" on="1"/>
        <pt x="348" y="683" on="1"/>
        <pt x="348" y="240" on="1"/>
        <pt x="574" y="248" on="0"/>
        <pt x="574" y="430" on="1"/>
        <pt x="574" y="683" on="1"/>
      </contour>
    </TTGlyph>
    <TTGlyph name="Q" xMin="72" yMin="-86" xMax="639" yMax="693">
      <contour>
        <pt x="565" y="11" on="0"/>
        <pt x="639" y="-53" on="1"/>
        <pt x="613" y="-86" on="1"/>
        <pt x="560" y="-41" on="0"/>
        <pt x="440" y="-8" on="0"/>
        <pt x="345" y="-8" on="1"/>
        <pt x="264" y="-8" on="0"/>
        <pt x="141" y="73" on="0"/>
        <pt x="72" y="229" on="0"/>
        <pt x="72" y="340" on="1"/>
        <pt x="72" y="451" on="0"/>
        <pt x="141" y="610" on="0"/>
        <pt x="264" y="693" on="0"/>
        <pt x="345" y="693" on="1"/>
        <pt x="427" y="693" on="0"/>
        <pt x="550" y="612" on="0"/>
        <pt x="618" y="454" on="0"/>
        <pt x="618" y="341" on="1"/>
        <pt x="618" y="199" on="0"/>
        <pt x="519" y="39" on="0"/>
        <pt x="435" y="15" on="1"/>
      </contour>
      <contour>
        <pt x="113" y="238" on="0"/>
        <pt x="171" y="96" on="0"/>
        <pt x="276" y="25" on="0"/>
        <pt x="345" y="25" on="1"/>
        <pt x="455" y="25" on="0"/>
        <pt x="577" y="186" on="0"/>
        <pt x="577" y="341" on="1"/>
        <pt x="577" y="497" on="0"/>
        <pt x="453" y="658" on="0"/>
        <pt x="345" y="658" on="1"/>
        <pt x="238" y="658" on="0"/>
        <pt x="113" y="495" on="0"/>
        <pt x="113" y="340" on="1"/>
      </contour>
    </TTGlyph>
    <TTGlyph name="R" xMin="117" yMin="0" xMax="543" yMax="683">
      <contour>
        <pt x="312" y="316" on="1"/>
        <pt x="157" y="316" on="1"/>
        <pt x="157" y="0" on="1"/>
        <pt x="117" y="0" on="1"/>
        <pt x="117" y="683" on="1"/>
        <pt x="275" y="683" on="1"/>
        <pt x="394" y="683" on="0"/>
        <pt x="507" y="591" on="0"/>
        <pt x="507" y="502" on="1"/>
        <pt x="507" y="426" on="0"/>
        <pt x="427" y="340" on="0"/>
        <pt x="353" y="323" on="1"/>
        <pt x="543" y="0" on="1"/>
        <pt x="494" y="0" on="1"/>
      </contour>
      <contour>
        <pt x="281" y="351" on="1"/>
        <pt x="371" y="351" on="0"/>
        <pt x="466" y="426" on="0"/>
        <pt x="466" y="502" on="1"/>
        <pt x="466" y="576" on="0"/>
        <pt x="375" y="648" on="0"/>
        <pt x="271" y="648" on="1"/>
        <pt x="157" y="648" on="1"/>
        <pt x="157" y="351" on="1"/>
      </contour>
    </TTGlyph>
    <TTGlyph name="Racute" xMin="117" yMin="0" xMax="543" yMax="874">
      <component glyphName="R" x="0" y="0" flags="0x0"/>
      <component glyphName="acutecomb.case" x="411" y="0" flags="0x0"/>
    </TTGlyph>
    <TTGlyph name="Rcaron" xMin="117" yMin="0" xMax="543" yMax="875">
      <component glyphName="R" x="0" y="0" flags="0x0"/>
      <component glyphName="uni030C.case" x="447" y="0" flags="0x0"/>
    </TTGlyph>
    <TTGlyph name="Rcommaaccent" xMin="117" yMin="-269" xMax="543" yMax="683">
      <component glyphName="R" x="0" y="0" flags="0x0"/>
      <component glyphName="uni0326.case" x="369" y="0" flags="0x0"/>
    </TTGlyph>
    <TTGlyph name="Rho" xMin="117" yMin="0" xMax="512" yMax="683">
      <contour>
        <pt x="512" y="683" on="0"/>
        <pt x="512" y="482" on="1"/>
        <pt x="512" y="374" on="0"/>
        <pt x="379" y="275" on="0"/>
        <pt x="262" y="275" on="1"/>
        <pt x="157" y="275" on="1"/>
        <pt x="157" y="0" on="1"/>
        <pt x="117" y="0" on="1"/>
        <pt x="117" y="683" on="1"/>
        <pt x="266" y="683" on="1"/>
      </contour>
      <contour>
        <pt x="362" y="310" on="0"/>
        <pt x="471" y="388" on="0"/>
        <pt x="471" y="481" on="1"/>
        <pt x="471" y="571" on="0"/>
        <pt x="368" y="648" on="0"/>
        <pt x="266" y="648" on="1"/>
        <pt x="157" y="648" on="1"/>
        <pt x="157" y="310" on="1"/>
        <pt x="264" y="310" on="1"/>
      </contour>
    </TTGlyph>
    <TTGlyph name="S" xMin="47" yMin="-10" xMax="474" yMax="693">
      <contour>
        <pt x="326" y="693" on="0"/>
        <pt x="410" y="657" on="0"/>
        <pt x="453" y="620" on="1"/>
        <pt x="428" y="593" on="1"/>
        <pt x="390" y="628" on="0"/>
        <pt x="316" y="658" on="0"/>
        <pt x="266" y="658" on="1"/>
        <pt x="197" y="658" on="0"/>
        <pt x="113" y="588" on="0"/>
        <pt x="113" y="532" on="1"/>
        <pt x="113" y="493" on="0"/>
        <pt x="145" y="441" on="0"/>
        <pt x="215" y="403" on="0"/>
        <pt x="278" y="384" on="1"/>
        <pt x="349" y="362" on="0"/>
        <pt x="432" y="314" on="0"/>
        <pt x="474" y="240" on="0"/>
        <pt x="474" y="184" on="1"/>
        <pt x="474" y="127" on="0"/>
        <pt x="419" y="39" on="0"/>
        <pt x="320" y="-10" on="0"/>
        <pt x="257" y="-10" on="1"/>
        <pt x="193" y="-10" on="0"/>
        <pt x="91" y="33" on="0"/>
        <pt x="47" y="74" on="1"/>
        <pt x="71" y="99" on="1"/>
        <pt x="111" y="63" on="0"/>
        <pt x="198" y="25" on="0"/>
        <pt x="256" y="25" on="1"/>
        <pt x="336" y="25" on="0"/>
        <pt x="434" y="110" on="0"/>
        <pt x="434" y="183" on="1"/>
        <pt x="434" y="229" on="0"/>
        <pt x="401" y="288" on="0"/>
        <pt x="329" y="330" on="0"/>
        <pt x="264" y="350" on="1"/>
        <pt x="193" y="372" on="0"/>
        <pt x="111" y="420" on="0"/>
        <pt x="74" y="484" on="0"/>
        <pt x="74" y="531" on="1"/>
        <pt x="74" y="577" on="0"/>
        <pt x="122" y="651" on="0"/>
        <pt x="209" y="693" on="0"/>
        <pt x="266" y="693" on="1"/>
      </contour>
    </TTGlyph>
    <TTGlyph name="Sacute" xMin="47" yMin="-10" xMax="474" yMax="874">
      <component glyphName="S" x="0" y="0" flags="0x0"/>
      <component glyphName="acutecomb.case" x="389" y="0" flags="0x0"/>
    </TTGlyph>
    <TTGlyph name="Sacute.loclPLK" xMin="47" yMin="-10" xMax="474" yMax="898">
      <component glyphName="S" x="0" y="0" flags="0x0"/>
      <component glyphName="acute.case.loclPLK" x="145" y="0" flags="0x0"/>
    </TTGlyph>
    <TTGlyph name="Scaron" xMin="47" yMin="-10" xMax="474" yMax="875">
      <component glyphName="S" x="0" y="0" flags="0x0"/>
      <component glyphName="uni030C.case" x="425" y="0" flags="0x0"/>
    </TTGlyph>
    <TTGlyph name="Scedilla" xMin="47" yMin="-219" xMax="474" yMax="693">
      <contour>
        <pt x="474" y="100" on="0"/>
        <pt x="361" y="-6" on="0"/>
        <pt x="270" y="-10" on="1"/>
        <pt x="270" y="-69" on="1"/>
        <pt x="316" y="-72" on="0"/>
        <pt x="361" y="-109" on="0"/>
        <pt x="361" y="-140" on="1"/>
        <pt x="361" y="-176" on="0"/>
        <pt x="306" y="-219" on="0"/>
        <pt x="267" y="-219" on="1"/>
        <pt x="225" y="-219" on="0"/>
        <pt x="193" y="-200" on="1"/>
        <pt x="208" y="-173" on="1"/>
        <pt x="232" y="-188" on="0"/>
        <pt x="266" y="-188" on="1"/>
        <pt x="292" y="-188" on="0"/>
        <pt x="324" y="-164" on="0"/>
        <pt x="324" y="-140" on="1"/>
        <pt x="324" y="-117" on="0"/>
        <pt x="281" y="-95" on="0"/>
        <pt x="235" y="-94" on="1"/>
        <pt x="241" y="-10" on="1"/>
        <pt x="182" y="-7" on="0"/>
        <pt x="88" y="36" on="0"/>
        <pt x="47" y="74" on="1"/>
        <pt x="71" y="99" on="1"/>
        <pt x="111" y="63" on="0"/>
        <pt x="198" y="25" on="0"/>
        <pt x="256" y="25" on="1"/>
        <pt x="336" y="25" on="0"/>
        <pt x="434" y="110" on="0"/>
        <pt x="434" y="183" on="1"/>
        <pt x="434" y="229" on="0"/>
        <pt x="401" y="288" on="0"/>
        <pt x="329" y="330" on="0"/>
        <pt x="264" y="350" on="1"/>
        <pt x="193" y="372" on="0"/>
        <pt x="111" y="420" on="0"/>
        <pt x="74" y="484" on="0"/>
        <pt x="74" y="531" on="1"/>
        <pt x="74" y="577" on="0"/>
        <pt x="122" y="651" on="0"/>
        <pt x="209" y="693" on="0"/>
        <pt x="266" y="693" on="1"/>
        <pt x="326" y="693" on="0"/>
        <pt x="410" y="657" on="0"/>
        <pt x="453" y="620" on="1"/>
        <pt x="428" y="593" on="1"/>
        <pt x="390" y="628" on="0"/>
        <pt x="316" y="658" on="0"/>
        <pt x="266" y="658" on="1"/>
        <pt x="197" y="658" on="0"/>
        <pt x="113" y="588" on="0"/>
        <pt x="113" y="532" on="1"/>
        <pt x="113" y="493" on="0"/>
        <pt x="145" y="441" on="0"/>
        <pt x="215" y="403" on="0"/>
        <pt x="278" y="384" on="1"/>
        <pt x="349" y="362" on="0"/>
        <pt x="432" y="314" on="0"/>
        <pt x="474" y="240" on="0"/>
        <pt x="474" y="184" on="1"/>
      </contour>
    </TTGlyph>
    <TTGlyph name="Scircumflex" xMin="47" yMin="-10" xMax="474" yMax="882">
      <component glyphName="S" x="0" y="0" flags="0x0"/>
      <component glyphName="uni0302.case" x="437" y="0" flags="0x0"/>
    </TTGlyph>
    <TTGlyph name="Scommaaccent" xMin="47" yMin="-269" xMax="474" yMax="693">
      <component glyphName="S" x="0" y="0" flags="0x0"/>
      <component glyphName="uni0326.case" x="326" y="0" flags="0x0"/>
    </TTGlyph>
    <TTGlyph name="Sigma" xMin="49" yMin="0" xMax="439" yMax="683">
      <contour>
        <pt x="439" y="648" on="1"/>
        <pt x="103" y="648" on="1"/>
        <pt x="324" y="348" on="1"/>
        <pt x="324" y="330" on="1"/>
        <pt x="103" y="35" on="1"/>
        <pt x="439" y="35" on="1"/>
        <pt x="439" y="0" on="1"/>
        <pt x="49" y="0" on="1"/>
        <pt x="49" y="24" on="1"/>
        <pt x="285" y="339" on="1"/>
        <pt x="49" y="659" on="1"/>
        <pt x="49" y="683" on="1"/>
        <pt x="439" y="683" on="1"/>
      </contour>
    </TTGlyph>
    <TTGlyph name="T" xMin="15" yMin="0" xMax="472" yMax="683">
      <contour>
        <pt x="467" y="646" on="1"/>
        <pt x="261" y="646" on="1"/>
        <pt x="261" y="0" on="1"/>
        <pt x="221" y="0" on="1"/>
        <pt x="221" y="646" on="1"/>
        <pt x="15" y="646" on="1"/>
        <pt x="15" y="683" on="1"/>
        <pt x="472" y="683" on="1"/>
      </contour>
    </TTGlyph>
    <TTGlyph name="Tau" xMin="15" yMin="0" xMax="472" yMax="683">
      <component glyphName="T" x="0" y="0" flags="0x0"/>
    </TTGlyph>
    <TTGlyph name="Tbar" xMin="15" yMin="0" xMax="472" yMax="683">
      <contour>
        <pt x="261" y="646" on="1"/>
        <pt x="261" y="383" on="1"/>
        <pt x="385" y="383" on="1"/>
        <pt x="385" y="349" on="1"/>
        <pt x="261" y="349" on="1"/>
        <pt x="261" y="0" on="1"/>
        <pt x="221" y="0" on="1"/>
        <pt x="221" y="349" on="1"/>
        <pt x="98" y="349" on="1"/>
        <pt x="98" y="383" on="1"/>
        <pt x="221" y="383" on="1"/>
        <pt x="221" y="646" on="1"/>
        <pt x="15" y="646" on="1"/>
        <pt x="15" y="683" on="1"/>
        <pt x="472" y="683" on="1"/>
        <pt x="467" y="646" on="1"/>
      </contour>
    </TTGlyph>
    <TTGlyph name="Tcaron" xMin="15" yMin="0" xMax="472" yMax="875">
      <component glyphName="T" x="0" y="0" flags="0x0"/>
      <component glyphName="uni030C.case" x="397" y="0" flags="0x0"/>
    </TTGlyph>
    <TTGlyph name="Theta" xMin="72" yMin="-10" xMax="618" yMax="693">
      <contour>
        <pt x="427" y="693" on="0"/>
        <pt x="550" y="612" on="0"/>
        <pt x="618" y="454" on="0"/>
        <pt x="618" y="341" on="1"/>
        <pt x="618" y="231" on="0"/>
        <pt x="551" y="73" on="0"/>
        <pt x="428" y="-10" on="0"/>
        <pt x="345" y="-10" on="1"/>
        <pt x="264" y="-10" on="0"/>
        <pt x="141" y="72" on="0"/>
        <pt x="72" y="229" on="0"/>
        <pt x="72" y="340" on="1"/>
        <pt x="72" y="451" on="0"/>
        <pt x="141" y="610" on="0"/>
        <pt x="264" y="693" on="0"/>
        <pt x="345" y="693" on="1"/>
      </contour>
      <contour>
        <pt x="238" y="658" on="0"/>
        <pt x="113" y="495" on="0"/>
        <pt x="113" y="340" on="1"/>
        <pt x="113" y="238" on="0"/>
        <pt x="171" y="96" on="0"/>
        <pt x="276" y="25" on="0"/>
        <pt x="345" y="25" on="1"/>
        <pt x="455" y="25" on="0"/>
        <pt x="577" y="186" on="0"/>
        <pt x="577" y="341" on="1"/>
        <pt x="577" y="497" on="0"/>
        <pt x="453" y="658" on="0"/>
        <pt x="345" y="658" on="1"/>
      </contour>
      <contour>
        <pt x="480" y="334" on="1"/>
        <pt x="210" y="334" on="1"/>
        <pt x="210" y="368" on="1"/>
        <pt x="480" y="368" on="1"/>
      </contour>
    </TTGlyph>
    <TTGlyph name="Thorn" xMin="117" yMin="0" xMax="512" yMax="683">
      <contour>
        <pt x="512" y="558" on="0"/>
        <pt x="512" y="357" on="1"/>
        <pt x="512" y="142" on="0"/>
        <pt x="262" y="142" on="1"/>
        <pt x="157" y="142" on="1"/>
        <pt x="157" y="0" on="1"/>
        <pt x="117" y="0" on="1"/>
        <pt x="117" y="683" on="1"/>
        <pt x="157" y="683" on="1"/>
        <pt x="157" y="558" on="1"/>
        <pt x="266" y="558" on="1"/>
      </contour>
      <contour>
        <pt x="363" y="177" on="0"/>
        <pt x="471" y="257" on="0"/>
        <pt x="471" y="356" on="1"/>
        <pt x="471" y="446" on="0"/>
        <pt x="368" y="523" on="0"/>
        <pt x="266" y="523" on="1"/>
        <pt x="157" y="523" on="1"/>
        <pt x="157" y="177" on="1"/>
        <pt x="264" y="177" on="1"/>
      </contour>
    </TTGlyph>
    <TTGlyph name="U" xMin="107" yMin="-10" xMax="538" yMax="683">
      <contour>
        <pt x="538" y="210" on="1"/>
        <pt x="538" y="109" on="0"/>
        <pt x="430" y="-10" on="0"/>
        <pt x="323" y="-10" on="1"/>
        <pt x="215" y="-10" on="0"/>
        <pt x="107" y="109" on="0"/>
        <pt x="107" y="210" on="1"/>
        <pt x="107" y="683" on="1"/>
        <pt x="147" y="683" on="1"/>
        <pt x="147" y="213" on="1"/>
        <pt x="147" y="124" on="0"/>
        <pt x="233" y="25" on="0"/>
        <pt x="323" y="25" on="1"/>
        <pt x="413" y="25" on="0"/>
        <pt x="499" y="126" on="0"/>
        <pt x="499" y="213" on="1"/>
        <pt x="499" y="683" on="1"/>
        <pt x="538" y="683" on="1"/>
      </contour>
    </TTGlyph>
    <TTGlyph name="Uacute" xMin="107" yMin="-10" xMax="538" yMax="874">
      <component glyphName="U" x="0" y="0" flags="0x0"/>
      <component glyphName="acutecomb.case" x="443" y="0" flags="0x0"/>
    </TTGlyph>
    <TTGlyph name="Ubreve" xMin="107" yMin="-10" xMax="538" yMax="862">
      <component glyphName="U" x="0" y="0" flags="0x0"/>
      <component glyphName="uni0306.case" x="453" y="0" flags="0x0"/>
    </TTGlyph>
    <TTGlyph name="Ucircumflex" xMin="107" yMin="-10" xMax="538" yMax="882">
      <component glyphName="U" x="0" y="0" flags="0x0"/>
      <component glyphName="uni0302.case" x="491" y="0" flags="0x0"/>
    </TTGlyph>
    <TTGlyph name="Udieresis" xMin="107" yMin="-10" xMax="538" yMax="852">
      <component glyphName="U" x="0" y="0" flags="0x0"/>
      <component glyphName="uni0308.case" x="472" y="0" flags="0x0"/>
    </TTGlyph>
    <TTGlyph name="Ugrave" xMin="107" yMin="-10" xMax="538" yMax="874">
      <component glyphName="U" x="0" y="0" flags="0x0"/>
      <component glyphName="gravecomb.case" x="442" y="0" flags="0x0"/>
    </TTGlyph>
    <TTGlyph name="Uhorn" xMin="107" yMin="-10" xMax="627" yMax="768">
      <component glyphName="U" x="0" y="0" flags="0x0"/>
      <component glyphName="uni031B.case" x="657" y="0" flags="0x0"/>
    </TTGlyph>
    <TTGlyph name="Uhungarumlaut" xMin="107" yMin="-10" xMax="538" yMax="925">
      <component glyphName="U" x="0" y="0" flags="0x0"/>
      <component glyphName="uni030B.case" x="498" y="0" flags="0x0"/>
    </TTGlyph>
    <TTGlyph name="Umacron" xMin="107" yMin="-10" xMax="538" yMax="841">
      <component glyphName="U" x="0" y="0" flags="0x0"/>
      <component glyphName="uni0304.case" x="455" y="0" flags="0x0"/>
    </TTGlyph>
    <TTGlyph name="Uogonek" xMin="107" yMin="-209" xMax="538" yMax="683">
      <contour>
        <pt x="538" y="683" on="1"/>
        <pt x="538" y="210" on="1"/>
        <pt x="538" y="129" on="0"/>
        <pt x="468" y="19" on="0"/>
        <pt x="398" y="-1" on="1"/>
        <pt x="335" y="-30" on="0"/>
        <pt x="279" y="-82" on="0"/>
        <pt x="279" y="-120" on="1"/>
        <pt x="279" y="-145" on="0"/>
        <pt x="314" y="-174" on="0"/>
        <pt x="348" y="-174" on="1"/>
        <pt x="369" y="-174" on="0"/>
        <pt x="402" y="-168" on="1"/>
        <pt x="398" y="-203" on="1"/>
        <pt x="368" y="-209" on="0"/>
        <pt x="343" y="-209" on="1"/>
        <pt x="292" y="-209" on="0"/>
        <pt x="240" y="-162" on="0"/>
        <pt x="240" y="-123" on="1"/>
        <pt x="240" y="-87" on="0"/>
        <pt x="286" y="-32" on="0"/>
        <pt x="332" y="-10" on="1"/>
        <pt x="323" y="-10" on="1"/>
        <pt x="215" y="-10" on="0"/>
        <pt x="107" y="109" on="0"/>
        <pt x="107" y="210" on="1"/>
        <pt x="107" y="683" on="1"/>
        <pt x="147" y="683" on="1"/>
        <pt x="147" y="213" on="1"/>
        <pt x="147" y="124" on="0"/>
        <pt x="233" y="25" on="0"/>
        <pt x="323" y="25" on="1"/>
        <pt x="413" y="25" on="0"/>
        <pt x="499" y="126" on="0"/>
        <pt x="499" y="213" on="1"/>
        <pt x="499" y="683" on="1"/>
      </contour>
    </TTGlyph>
    <TTGlyph name="Upsilon" xMin="18" yMin="0" xMax="488" yMax="683">
      <contour>
        <pt x="274" y="270" on="1"/>
        <pt x="274" y="0" on="1"/>
        <pt x="235" y="0" on="1"/>
        <pt x="235" y="269" on="1"/>
        <pt x="18" y="683" on="1"/>
        <pt x="62" y="683" on="1"/>
        <pt x="255" y="304" on="1"/>
        <pt x="445" y="683" on="1"/>
        <pt x="488" y="683" on="1"/>
      </contour>
    </TTGlyph>
    <TTGlyph name="Upsilondieresis" xMin="18" yMin="0" xMax="488" yMax="852">
      <component glyphName="Y" x="0" y="0" flags="0x0"/>
      <component glyphName="uni0308.case" x="402" y="0" flags="0x0"/>
    </TTGlyph>
    <TTGlyph name="Upsilontonos" xMin="30" yMin="0" xMax="616" yMax="692">
      <component glyphName="tonos.case" x="0" y="0" flags="0x0"/>
      <component glyphName="Y" x="128" y="0" flags="0x0"/>
    </TTGlyph>
    <TTGlyph name="Uring" xMin="107" yMin="-10" xMax="538" yMax="938">
      <component glyphName="U" x="0" y="0" flags="0x0"/>
      <component glyphName="uni030A.case" x="440" y="0" flags="0x0"/>
    </TTGlyph>
    <TTGlyph name="Utilde" xMin="107" yMin="-10" xMax="538" yMax="875">
      <component glyphName="U" x="0" y="0" flags="0x0"/>
      <component glyphName="tildecomb.case" x="483" y="0" flags="0x0"/>
    </TTGlyph>
    <TTGlyph name="V" xMin="23" yMin="0" xMax="518" yMax="683">
      <contour>
        <pt x="293" y="0" on="1"/>
        <pt x="246" y="0" on="1"/>
        <pt x="23" y="683" on="1"/>
        <pt x="64" y="683" on="1"/>
        <pt x="271" y="39" on="1"/>
        <pt x="477" y="683" on="1"/>
        <pt x="518" y="683" on="1"/>
      </contour>
    </TTGlyph>
    <TTGlyph name="W" xMin="34" yMin="0" xMax="766" yMax="683">
      <contour>
        <pt x="610" y="0" on="1"/>
        <pt x="563" y="0" on="1"/>
        <pt x="400" y="642" on="1"/>
        <pt x="237" y="0" on="1"/>
        <pt x="190" y="0" on="1"/>
        <pt x="34" y="683" on="1"/>
        <pt x="74" y="683" on="1"/>
        <pt x="216" y="39" on="1"/>
        <pt x="377" y="683" on="1"/>
        <pt x="423" y="683" on="1"/>
        <pt x="586" y="39" on="1"/>
        <pt x="727" y="683" on="1"/>
        <pt x="766" y="683" on="1"/>
      </contour>
    </TTGlyph>
    <TTGlyph name="Wacute" xMin="34" yMin="0" xMax="766" yMax="874">
      <component glyphName="W" x="0" y="0" flags="0x0"/>
      <component glyphName="acutecomb.case" x="520" y="0" flags="0x0"/>
    </TTGlyph>
    <TTGlyph name="Wcircumflex" xMin="34" yMin="0" xMax="766" yMax="882">
      <component glyphName="W" x="0" y="0" flags="0x0"/>
      <component glyphName="uni0302.case" x="568" y="0" flags="0x0"/>
    </TTGlyph>
    <TTGlyph name="Wdieresis" xMin="34" yMin="0" xMax="766" yMax="852">
      <component glyphName="W" x="0" y="0" flags="0x0"/>
      <component glyphName="uni0308.case" x="548" y="0" flags="0x0"/>
    </TTGlyph>
    <TTGlyph name="Wgrave" xMin="34" yMin="0" xMax="766" yMax="874">
      <component glyphName="W" x="0" y="0" flags="0x0"/>
      <component glyphName="gravecomb.case" x="519" y="0" flags="0x0"/>
    </TTGlyph>
    <TTGlyph name="X" xMin="14" yMin="0" xMax="485" yMax="683">
      <contour>
        <pt x="485" y="0" on="1"/>
        <pt x="441" y="0" on="1"/>
        <pt x="246" y="344" on="1"/>
        <pt x="56" y="0" on="1"/>
        <pt x="14" y="0" on="1"/>
        <pt x="223" y="369" on="1"/>
        <pt x="35" y="683" on="1"/>
        <pt x="80" y="683" on="1"/>
        <pt x="246" y="393" on="1"/>
        <pt x="412" y="683" on="1"/>
        <pt x="455" y="683" on="1"/>
        <pt x="269" y="370" on="1"/>
      </contour>
    </TTGlyph>
    <TTGlyph name="Xi" xMin="54" yMin="0" xMax="436" yMax="683">
      <contour>
        <pt x="421" y="647" on="1"/>
        <pt x="54" y="647" on="1"/>
        <pt x="54" y="683" on="1"/>
        <pt x="425" y="683" on="1"/>
      </contour>
      <contour>
        <pt x="378" y="339" on="1"/>
        <pt x="111" y="339" on="1"/>
        <pt x="111" y="376" on="1"/>
        <pt x="378" y="376" on="1"/>
      </contour>
      <contour>
        <pt x="436" y="0" on="1"/>
        <pt x="54" y="0" on="1"/>
        <pt x="54" y="38" on="1"/>
        <pt x="436" y="38" on="1"/>
      </contour>
    </TTGlyph>
    <TTGlyph name="Y" xMin="18" yMin="0" xMax="488" yMax="683">
      <contour>
        <pt x="274" y="270" on="1"/>
        <pt x="274" y="0" on="1"/>
        <pt x="235" y="0" on="1"/>
        <pt x="235" y="269" on="1"/>
        <pt x="18" y="683" on="1"/>
        <pt x="62" y="683" on="1"/>
        <pt x="255" y="304" on="1"/>
        <pt x="445" y="683" on="1"/>
        <pt x="488" y="683" on="1"/>
      </contour>
    </TTGlyph>
    <TTGlyph name="Yacute" xMin="18" yMin="0" xMax="488" yMax="874">
      <component glyphName="Y" x="0" y="0" flags="0x0"/>
      <component glyphName="acutecomb.case" x="373" y="0" flags="0x0"/>
    </TTGlyph>
    <TTGlyph name="Ycircumflex" xMin="18" yMin="0" xMax="488" yMax="882">
      <component glyphName="Y" x="0" y="0" flags="0x0"/>
      <component glyphName="uni0302.case" x="421" y="0" flags="0x0"/>
    </TTGlyph>
    <TTGlyph name="Ydieresis" xMin="18" yMin="0" xMax="488" yMax="852">
      <component glyphName="Y" x="0" y="0" flags="0x0"/>
      <component glyphName="uni0308.case" x="402" y="0" flags="0x0"/>
    </TTGlyph>
    <TTGlyph name="Ygrave" xMin="18" yMin="0" xMax="488" yMax="874">
      <component glyphName="Y" x="0" y="0" flags="0x0"/>
      <component glyphName="gravecomb.case" x="372" y="0" flags="0x0"/>
    </TTGlyph>
    <TTGlyph name="Z" xMin="39" yMin="0" xMax="463" yMax="683">
      <contour>
        <pt x="463" y="649" on="1"/>
        <pt x="85" y="37" on="1"/>
        <pt x="453" y="37" on="1"/>
        <pt x="448" y="0" on="1"/>
        <pt x="39" y="0" on="1"/>
        <pt x="39" y="34" on="1"/>
        <pt x="418" y="647" on="1"/>
        <pt x="76" y="647" on="1"/>
        <pt x="76" y="683" on="1"/>
        <pt x="463" y="683" on="1"/>
      </contour>
    </TTGlyph>
    <TTGlyph name="Zacute" xMin="39" yMin="0" xMax="463" yMax="874">
      <component glyphName="Z" x="0" y="0" flags="0x0"/>
      <component glyphName="acutecomb.case" x="378" y="0" flags="0x0"/>
    </TTGlyph>
    <TTGlyph name="Zacute.loclPLK" xMin="39" yMin="0" xMax="463" yMax="898">
      <component glyphName="Z" x="0" y="0" flags="0x0"/>
      <component glyphName="acute.case.loclPLK" x="134" y="0" flags="0x0"/>
    </TTGlyph>
    <TTGlyph name="Zcaron" xMin="39" yMin="0" xMax="463" yMax="875">
      <component glyphName="Z" x="0" y="0" flags="0x0"/>
      <component glyphName="uni030C.case" x="414" y="0" flags="0x0"/>
    </TTGlyph>
    <TTGlyph name="Zdotaccent" xMin="39" yMin="0" xMax="463" yMax="863">
      <component glyphName="Z" x="0" y="0" flags="0x0"/>
      <component glyphName="uni0307.case" x="317" y="0" flags="0x0"/>
    </TTGlyph>
    <TTGlyph name="Zeta" xMin="39" yMin="0" xMax="463" yMax="683">
      <component glyphName="Z" x="0" y="0" flags="0x0"/>
    </TTGlyph>
    <TTGlyph name="a" xMin="62" yMin="-10" xMax="464" yMax="531">
      <contour>
        <pt x="420" y="66" on="0"/>
        <pt x="441" y="26" on="0"/>
        <pt x="464" y="16" on="1"/>
        <pt x="456" y="-10" on="1"/>
        <pt x="423" y="-1" on="0"/>
        <pt x="390" y="41" on="0"/>
        <pt x="387" y="83" on="1"/>
        <pt x="332" y="-10" on="0"/>
        <pt x="222" y="-10" on="1"/>
        <pt x="148" y="-10" on="0"/>
        <pt x="62" y="74" on="0"/>
        <pt x="62" y="144" on="1"/>
        <pt x="62" y="224" on="0"/>
        <pt x="175" y="311" on="0"/>
        <pt x="271" y="311" on="1"/>
        <pt x="382" y="311" on="1"/>
        <pt x="382" y="368" on="1"/>
        <pt x="382" y="435" on="0"/>
        <pt x="324" y="497" on="0"/>
        <pt x="255" y="497" on="1"/>
        <pt x="195" y="497" on="0"/>
        <pt x="113" y="466" on="1"/>
        <pt x="102" y="497" on="1"/>
        <pt x="145" y="514" on="0"/>
        <pt x="219" y="531" on="0"/>
        <pt x="257" y="531" on="1"/>
        <pt x="341" y="531" on="0"/>
        <pt x="420" y="451" on="0"/>
        <pt x="420" y="371" on="1"/>
        <pt x="420" y="112" on="1"/>
      </contour>
      <contour>
        <pt x="329" y="23" on="0"/>
        <pt x="382" y="124" on="1"/>
        <pt x="382" y="279" on="1"/>
        <pt x="278" y="279" on="1"/>
        <pt x="194" y="279" on="0"/>
        <pt x="103" y="211" on="0"/>
        <pt x="103" y="145" on="1"/>
        <pt x="103" y="87" on="0"/>
        <pt x="168" y="23" on="0"/>
        <pt x="224" y="23" on="1"/>
      </contour>
    </TTGlyph>
    <TTGlyph name="a.sc" xMin="23" yMin="0" xMax="471" yMax="561">
      <contour>
        <pt x="376" y="158" on="1"/>
        <pt x="116" y="158" on="1"/>
        <pt x="61" y="0" on="1"/>
        <pt x="23" y="0" on="1"/>
        <pt x="224" y="561" on="1"/>
        <pt x="270" y="561" on="1"/>
        <pt x="471" y="0" on="1"/>
        <pt x="431" y="0" on="1"/>
      </contour>
      <contour>
        <pt x="364" y="192" on="1"/>
        <pt x="247" y="528" on="1"/>
        <pt x="128" y="192" on="1"/>
      </contour>
    </TTGlyph>
    <TTGlyph name="aacute" xMin="62" yMin="-10" xMax="464" yMax="771">
      <component glyphName="a" x="0" y="0" flags="0x0"/>
      <component glyphName="acutecomb" x="379" y="0" flags="0x0"/>
    </TTGlyph>
    <TTGlyph name="aacute.sc" xMin="23" yMin="0" xMax="471" yMax="801">
      <component glyphName="a.sc" x="0" y="0" flags="0x0"/>
      <component glyphName="acutecomb.sc" x="120" y="0" flags="0x0"/>
    </TTGlyph>
    <TTGlyph name="abreve" xMin="62" yMin="-10" xMax="464" yMax="762">
      <component glyphName="a" x="0" y="0" flags="0x0"/>
      <component glyphName="uni0306" x="405" y="0" flags="0x0"/>
    </TTGlyph>
    <TTGlyph name="abreve.sc" xMin="23" yMin="0" xMax="471" yMax="792">
      <component glyphName="a.sc" x="0" y="0" flags="0x0"/>
      <component glyphName="uni0306.sc" x="98" y="0" flags="0x0"/>
    </TTGlyph>
    <TTGlyph name="abrevecy.sc" xMin="23" yMin="0" xMax="471" yMax="773">
      <component glyphName="a.sc" x="0" y="0" flags="0x0"/>
      <component glyphName="brevecy.sc" x="99" y="0" flags="0x0"/>
    </TTGlyph>
    <TTGlyph name="acircumflex" xMin="62" yMin="-10" xMax="464" yMax="772">
      <component glyphName="a" x="0" y="0" flags="0x0"/>
      <component glyphName="uni0302" x="423" y="0" flags="0x0"/>
    </TTGlyph>
    <TTGlyph name="acircumflex.sc" xMin="23" yMin="0" xMax="471" yMax="802">
      <component glyphName="a.sc" x="0" y="0" flags="0x0"/>
      <component glyphName="uni0302.sc" x="80" y="0" flags="0x0"/>
    </TTGlyph>
    <TTGlyph name="acute" xMin="30" yMin="649" xMax="229" yMax="771">
      <contour>
        <pt x="229" y="734" on="1"/>
        <pt x="43" y="649" on="1"/>
        <pt x="30" y="674" on="1"/>
        <pt x="212" y="771" on="1"/>
      </contour>
    </TTGlyph>
    <TTGlyph name="acute.case" xMin="30" yMin="760" xMax="229" yMax="874">
      <contour>
        <pt x="229" y="837" on="1"/>
        <pt x="41" y="760" on="1"/>
        <pt x="30" y="785" on="1"/>
        <pt x="210" y="874" on="1"/>
      </contour>
    </TTGlyph>
    <TTGlyph name="acute.case.loclPLK" xMin="92" yMin="731" xMax="226" yMax="898">
      <contour>
        <pt x="226" y="876" on="1"/>
        <pt x="113" y="731" on="1"/>
        <pt x="92" y="745" on="1"/>
        <pt x="191" y="898" on="1"/>
      </contour>
    </TTGlyph>
    <TTGlyph name="acute.loclPLK" xMin="92" yMin="578" xMax="227" yMax="754">
      <contour>
        <pt x="227" y="732" on="1"/>
        <pt x="113" y="578" on="1"/>
        <pt x="92" y="592" on="1"/>
        <pt x="193" y="754" on="1"/>
      </contour>
    </TTGlyph>
    <TTGlyph name="acute.sc" xMin="30" yMin="679" xMax="229" yMax="801">
      <component glyphName="acutecomb" x="261" y="30" flags="0x0"/>
    </TTGlyph>
    <TTGlyph name="acute.sc.loclPLK" xMin="92" yMin="618" xMax="227" yMax="795">
      <contour>
        <pt x="227" y="772" on="1"/>
        <pt x="113" y="618" on="1"/>
        <pt x="92" y="632" on="1"/>
        <pt x="193" y="795" on="1"/>
      </contour>
    </TTGlyph>
    <TTGlyph name="acutecomb" xMin="-231" yMin="649" xMax="-32" yMax="771">
      <contour>
        <pt x="-32" y="734" on="1"/>
        <pt x="-218" y="649" on="1"/>
        <pt x="-231" y="674" on="1"/>
        <pt x="-49" y="771" on="1"/>
      </contour>
    </TTGlyph>
    <TTGlyph name="acutecomb.case" xMin="-220" yMin="760" xMax="-21" yMax="874">
      <contour>
        <pt x="-21" y="837" on="1"/>
        <pt x="-209" y="760" on="1"/>
        <pt x="-220" y="785" on="1"/>
        <pt x="-40" y="874" on="1"/>
      </contour>
    </TTGlyph>
    <TTGlyph name="acutecomb.sc" xMin="30" yMin="679" xMax="229" yMax="801">
      <contour>
        <pt x="229" y="764" on="1"/>
        <pt x="43" y="679" on="1"/>
        <pt x="30" y="704" on="1"/>
        <pt x="212" y="801" on="1"/>
      </contour>
    </TTGlyph>
    <TTGlyph name="adieresis" xMin="62" yMin="-10" xMax="464" yMax="726">
      <component glyphName="a" x="0" y="0" flags="0x0"/>
      <component glyphName="uni0308" x="405" y="0" flags="0x0"/>
    </TTGlyph>
    <TTGlyph name="adieresis.sc" xMin="23" yMin="0" xMax="471" yMax="756">
      <component glyphName="a.sc" x="0" y="0" flags="0x0"/>
      <component glyphName="uni0308.sc" x="98" y="0" flags="0x0"/>
    </TTGlyph>
    <TTGlyph name="ae" xMin="62" yMin="-10" xMax="782" yMax="531">
      <contour>
        <pt x="782" y="262" on="0"/>
        <pt x="780" y="242" on="1"/>
        <pt x="423" y="242" on="1"/>
        <pt x="427" y="132" on="0"/>
        <pt x="522" y="24" on="0"/>
        <pt x="598" y="24" on="1"/>
        <pt x="641" y="24" on="0"/>
        <pt x="705" y="50" on="0"/>
        <pt x="741" y="79" on="1"/>
        <pt x="761" y="52" on="1"/>
        <pt x="725" y="21" on="0"/>
        <pt x="646" y="-10" on="0"/>
        <pt x="597" y="-10" on="1"/>
        <pt x="534" y="-10" on="0"/>
        <pt x="440" y="48" on="0"/>
        <pt x="413" y="104" on="1"/>
        <pt x="371" y="43" on="0"/>
        <pt x="280" y="-10" on="0"/>
        <pt x="222" y="-10" on="1"/>
        <pt x="148" y="-10" on="0"/>
        <pt x="62" y="74" on="0"/>
        <pt x="62" y="144" on="1"/>
        <pt x="62" y="224" on="0"/>
        <pt x="175" y="311" on="0"/>
        <pt x="271" y="311" on="1"/>
        <pt x="383" y="311" on="1"/>
        <pt x="383" y="368" on="1"/>
        <pt x="383" y="434" on="0"/>
        <pt x="324" y="497" on="0"/>
        <pt x="255" y="497" on="1"/>
        <pt x="196" y="497" on="0"/>
        <pt x="113" y="466" on="1"/>
        <pt x="103" y="497" on="1"/>
        <pt x="189" y="531" on="0"/>
        <pt x="258" y="531" on="1"/>
        <pt x="329" y="531" on="0"/>
        <pt x="406" y="472" on="0"/>
        <pt x="417" y="415" on="1"/>
        <pt x="468" y="531" on="0"/>
        <pt x="590" y="531" on="1"/>
        <pt x="684" y="531" on="0"/>
        <pt x="782" y="398" on="0"/>
        <pt x="782" y="282" on="1"/>
      </contour>
      <contour>
        <pt x="744" y="296" on="1"/>
        <pt x="744" y="389" on="0"/>
        <pt x="667" y="497" on="0"/>
        <pt x="591" y="497" on="1"/>
        <pt x="518" y="497" on="0"/>
        <pt x="426" y="386" on="0"/>
        <pt x="423" y="274" on="1"/>
        <pt x="744" y="274" on="1"/>
      </contour>
      <contour>
        <pt x="278" y="23" on="0"/>
        <pt x="360" y="77" on="0"/>
        <pt x="400" y="137" on="1"/>
        <pt x="383" y="190" on="0"/>
        <pt x="383" y="256" on="1"/>
        <pt x="383" y="279" on="1"/>
        <pt x="278" y="279" on="1"/>
        <pt x="195" y="279" on="0"/>
        <pt x="103" y="211" on="0"/>
        <pt x="103" y="145" on="1"/>
        <pt x="103" y="87" on="0"/>
        <pt x="168" y="23" on="0"/>
        <pt x="225" y="23" on="1"/>
      </contour>
    </TTGlyph>
    <TTGlyph name="ae.sc" xMin="6" yMin="0" xMax="630" yMax="561">
      <contour>
        <pt x="630" y="34" on="1"/>
        <pt x="630" y="0" on="1"/>
        <pt x="403" y="0" on="1"/>
        <pt x="361" y="154" on="1"/>
        <pt x="107" y="154" on="1"/>
        <pt x="45" y="0" on="1"/>
        <pt x="6" y="0" on="1"/>
        <pt x="235" y="561" on="1"/>
        <pt x="586" y="561" on="1"/>
        <pt x="581" y="527" on="1"/>
        <pt x="296" y="527" on="1"/>
        <pt x="356" y="310" on="1"/>
        <pt x="580" y="310" on="1"/>
        <pt x="580" y="277" on="1"/>
        <pt x="364" y="277" on="1"/>
        <pt x="431" y="34" on="1"/>
      </contour>
      <contour>
        <pt x="352" y="187" on="1"/>
        <pt x="258" y="529" on="1"/>
        <pt x="120" y="187" on="1"/>
      </contour>
    </TTGlyph>
    <TTGlyph name="aeacute" xMin="62" yMin="-10" xMax="782" yMax="771">
      <component glyphName="ae" x="0" y="0" flags="0x0"/>
      <component glyphName="acutecomb" x="546" y="0" flags="0x0"/>
    </TTGlyph>
    <TTGlyph name="aeacute.sc" xMin="6" yMin="0" xMax="630" yMax="801">
      <component glyphName="ae.sc" x="0" y="0" flags="0x0"/>
      <component glyphName="acutecomb.sc" x="269" y="0" flags="0x0"/>
    </TTGlyph>
    <TTGlyph name="agrave" xMin="62" yMin="-10" xMax="464" yMax="771">
      <component glyphName="a" x="0" y="0" flags="0x0"/>
      <component glyphName="gravecomb" x="387" y="0" flags="0x0"/>
    </TTGlyph>
    <TTGlyph name="agrave.sc" xMin="23" yMin="0" xMax="471" yMax="801">
      <component glyphName="a.sc" x="0" y="0" flags="0x0"/>
      <component glyphName="gravecomb.sc" x="121" y="0" flags="0x0"/>
    </TTGlyph>
    <TTGlyph name="alpha" xMin="68" yMin="-10" xMax="527" yMax="531">
      <contour>
        <pt x="306" y="531" on="0"/>
        <pt x="372" y="493" on="0"/>
        <pt x="419" y="401" on="0"/>
        <pt x="434" y="320" on="1"/>
        <pt x="477" y="521" on="1"/>
        <pt x="516" y="521" on="1"/>
        <pt x="455" y="268" on="1"/>
        <pt x="487" y="78" on="1"/>
        <pt x="491" y="55" on="0"/>
        <pt x="511" y="33" on="0"/>
        <pt x="527" y="28" on="1"/>
        <pt x="513" y="-5" on="1"/>
        <pt x="488" y="1" on="0"/>
        <pt x="456" y="32" on="0"/>
        <pt x="451" y="65" on="1"/>
        <pt x="430" y="202" on="1"/>
        <pt x="409" y="92" on="0"/>
        <pt x="318" y="-10" on="0"/>
        <pt x="247" y="-10" on="1"/>
        <pt x="161" y="-10" on="0"/>
        <pt x="68" y="127" on="0"/>
        <pt x="68" y="262" on="1"/>
        <pt x="68" y="341" on="0"/>
        <pt x="114" y="463" on="0"/>
        <pt x="200" y="531" on="0"/>
        <pt x="258" y="531" on="1"/>
      </contour>
      <contour>
        <pt x="216" y="498" on="0"/>
        <pt x="148" y="443" on="0"/>
        <pt x="108" y="336" on="0"/>
        <pt x="108" y="262" on="1"/>
        <pt x="108" y="142" on="0"/>
        <pt x="182" y="24" on="0"/>
        <pt x="249" y="24" on="1"/>
        <pt x="309" y="24" on="0"/>
        <pt x="395" y="133" on="0"/>
        <pt x="420" y="268" on="1"/>
        <pt x="402" y="358" on="0"/>
        <pt x="358" y="457" on="0"/>
        <pt x="301" y="498" on="0"/>
        <pt x="260" y="498" on="1"/>
      </contour>
    </TTGlyph>
    <TTGlyph name="alpha.sc" xMin="23" yMin="0" xMax="471" yMax="561">
      <component glyphName="a.sc" x="0" y="0" flags="0x0"/>
    </TTGlyph>
    <TTGlyph name="alphadasiaoxiaprosgegrammeni.sc" xMin="23" yMin="0" xMax="471" yMax="561">
      <component glyphName="a.sc" x="0" y="0" flags="0x0"/>
    </TTGlyph>
    <TTGlyph name="alphadasiaperispomeniprosgegram" xMin="23" yMin="0" xMax="471" yMax="561">
      <component glyphName="a.sc" x="0" y="0" flags="0x0"/>
    </TTGlyph>
    <TTGlyph name="alphadasiaprosgegrammeni.sc" xMin="23" yMin="0" xMax="471" yMax="561">
      <component glyphName="a.sc" x="0" y="0" flags="0x0"/>
    </TTGlyph>
    <TTGlyph name="alphadasiavariaprosgegrammeni.s" xMin="23" yMin="0" xMax="471" yMax="561">
      <component glyphName="a.sc" x="0" y="0" flags="0x0"/>
    </TTGlyph>
    <TTGlyph name="alphaprosgegrammeni.sc" xMin="23" yMin="0" xMax="471" yMax="561">
      <component glyphName="a.sc" x="0" y="0" flags="0x0"/>
    </TTGlyph>
    <TTGlyph name="alphapsilioxiaprosgegrammeni.sc" xMin="23" yMin="0" xMax="471" yMax="561">
      <component glyphName="a.sc" x="0" y="0" flags="0x0"/>
    </TTGlyph>
    <TTGlyph name="alphapsiliperispomeniprosgegram" xMin="23" yMin="0" xMax="471" yMax="561">
      <component glyphName="a.sc" x="0" y="0" flags="0x0"/>
    </TTGlyph>
    <TTGlyph name="alphapsiliprosgegrammeni.sc" xMin="23" yMin="0" xMax="471" yMax="561">
      <component glyphName="a.sc" x="0" y="0" flags="0x0"/>
    </TTGlyph>
    <TTGlyph name="alphapsilivariaprosgegrammeni.s" xMin="23" yMin="0" xMax="471" yMax="561">
      <component glyphName="a.sc" x="0" y="0" flags="0x0"/>
    </TTGlyph>
    <TTGlyph name="alphatonos" xMin="68" yMin="-10" xMax="527" yMax="752">
      <component glyphName="alpha" x="0" y="0" flags="0x0"/>
      <component glyphName="tonos" x="238" y="0" flags="0x0"/>
    </TTGlyph>
    <TTGlyph name="alphatonos.sc" xMin="23" yMin="0" xMax="471" yMax="561">
      <component glyphName="a.sc" x="0" y="0" flags="0x0"/>
    </TTGlyph>
    <TTGlyph name="amacron" xMin="62" yMin="-10" xMax="464" yMax="715">
      <component glyphName="a" x="0" y="0" flags="0x0"/>
      <component glyphName="uni0304" x="398" y="0" flags="0x0"/>
    </TTGlyph>
    <TTGlyph name="amacron.sc" xMin="23" yMin="0" xMax="471" yMax="745">
      <component glyphName="a.sc" x="0" y="0" flags="0x0"/>
      <component glyphName="uni0304.sc" x="106" y="0" flags="0x0"/>
    </TTGlyph>
    <TTGlyph name="ampersand" xMin="96" yMin="-10" xMax="673" yMax="693">
      <contour>
        <pt x="370" y="693" on="0"/>
        <pt x="457" y="612" on="0"/>
        <pt x="457" y="547" on="1"/>
        <pt x="457" y="491" on="0"/>
        <pt x="381" y="408" on="0"/>
        <pt x="297" y="362" on="1"/>
        <pt x="518" y="156" on="1"/>
        <pt x="564" y="248" on="0"/>
        <pt x="588" y="359" on="1"/>
        <pt x="624" y="347" on="1"/>
        <pt x="596" y="222" on="0"/>
        <pt x="542" y="132" on="1"/>
        <pt x="673" y="12" on="1"/>
        <pt x="643" y="-10" on="1"/>
        <pt x="522" y="101" on="1"/>
        <pt x="481" y="48" on="0"/>
        <pt x="374" y="-10" on="0"/>
        <pt x="297" y="-10" on="1"/>
        <pt x="241" y="-10" on="0"/>
        <pt x="149" y="35" on="0"/>
        <pt x="96" y="116" on="0"/>
        <pt x="96" y="169" on="1"/>
        <pt x="96" y="234" on="0"/>
        <pt x="169" y="326" on="0"/>
        <pt x="242" y="368" on="1"/>
        <pt x="185" y="422" on="0"/>
        <pt x="140" y="494" on="0"/>
        <pt x="140" y="543" on="1"/>
        <pt x="140" y="585" on="0"/>
        <pt x="181" y="654" on="0"/>
        <pt x="253" y="693" on="0"/>
        <pt x="300" y="693" on="1"/>
      </contour>
      <contour>
        <pt x="245" y="661" on="0"/>
        <pt x="178" y="593" on="0"/>
        <pt x="178" y="544" on="1"/>
        <pt x="178" y="517" on="0"/>
        <pt x="191" y="476" on="0"/>
        <pt x="231" y="425" on="0"/>
        <pt x="273" y="385" on="1"/>
        <pt x="350" y="425" on="0"/>
        <pt x="419" y="500" on="0"/>
        <pt x="419" y="547" on="1"/>
        <pt x="419" y="601" on="0"/>
        <pt x="352" y="661" on="0"/>
        <pt x="300" y="661" on="1"/>
      </contour>
      <contour>
        <pt x="200" y="307" on="0"/>
        <pt x="135" y="224" on="0"/>
        <pt x="135" y="169" on="1"/>
        <pt x="135" y="105" on="0"/>
        <pt x="227" y="24" on="0"/>
        <pt x="298" y="24" on="1"/>
        <pt x="366" y="24" on="0"/>
        <pt x="459" y="75" on="0"/>
        <pt x="497" y="124" on="1"/>
        <pt x="266" y="346" on="1"/>
      </contour>
    </TTGlyph>
    <TTGlyph name="ampersand.ss03" xMin="66" yMin="-11" xMax="814" yMax="613">
      <contour>
        <pt x="814" y="447" on="1"/>
        <pt x="814" y="411" on="1"/>
        <pt x="715" y="411" on="1"/>
        <pt x="695" y="205" on="0"/>
        <pt x="499" y="-11" on="0"/>
        <pt x="344" y="-11" on="1"/>
        <pt x="210" y="-11" on="0"/>
        <pt x="66" y="156" on="0"/>
        <pt x="66" y="314" on="1"/>
        <pt x="66" y="399" on="0"/>
        <pt x="124" y="536" on="0"/>
        <pt x="230" y="613" on="0"/>
        <pt x="298" y="613" on="1"/>
        <pt x="370" y="613" on="0"/>
        <pt x="455" y="531" on="0"/>
        <pt x="455" y="467" on="1"/>
        <pt x="455" y="373" on="0"/>
        <pt x="281" y="259" on="0"/>
        <pt x="109" y="252" on="1"/>
        <pt x="121" y="138" on="0"/>
        <pt x="240" y="24" on="0"/>
        <pt x="345" y="24" on="1"/>
        <pt x="433" y="24" on="0"/>
        <pt x="573" y="108" on="0"/>
        <pt x="664" y="282" on="0"/>
        <pt x="676" y="411" on="1"/>
        <pt x="567" y="411" on="1"/>
        <pt x="567" y="447" on="1"/>
      </contour>
      <contour>
        <pt x="239" y="578" on="0"/>
        <pt x="152" y="509" on="0"/>
        <pt x="106" y="388" on="0"/>
        <pt x="106" y="313" on="1"/>
        <pt x="106" y="286" on="1"/>
        <pt x="261" y="290" on="0"/>
        <pt x="413" y="387" on="0"/>
        <pt x="413" y="468" on="1"/>
        <pt x="413" y="518" on="0"/>
        <pt x="356" y="578" on="0"/>
        <pt x="298" y="578" on="1"/>
      </contour>
    </TTGlyph>
    <TTGlyph name="anoteleia" xMin="59" yMin="289" xMax="129" yMax="358">
      <component glyphName="periodcentered" x="0" y="0" flags="0x0"/>
    </TTGlyph>
    <TTGlyph name="aogonek" xMin="62" yMin="-219" xMax="464" yMax="531">
      <contour>
        <pt x="335" y="-156" on="0"/>
        <pt x="368" y="-184" on="0"/>
        <pt x="401" y="-184" on="1"/>
        <pt x="425" y="-184" on="0"/>
        <pt x="458" y="-178" on="1"/>
        <pt x="454" y="-213" on="1"/>
        <pt x="424" y="-219" on="0"/>
        <pt x="399" y="-219" on="1"/>
        <pt x="348" y="-219" on="0"/>
        <pt x="296" y="-172" on="0"/>
        <pt x="296" y="-133" on="1"/>
        <pt x="296" y="-90" on="0"/>
        <pt x="359" y="-27" on="0"/>
        <pt x="426" y="2" on="1"/>
        <pt x="408" y="14" on="0"/>
        <pt x="389" y="52" on="0"/>
        <pt x="387" y="83" on="1"/>
        <pt x="332" y="-10" on="0"/>
        <pt x="222" y="-10" on="1"/>
        <pt x="148" y="-10" on="0"/>
        <pt x="62" y="74" on="0"/>
        <pt x="62" y="144" on="1"/>
        <pt x="62" y="224" on="0"/>
        <pt x="175" y="311" on="0"/>
        <pt x="271" y="311" on="1"/>
        <pt x="382" y="311" on="1"/>
        <pt x="382" y="368" on="1"/>
        <pt x="382" y="435" on="0"/>
        <pt x="324" y="497" on="0"/>
        <pt x="255" y="497" on="1"/>
        <pt x="195" y="497" on="0"/>
        <pt x="113" y="466" on="1"/>
        <pt x="102" y="497" on="1"/>
        <pt x="145" y="514" on="0"/>
        <pt x="219" y="531" on="0"/>
        <pt x="257" y="531" on="1"/>
        <pt x="341" y="531" on="0"/>
        <pt x="420" y="451" on="0"/>
        <pt x="420" y="371" on="1"/>
        <pt x="420" y="112" on="1"/>
        <pt x="420" y="66" on="0"/>
        <pt x="441" y="26" on="0"/>
        <pt x="464" y="16" on="1"/>
        <pt x="456" y="-10" on="1"/>
        <pt x="456" y="-10" on="1"/>
        <pt x="455" y="-10" on="1"/>
        <pt x="391" y="-40" on="0"/>
        <pt x="335" y="-92" on="0"/>
        <pt x="335" y="-130" on="1"/>
      </contour>
      <contour>
        <pt x="329" y="23" on="0"/>
        <pt x="382" y="124" on="1"/>
        <pt x="382" y="279" on="1"/>
        <pt x="278" y="279" on="1"/>
        <pt x="194" y="279" on="0"/>
        <pt x="103" y="211" on="0"/>
        <pt x="103" y="145" on="1"/>
        <pt x="103" y="87" on="0"/>
        <pt x="168" y="23" on="0"/>
        <pt x="224" y="23" on="1"/>
      </contour>
    </TTGlyph>
    <TTGlyph name="aogonek.sc" xMin="23" yMin="-209" xMax="471" yMax="561">
      <contour>
        <pt x="346" y="-174" on="0"/>
        <pt x="413" y="-174" on="1"/>
        <pt x="437" y="-174" on="0"/>
        <pt x="469" y="-168" on="1"/>
        <pt x="465" y="-203" on="1"/>
        <pt x="435" y="-209" on="0"/>
        <pt x="410" y="-209" on="1"/>
        <pt x="359" y="-209" on="0"/>
        <pt x="307" y="-162" on="0"/>
        <pt x="307" y="-123" on="1"/>
        <pt x="307" y="-81" on="0"/>
        <pt x="366" y="-19" on="0"/>
        <pt x="428" y="8" on="1"/>
        <pt x="376" y="158" on="1"/>
        <pt x="116" y="158" on="1"/>
        <pt x="61" y="0" on="1"/>
        <pt x="23" y="0" on="1"/>
        <pt x="224" y="561" on="1"/>
        <pt x="270" y="561" on="1"/>
        <pt x="471" y="0" on="1"/>
        <pt x="467" y="0" on="1"/>
        <pt x="403" y="-30" on="0"/>
        <pt x="346" y="-82" on="0"/>
        <pt x="346" y="-120" on="1"/>
      </contour>
      <contour>
        <pt x="364" y="192" on="1"/>
        <pt x="247" y="528" on="1"/>
        <pt x="128" y="192" on="1"/>
      </contour>
    </TTGlyph>
    <TTGlyph name="approxequal" xMin="108" yMin="198" xMax="448" yMax="289">
      <component glyphName="asciitilde.lf" x="47" y="-74" flags="0x0"/>
      <component glyphName="asciitilde.lf" x="47" y="83" flags="0x0"/>
    </TTGlyph>
    <TTGlyph name="approxequal.lf" xMin="61" yMin="198" xMax="401" yMax="289">
      <component glyphName="asciitilde.lf" x="0" y="-74" flags="0x0"/>
      <component glyphName="asciitilde.lf" x="0" y="83" flags="0x0"/>
    </TTGlyph>
    <TTGlyph name="approxequal.osf" xMin="61" yMin="198" xMax="401" yMax="289">
      <component glyphName="asciitilde.lf" x="0" y="-74" flags="0x0"/>
      <component glyphName="asciitilde.lf" x="0" y="83" flags="0x0"/>
    </TTGlyph>
    <TTGlyph name="approxequal.tosf" xMin="110" yMin="198" xMax="450" yMax="289">
      <component glyphName="asciitilde.lf" x="49" y="-74" flags="0x0"/>
      <component glyphName="asciitilde.lf" x="49" y="83" flags="0x0"/>
    </TTGlyph>
    <TTGlyph name="aring" xMin="62" yMin="-10" xMax="464" yMax="812">
      <component glyphName="a" x="0" y="0" flags="0x0"/>
      <component glyphName="uni030A" x="373" y="0" flags="0x0"/>
    </TTGlyph>
    <TTGlyph name="aring.sc" xMin="23" yMin="0" xMax="471" yMax="842">
      <component glyphName="a.sc" x="0" y="0" flags="0x0"/>
      <component glyphName="uni030A.sc" x="127" y="0" flags="0x0"/>
    </TTGlyph>
    <TTGlyph name="aringacute" xMin="62" yMin="-10" xMax="464" yMax="885">
      <contour>
        <pt x="172" y="771" on="1"/>
        <pt x="161" y="796" on="1"/>
        <pt x="341" y="885" on="1"/>
        <pt x="360" y="848" on="1"/>
      </contour>
      <contour>
        <pt x="169" y="715" on="0"/>
        <pt x="219" y="763" on="0"/>
        <pt x="259" y="763" on="1"/>
        <pt x="299" y="763" on="0"/>
        <pt x="348" y="715" on="0"/>
        <pt x="348" y="676" on="1"/>
        <pt x="348" y="637" on="0"/>
        <pt x="299" y="589" on="0"/>
        <pt x="259" y="589" on="1"/>
        <pt x="219" y="589" on="0"/>
        <pt x="169" y="637" on="0"/>
        <pt x="169" y="676" on="1"/>
      </contour>
      <contour>
        <pt x="315" y="704" on="0"/>
        <pt x="286" y="735" on="0"/>
        <pt x="259" y="735" on="1"/>
        <pt x="231" y="735" on="0"/>
        <pt x="202" y="704" on="0"/>
        <pt x="202" y="676" on="1"/>
        <pt x="202" y="647" on="0"/>
        <pt x="231" y="616" on="0"/>
        <pt x="259" y="616" on="1"/>
        <pt x="286" y="616" on="0"/>
        <pt x="315" y="647" on="0"/>
        <pt x="315" y="676" on="1"/>
      </contour>
      <contour>
        <pt x="420" y="66" on="0"/>
        <pt x="441" y="26" on="0"/>
        <pt x="464" y="16" on="1"/>
        <pt x="456" y="-10" on="1"/>
        <pt x="423" y="-1" on="0"/>
        <pt x="390" y="41" on="0"/>
        <pt x="387" y="83" on="1"/>
        <pt x="332" y="-10" on="0"/>
        <pt x="222" y="-10" on="1"/>
        <pt x="148" y="-10" on="0"/>
        <pt x="62" y="74" on="0"/>
        <pt x="62" y="144" on="1"/>
        <pt x="62" y="224" on="0"/>
        <pt x="175" y="311" on="0"/>
        <pt x="271" y="311" on="1"/>
        <pt x="382" y="311" on="1"/>
        <pt x="382" y="368" on="1"/>
        <pt x="382" y="435" on="0"/>
        <pt x="324" y="497" on="0"/>
        <pt x="255" y="497" on="1"/>
        <pt x="195" y="497" on="0"/>
        <pt x="113" y="466" on="1"/>
        <pt x="102" y="497" on="1"/>
        <pt x="145" y="514" on="0"/>
        <pt x="219" y="531" on="0"/>
        <pt x="257" y="531" on="1"/>
        <pt x="341" y="531" on="0"/>
        <pt x="420" y="451" on="0"/>
        <pt x="420" y="371" on="1"/>
        <pt x="420" y="112" on="1"/>
      </contour>
      <contour>
        <pt x="329" y="23" on="0"/>
        <pt x="382" y="124" on="1"/>
        <pt x="382" y="279" on="1"/>
        <pt x="278" y="279" on="1"/>
        <pt x="194" y="279" on="0"/>
        <pt x="103" y="211" on="0"/>
        <pt x="103" y="145" on="1"/>
        <pt x="103" y="87" on="0"/>
        <pt x="168" y="23" on="0"/>
        <pt x="224" y="23" on="1"/>
      </contour>
    </TTGlyph>
    <TTGlyph name="aringacute.sc" xMin="23" yMin="0" xMax="471" yMax="907">
      <contour>
        <pt x="160" y="793" on="1"/>
        <pt x="149" y="818" on="1"/>
        <pt x="329" y="907" on="1"/>
        <pt x="348" y="870" on="1"/>
      </contour>
      <contour>
        <pt x="157" y="731" on="0"/>
        <pt x="207" y="779" on="0"/>
        <pt x="247" y="779" on="1"/>
        <pt x="287" y="779" on="0"/>
        <pt x="336" y="731" on="0"/>
        <pt x="336" y="692" on="1"/>
        <pt x="336" y="653" on="0"/>
        <pt x="287" y="605" on="0"/>
        <pt x="247" y="605" on="1"/>
        <pt x="207" y="605" on="0"/>
        <pt x="157" y="653" on="0"/>
        <pt x="157" y="692" on="1"/>
      </contour>
      <contour>
        <pt x="303" y="720" on="0"/>
        <pt x="274" y="751" on="0"/>
        <pt x="247" y="751" on="1"/>
        <pt x="219" y="751" on="0"/>
        <pt x="190" y="720" on="0"/>
        <pt x="190" y="692" on="1"/>
        <pt x="190" y="663" on="0"/>
        <pt x="219" y="632" on="0"/>
        <pt x="247" y="632" on="1"/>
        <pt x="274" y="632" on="0"/>
        <pt x="303" y="663" on="0"/>
        <pt x="303" y="692" on="1"/>
      </contour>
      <contour>
        <pt x="376" y="158" on="1"/>
        <pt x="116" y="158" on="1"/>
        <pt x="61" y="0" on="1"/>
        <pt x="23" y="0" on="1"/>
        <pt x="224" y="561" on="1"/>
        <pt x="270" y="561" on="1"/>
        <pt x="471" y="0" on="1"/>
        <pt x="431" y="0" on="1"/>
      </contour>
      <contour>
        <pt x="364" y="192" on="1"/>
        <pt x="247" y="528" on="1"/>
        <pt x="128" y="192" on="1"/>
      </contour>
    </TTGlyph>
    <TTGlyph name="arrowboth" xMin="151" yMin="55" xMax="1129" yMax="603">
      <contour>
        <pt x="1129" y="329" on="1"/>
        <pt x="882" y="55" on="1"/>
        <pt x="854" y="80" on="1"/>
        <pt x="996" y="239" on="1"/>
        <pt x="1035" y="284" on="0"/>
        <pt x="1072" y="312" on="1"/>
        <pt x="208" y="312" on="1"/>
        <pt x="245" y="284" on="0"/>
        <pt x="284" y="239" on="1"/>
        <pt x="426" y="80" on="1"/>
        <pt x="398" y="55" on="1"/>
        <pt x="151" y="329" on="1"/>
        <pt x="398" y="603" on="1"/>
        <pt x="426" y="578" on="1"/>
        <pt x="284" y="419" on="1"/>
        <pt x="250" y="380" on="0"/>
        <pt x="208" y="346" on="1"/>
        <pt x="1072" y="346" on="1"/>
        <pt x="1030" y="380" on="0"/>
        <pt x="996" y="419" on="1"/>
        <pt x="854" y="578" on="1"/>
        <pt x="882" y="603" on="1"/>
      </contour>
    </TTGlyph>
    <TTGlyph name="arrowdown" xMin="160" yMin="-18" xMax="740" yMax="616">
      <contour>
        <pt x="469" y="38" on="1"/>
        <pt x="492" y="71" on="0"/>
        <pt x="541" y="113" on="1"/>
        <pt x="715" y="265" on="1"/>
        <pt x="740" y="239" on="1"/>
        <pt x="450" y="-18" on="1"/>
        <pt x="160" y="239" on="1"/>
        <pt x="185" y="265" on="1"/>
        <pt x="359" y="113" on="1"/>
        <pt x="408" y="71" on="0"/>
        <pt x="431" y="38" on="1"/>
        <pt x="431" y="616" on="1"/>
        <pt x="469" y="616" on="1"/>
      </contour>
    </TTGlyph>
    <TTGlyph name="arrowleft" xMin="151" yMin="55" xMax="747" yMax="603">
      <contour>
        <pt x="426" y="578" on="1"/>
        <pt x="284" y="419" on="1"/>
        <pt x="250" y="380" on="0"/>
        <pt x="208" y="346" on="1"/>
        <pt x="747" y="346" on="1"/>
        <pt x="747" y="312" on="1"/>
        <pt x="208" y="312" on="1"/>
        <pt x="245" y="284" on="0"/>
        <pt x="284" y="239" on="1"/>
        <pt x="426" y="80" on="1"/>
        <pt x="398" y="55" on="1"/>
        <pt x="151" y="329" on="1"/>
        <pt x="398" y="603" on="1"/>
      </contour>
    </TTGlyph>
    <TTGlyph name="arrowright" xMin="153" yMin="55" xMax="749" yMax="603">
      <component glyphName="arrowleft" x="900" y="0" scalex="-1.0" scaley="1.0" flags="0x0"/>
    </TTGlyph>
    <TTGlyph name="arrowup" xMin="160" yMin="0" xMax="740" yMax="634">
      <component glyphName="arrowdown" x="900" y="616" scale="-1.0" flags="0x0"/>
    </TTGlyph>
    <TTGlyph name="arrowupdn" xMin="160" yMin="-161" xMax="740" yMax="842">
      <contour>
        <pt x="740" y="584" on="1"/>
        <pt x="715" y="558" on="1"/>
        <pt x="541" y="710" on="1"/>
        <pt x="489" y="757" on="0"/>
        <pt x="469" y="785" on="1"/>
        <pt x="469" y="-105" on="1"/>
        <pt x="492" y="-72" on="0"/>
        <pt x="541" y="-30" on="1"/>
        <pt x="715" y="122" on="1"/>
        <pt x="740" y="96" on="1"/>
        <pt x="450" y="-161" on="1"/>
        <pt x="160" y="96" on="1"/>
        <pt x="185" y="122" on="1"/>
        <pt x="359" y="-30" on="1"/>
        <pt x="408" y="-72" on="0"/>
        <pt x="431" y="-105" on="1"/>
        <pt x="431" y="785" on="1"/>
        <pt x="411" y="757" on="0"/>
        <pt x="359" y="710" on="1"/>
        <pt x="185" y="558" on="1"/>
        <pt x="160" y="584" on="1"/>
        <pt x="450" y="842" on="1"/>
      </contour>
    </TTGlyph>
    <TTGlyph name="asciicircum" xMin="66" yMin="527" xMax="459" yMax="828">
      <contour>
        <pt x="459" y="527" on="1"/>
        <pt x="413" y="527" on="1"/>
        <pt x="263" y="784" on="1"/>
        <pt x="113" y="527" on="1"/>
        <pt x="66" y="527" on="1"/>
        <pt x="248" y="828" on="1"/>
        <pt x="277" y="828" on="1"/>
      </contour>
    </TTGlyph>
    <TTGlyph name="asciitilde" xMin="108" yMin="272" xMax="448" yMax="363">
      <component glyphName="asciitilde.lf" x="47" y="0" flags="0x0"/>
    </TTGlyph>
    <TTGlyph name="asciitilde.lf" xMin="61" yMin="272" xMax="401" yMax="363">
      <contour>
        <pt x="289" y="272" on="0"/>
        <pt x="252" y="287" on="0"/>
        <pt x="224" y="302" on="1"/>
        <pt x="202" y="315" on="0"/>
        <pt x="171" y="328" on="0"/>
        <pt x="156" y="328" on="1"/>
        <pt x="132" y="328" on="0"/>
        <pt x="104" y="308" on="0"/>
        <pt x="86" y="285" on="1"/>
        <pt x="61" y="299" on="1"/>
        <pt x="83" y="331" on="0"/>
        <pt x="124" y="363" on="0"/>
        <pt x="156" y="363" on="1"/>
        <pt x="177" y="363" on="0"/>
        <pt x="215" y="348" on="0"/>
        <pt x="243" y="332" on="1"/>
        <pt x="264" y="320" on="0"/>
        <pt x="294" y="307" on="0"/>
        <pt x="309" y="307" on="1"/>
        <pt x="331" y="307" on="0"/>
        <pt x="358" y="327" on="0"/>
        <pt x="376" y="349" on="1"/>
        <pt x="401" y="335" on="1"/>
        <pt x="379" y="303" on="0"/>
        <pt x="339" y="272" on="0"/>
        <pt x="309" y="272" on="1"/>
      </contour>
    </TTGlyph>
    <TTGlyph name="asciitilde.osf" xMin="61" yMin="272" xMax="401" yMax="363">
      <component glyphName="asciitilde.lf" x="0" y="0" flags="0x0"/>
    </TTGlyph>
    <TTGlyph name="asciitilde.tosf" xMin="110" yMin="272" xMax="450" yMax="363">
      <component glyphName="asciitilde.lf" x="49" y="0" flags="0x0"/>
    </TTGlyph>
    <TTGlyph name="asterisk" xMin="42" yMin="402" xMax="392" yMax="735">
      <contour>
        <pt x="240" y="550" on="1"/>
        <pt x="337" y="424" on="1"/>
        <pt x="306" y="402" on="1"/>
        <pt x="218" y="533" on="1"/>
        <pt x="128" y="402" on="1"/>
        <pt x="97" y="424" on="1"/>
        <pt x="195" y="549" on="1"/>
        <pt x="42" y="594" on="1"/>
        <pt x="53" y="628" on="1"/>
        <pt x="202" y="574" on="1"/>
        <pt x="198" y="735" on="1"/>
        <pt x="236" y="735" on="1"/>
        <pt x="232" y="575" on="1"/>
        <pt x="381" y="628" on="1"/>
        <pt x="392" y="594" on="1"/>
      </contour>
    </TTGlyph>
    <TTGlyph name="at" xMin="94" yMin="-201" xMax="926" yMax="693">
      <contour>
        <pt x="654" y="693" on="0"/>
        <pt x="834" y="589" on="0"/>
        <pt x="926" y="414" on="0"/>
        <pt x="926" y="309" on="1"/>
        <pt x="926" y="204" on="0"/>
        <pt x="878" y="72" on="0"/>
        <pt x="801" y="14" on="0"/>
        <pt x="755" y="14" on="1"/>
        <pt x="708" y="14" on="0"/>
        <pt x="646" y="75" on="0"/>
        <pt x="637" y="126" on="1"/>
        <pt x="588" y="16" on="0"/>
        <pt x="486" y="16" on="1"/>
        <pt x="440" y="16" on="0"/>
        <pt x="365" y="65" on="0"/>
        <pt x="321" y="163" on="0"/>
        <pt x="321" y="232" on="1"/>
        <pt x="321" y="314" on="0"/>
        <pt x="374" y="426" on="0"/>
        <pt x="466" y="480" on="0"/>
        <pt x="524" y="480" on="1"/>
        <pt x="595" y="480" on="0"/>
        <pt x="663" y="445" on="1"/>
        <pt x="663" y="188" on="1"/>
        <pt x="663" y="117" on="0"/>
        <pt x="711" y="46" on="0"/>
        <pt x="754" y="46" on="1"/>
        <pt x="812" y="46" on="0"/>
        <pt x="887" y="166" on="0"/>
        <pt x="887" y="307" on="1"/>
        <pt x="887" y="406" on="0"/>
        <pt x="803" y="566" on="0"/>
        <pt x="639" y="659" on="0"/>
        <pt x="526" y="659" on="1"/>
        <pt x="412" y="659" on="0"/>
        <pt x="232" y="546" on="0"/>
        <pt x="133" y="356" on="0"/>
        <pt x="133" y="243" on="1"/>
        <pt x="133" y="118" on="0"/>
        <pt x="231" y="-68" on="0"/>
        <pt x="409" y="-167" on="0"/>
        <pt x="525" y="-167" on="1"/>
        <pt x="579" y="-167" on="0"/>
        <pt x="668" y="-150" on="0"/>
        <pt x="712" y="-133" on="1"/>
        <pt x="722" y="-166" on="1"/>
        <pt x="673" y="-184" on="0"/>
        <pt x="585" y="-201" on="0"/>
        <pt x="524" y="-201" on="1"/>
        <pt x="399" y="-201" on="0"/>
        <pt x="204" y="-94" on="0"/>
        <pt x="94" y="107" on="0"/>
        <pt x="94" y="243" on="1"/>
        <pt x="94" y="366" on="0"/>
        <pt x="203" y="572" on="0"/>
        <pt x="400" y="693" on="0"/>
        <pt x="526" y="693" on="1"/>
      </contour>
      <contour>
        <pt x="538" y="49" on="0"/>
        <pt x="611" y="119" on="0"/>
        <pt x="626" y="168" on="1"/>
        <pt x="626" y="423" on="1"/>
        <pt x="575" y="447" on="0"/>
        <pt x="526" y="447" on="1"/>
        <pt x="449" y="447" on="0"/>
        <pt x="360" y="334" on="0"/>
        <pt x="360" y="232" on="1"/>
        <pt x="360" y="143" on="0"/>
        <pt x="430" y="49" on="0"/>
        <pt x="489" y="49" on="1"/>
      </contour>
    </TTGlyph>
    <TTGlyph name="atilde" xMin="62" yMin="-10" xMax="464" yMax="749">
      <component glyphName="a" x="0" y="0" flags="0x0"/>
      <component glyphName="tildecomb" x="427" y="0" flags="0x0"/>
    </TTGlyph>
    <TTGlyph name="atilde.sc" xMin="23" yMin="0" xMax="471" yMax="779">
      <component glyphName="a.sc" x="0" y="0" flags="0x0"/>
      <component glyphName="tildecomb.sc" x="76" y="0" flags="0x0"/>
    </TTGlyph>
    <TTGlyph name="b" xMin="112" yMin="-10" xMax="500" yMax="740">
      <contour>
        <pt x="402" y="531" on="0"/>
        <pt x="500" y="393" on="0"/>
        <pt x="500" y="264" on="1"/>
        <pt x="500" y="136" on="0"/>
        <pt x="399" y="-10" on="0"/>
        <pt x="306" y="-10" on="1"/>
        <pt x="256" y="-10" on="0"/>
        <pt x="175" y="35" on="0"/>
        <pt x="149" y="71" on="1"/>
        <pt x="146" y="0" on="1"/>
        <pt x="112" y="0" on="1"/>
        <pt x="112" y="735" on="1"/>
        <pt x="150" y="740" on="1"/>
        <pt x="150" y="444" on="1"/>
        <pt x="215" y="531" on="0"/>
        <pt x="312" y="531" on="1"/>
      </contour>
      <contour>
        <pt x="379" y="24" on="0"/>
        <pt x="460" y="147" on="0"/>
        <pt x="460" y="264" on="1"/>
        <pt x="460" y="381" on="0"/>
        <pt x="383" y="497" on="0"/>
        <pt x="309" y="497" on="1"/>
        <pt x="258" y="497" on="0"/>
        <pt x="185" y="449" on="0"/>
        <pt x="150" y="403" on="1"/>
        <pt x="150" y="113" on="1"/>
        <pt x="210" y="24" on="0"/>
        <pt x="302" y="24" on="1"/>
      </contour>
    </TTGlyph>
    <TTGlyph name="b.sc" xMin="117" yMin="0" xMax="481" yMax="561">
      <contour>
        <pt x="405" y="292" on="0"/>
        <pt x="481" y="221" on="0"/>
        <pt x="481" y="153" on="1"/>
        <pt x="481" y="80" on="0"/>
        <pt x="375" y="0" on="0"/>
        <pt x="280" y="0" on="1"/>
        <pt x="117" y="0" on="1"/>
        <pt x="117" y="561" on="1"/>
        <pt x="245" y="561" on="1"/>
        <pt x="345" y="561" on="0"/>
        <pt x="453" y="490" on="0"/>
        <pt x="453" y="421" on="1"/>
        <pt x="453" y="321" on="0"/>
        <pt x="350" y="297" on="1"/>
      </contour>
      <contour>
        <pt x="155" y="527" on="1"/>
        <pt x="155" y="312" on="1"/>
        <pt x="290" y="312" on="1"/>
        <pt x="347" y="312" on="0"/>
        <pt x="414" y="368" on="0"/>
        <pt x="414" y="419" on="1"/>
        <pt x="414" y="527" on="0"/>
        <pt x="250" y="527" on="1"/>
      </contour>
      <contour>
        <pt x="358" y="34" on="0"/>
        <pt x="442" y="95" on="0"/>
        <pt x="442" y="154" on="1"/>
        <pt x="442" y="217" on="0"/>
        <pt x="362" y="279" on="0"/>
        <pt x="295" y="279" on="1"/>
        <pt x="155" y="279" on="1"/>
        <pt x="155" y="34" on="1"/>
        <pt x="281" y="34" on="1"/>
      </contour>
    </TTGlyph>
    <TTGlyph name="backslash" xMin="127" yMin="-97" xMax="392" yMax="800">
      <contour>
        <pt x="392" y="-88" on="1"/>
        <pt x="359" y="-97" on="1"/>
        <pt x="127" y="792" on="1"/>
        <pt x="160" y="800" on="1"/>
      </contour>
    </TTGlyph>
    <TTGlyph name="bar" xMin="186" yMin="-99" xMax="223" yMax="803">
      <contour>
        <pt x="223" y="-99" on="1"/>
        <pt x="186" y="-99" on="1"/>
        <pt x="186" y="803" on="1"/>
        <pt x="223" y="803" on="1"/>
      </contour>
    </TTGlyph>
    <TTGlyph name="beta" xMin="112" yMin="-201" xMax="526" yMax="740">
      <contour>
        <pt x="407" y="398" on="0"/>
        <pt x="526" y="295" on="0"/>
        <pt x="526" y="201" on="1"/>
        <pt x="526" y="136" on="0"/>
        <pt x="471" y="41" on="0"/>
        <pt x="378" y="-10" on="0"/>
        <pt x="324" y="-10" on="1"/>
        <pt x="271" y="-10" on="0"/>
        <pt x="186" y="26" on="0"/>
        <pt x="151" y="64" on="1"/>
        <pt x="151" y="-194" on="1"/>
        <pt x="112" y="-201" on="1"/>
        <pt x="112" y="541" on="1"/>
        <pt x="112" y="635" on="0"/>
        <pt x="216" y="740" on="0"/>
        <pt x="301" y="740" on="1"/>
        <pt x="378" y="740" on="0"/>
        <pt x="478" y="647" on="0"/>
        <pt x="478" y="567" on="1"/>
        <pt x="478" y="492" on="0"/>
        <pt x="392" y="408" on="0"/>
        <pt x="315" y="400" on="1"/>
      </contour>
      <contour>
        <pt x="368" y="24" on="0"/>
        <pt x="443" y="67" on="0"/>
        <pt x="487" y="147" on="0"/>
        <pt x="487" y="199" on="1"/>
        <pt x="486" y="288" on="0"/>
        <pt x="368" y="382" on="0"/>
        <pt x="266" y="382" on="1"/>
        <pt x="221" y="382" on="1"/>
        <pt x="225" y="415" on="1"/>
        <pt x="268" y="415" on="1"/>
        <pt x="334" y="415" on="0"/>
        <pt x="440" y="484" on="0"/>
        <pt x="440" y="569" on="1"/>
        <pt x="439" y="637" on="0"/>
        <pt x="363" y="706" on="0"/>
        <pt x="301" y="706" on="1"/>
        <pt x="232" y="706" on="0"/>
        <pt x="151" y="622" on="0"/>
        <pt x="151" y="539" on="1"/>
        <pt x="151" y="105" on="1"/>
        <pt x="189" y="61" on="0"/>
        <pt x="265" y="24" on="0"/>
        <pt x="321" y="24" on="1"/>
      </contour>
    </TTGlyph>
    <TTGlyph name="beta.sc" xMin="117" yMin="0" xMax="481" yMax="561">
      <component glyphName="b.sc" x="0" y="0" flags="0x0"/>
    </TTGlyph>
    <TTGlyph name="braceleft" xMin="55" yMin="-126" xMax="253" yMax="824">
      <contour>
        <pt x="253" y="795" on="1"/>
        <pt x="208" y="795" on="0"/>
        <pt x="170" y="754" on="0"/>
        <pt x="170" y="709" on="1"/>
        <pt x="170" y="448" on="1"/>
        <pt x="170" y="400" on="0"/>
        <pt x="135" y="358" on="0"/>
        <pt x="95" y="349" on="1"/>
        <pt x="135" y="340" on="0"/>
        <pt x="170" y="299" on="0"/>
        <pt x="170" y="251" on="1"/>
        <pt x="170" y="-11" on="1"/>
        <pt x="170" y="-55" on="0"/>
        <pt x="208" y="-96" on="0"/>
        <pt x="253" y="-96" on="1"/>
        <pt x="253" y="-126" on="1"/>
        <pt x="135" y="-126" on="0"/>
        <pt x="135" y="-14" on="1"/>
        <pt x="135" y="260" on="1"/>
        <pt x="135" y="299" on="0"/>
        <pt x="93" y="332" on="0"/>
        <pt x="55" y="332" on="1"/>
        <pt x="55" y="366" on="1"/>
        <pt x="135" y="366" on="0"/>
        <pt x="135" y="438" on="1"/>
        <pt x="135" y="712" on="1"/>
        <pt x="135" y="824" on="0"/>
        <pt x="253" y="824" on="1"/>
      </contour>
    </TTGlyph>
    <TTGlyph name="braceleft.case" xMin="55" yMin="-136" xMax="253" yMax="814">
      <component glyphName="braceleft" x="0" y="-10" flags="0x0"/>
    </TTGlyph>
    <TTGlyph name="braceright" xMin="75" yMin="-126" xMax="273" yMax="824">
      <contour>
        <pt x="193" y="824" on="0"/>
        <pt x="193" y="712" on="1"/>
        <pt x="193" y="438" on="1"/>
        <pt x="193" y="366" on="0"/>
        <pt x="273" y="366" on="1"/>
        <pt x="273" y="332" on="1"/>
        <pt x="235" y="332" on="0"/>
        <pt x="193" y="299" on="0"/>
        <pt x="193" y="260" on="1"/>
        <pt x="193" y="-14" on="1"/>
        <pt x="193" y="-126" on="0"/>
        <pt x="75" y="-126" on="1"/>
        <pt x="75" y="-96" on="1"/>
        <pt x="120" y="-96" on="0"/>
        <pt x="158" y="-55" on="0"/>
        <pt x="158" y="-11" on="1"/>
        <pt x="158" y="251" on="1"/>
        <pt x="158" y="299" on="0"/>
        <pt x="193" y="340" on="0"/>
        <pt x="233" y="349" on="1"/>
        <pt x="193" y="358" on="0"/>
        <pt x="158" y="400" on="0"/>
        <pt x="158" y="448" on="1"/>
        <pt x="158" y="709" on="1"/>
        <pt x="158" y="754" on="0"/>
        <pt x="120" y="795" on="0"/>
        <pt x="75" y="795" on="1"/>
        <pt x="75" y="824" on="1"/>
      </contour>
    </TTGlyph>
    <TTGlyph name="braceright.case" xMin="75" yMin="-136" xMax="273" yMax="814">
      <component glyphName="braceright" x="0" y="-10" flags="0x0"/>
    </TTGlyph>
    <TTGlyph name="bracketleft" xMin="95" yMin="-110" xMax="238" yMax="801">
      <contour>
        <pt x="238" y="771" on="1"/>
        <pt x="130" y="771" on="1"/>
        <pt x="130" y="-80" on="1"/>
        <pt x="238" y="-80" on="1"/>
        <pt x="238" y="-110" on="1"/>
        <pt x="95" y="-110" on="1"/>
        <pt x="95" y="801" on="1"/>
        <pt x="238" y="801" on="1"/>
      </contour>
    </TTGlyph>
    <TTGlyph name="bracketleft.case" xMin="95" yMin="-120" xMax="238" yMax="791">
      <component glyphName="bracketleft" x="0" y="-10" flags="0x0"/>
    </TTGlyph>
    <TTGlyph name="bracketright" xMin="76" yMin="-110" xMax="219" yMax="801">
      <contour>
        <pt x="219" y="-110" on="1"/>
        <pt x="76" y="-110" on="1"/>
        <pt x="76" y="-80" on="1"/>
        <pt x="184" y="-80" on="1"/>
        <pt x="184" y="771" on="1"/>
        <pt x="76" y="771" on="1"/>
        <pt x="76" y="801" on="1"/>
        <pt x="219" y="801" on="1"/>
      </contour>
    </TTGlyph>
    <TTGlyph name="bracketright.case" xMin="76" yMin="-120" xMax="219" yMax="791">
      <component glyphName="bracketright" x="0" y="-10" flags="0x0"/>
    </TTGlyph>
    <TTGlyph name="breve" xMin="30" yMin="659" xMax="266" yMax="762">
      <contour>
        <pt x="101" y="659" on="0"/>
        <pt x="37" y="712" on="0"/>
        <pt x="30" y="756" on="1"/>
        <pt x="57" y="762" on="1"/>
        <pt x="66" y="728" on="0"/>
        <pt x="113" y="693" on="0"/>
        <pt x="148" y="693" on="1"/>
        <pt x="183" y="693" on="0"/>
        <pt x="230" y="728" on="0"/>
        <pt x="239" y="762" on="1"/>
        <pt x="266" y="756" on="1"/>
        <pt x="259" y="712" on="0"/>
        <pt x="194" y="659" on="0"/>
        <pt x="148" y="659" on="1"/>
      </contour>
    </TTGlyph>
    <TTGlyph name="breve.case" xMin="30" yMin="768" xMax="266" yMax="862">
      <contour>
        <pt x="102" y="768" on="0"/>
        <pt x="37" y="819" on="0"/>
        <pt x="30" y="856" on="1"/>
        <pt x="57" y="862" on="1"/>
        <pt x="66" y="835" on="0"/>
        <pt x="114" y="803" on="0"/>
        <pt x="148" y="803" on="1"/>
        <pt x="182" y="803" on="0"/>
        <pt x="230" y="835" on="0"/>
        <pt x="239" y="862" on="1"/>
        <pt x="266" y="856" on="1"/>
        <pt x="259" y="819" on="0"/>
        <pt x="193" y="768" on="0"/>
        <pt x="148" y="768" on="1"/>
      </contour>
    </TTGlyph>
    <TTGlyph name="breve.sc" xMin="30" yMin="689" xMax="266" yMax="792">
      <component glyphName="uni0306" x="296" y="30" flags="0x0"/>
    </TTGlyph>
    <TTGlyph name="brevecy" xMin="30" yMin="659" xMax="266" yMax="743">
      <contour>
        <pt x="101" y="659" on="0"/>
        <pt x="37" y="701" on="0"/>
        <pt x="30" y="737" on="1"/>
        <pt x="57" y="743" on="1"/>
        <pt x="75" y="693" on="0"/>
        <pt x="148" y="693" on="1"/>
        <pt x="221" y="693" on="0"/>
        <pt x="239" y="743" on="1"/>
        <pt x="266" y="737" on="1"/>
        <pt x="259" y="701" on="0"/>
        <pt x="195" y="659" on="0"/>
        <pt x="148" y="659" on="1"/>
      </contour>
    </TTGlyph>
    <TTGlyph name="brevecy.case" xMin="30" yMin="785" xMax="266" yMax="869">
      <contour>
        <pt x="101" y="785" on="0"/>
        <pt x="37" y="827" on="0"/>
        <pt x="30" y="863" on="1"/>
        <pt x="57" y="869" on="1"/>
        <pt x="75" y="819" on="0"/>
        <pt x="148" y="819" on="1"/>
        <pt x="221" y="819" on="0"/>
        <pt x="239" y="869" on="1"/>
        <pt x="266" y="863" on="1"/>
        <pt x="259" y="827" on="0"/>
        <pt x="195" y="785" on="0"/>
        <pt x="148" y="785" on="1"/>
      </contour>
    </TTGlyph>
    <TTGlyph name="brevecy.sc" xMin="30" yMin="689" xMax="266" yMax="773">
      <contour>
        <pt x="101" y="689" on="0"/>
        <pt x="37" y="731" on="0"/>
        <pt x="30" y="767" on="1"/>
        <pt x="57" y="773" on="1"/>
        <pt x="75" y="723" on="0"/>
        <pt x="148" y="723" on="1"/>
        <pt x="221" y="723" on="0"/>
        <pt x="239" y="773" on="1"/>
        <pt x="266" y="767" on="1"/>
        <pt x="259" y="731" on="0"/>
        <pt x="195" y="689" on="0"/>
        <pt x="148" y="689" on="1"/>
      </contour>
    </TTGlyph>
    <TTGlyph name="brokenbar" xMin="186" yMin="-29" xMax="223" yMax="732">
      <contour>
        <pt x="223" y="373" on="1"/>
        <pt x="186" y="373" on="1"/>
        <pt x="186" y="732" on="1"/>
        <pt x="223" y="732" on="1"/>
      </contour>
      <contour>
        <pt x="223" y="-29" on="1"/>
        <pt x="186" y="-29" on="1"/>
        <pt x="186" y="332" on="1"/>
        <pt x="223" y="332" on="1"/>
      </contour>
    </TTGlyph>
    <TTGlyph name="bullet" xMin="80" yMin="297" xMax="184" yMax="400">
      <contour>
        <pt x="155" y="400" on="0"/>
        <pt x="184" y="370" on="0"/>
        <pt x="184" y="348" on="1"/>
        <pt x="184" y="326" on="0"/>
        <pt x="155" y="297" on="0"/>
        <pt x="132" y="297" on="1"/>
        <pt x="109" y="297" on="0"/>
        <pt x="80" y="327" on="0"/>
        <pt x="80" y="348" on="1"/>
        <pt x="80" y="370" on="0"/>
        <pt x="109" y="400" on="0"/>
        <pt x="132" y="400" on="1"/>
      </contour>
    </TTGlyph>
    <TTGlyph name="c" xMin="68" yMin="-10" xMax="430" yMax="531">
      <contour>
        <pt x="327" y="531" on="0"/>
        <pt x="392" y="507" on="0"/>
        <pt x="424" y="480" on="1"/>
        <pt x="404" y="454" on="1"/>
        <pt x="378" y="476" on="0"/>
        <pt x="322" y="497" on="0"/>
        <pt x="286" y="497" on="1"/>
        <pt x="207" y="497" on="0"/>
        <pt x="109" y="373" on="0"/>
        <pt x="109" y="258" on="1"/>
        <pt x="109" y="144" on="0"/>
        <pt x="205" y="24" on="0"/>
        <pt x="285" y="24" on="1"/>
        <pt x="353" y="24" on="0"/>
        <pt x="409" y="70" on="1"/>
        <pt x="430" y="44" on="1"/>
        <pt x="366" y="-10" on="0"/>
        <pt x="286" y="-10" on="1"/>
        <pt x="186" y="-10" on="0"/>
        <pt x="68" y="131" on="0"/>
        <pt x="68" y="257" on="1"/>
        <pt x="68" y="340" on="0"/>
        <pt x="122" y="464" on="0"/>
        <pt x="219" y="531" on="0"/>
        <pt x="284" y="531" on="1"/>
      </contour>
    </TTGlyph>
    <TTGlyph name="c.sc" xMin="72" yMin="-8" xMax="462" yMax="569">
      <contour>
        <pt x="356" y="569" on="0"/>
        <pt x="423" y="544" on="0"/>
        <pt x="456" y="519" on="1"/>
        <pt x="435" y="493" on="1"/>
        <pt x="402" y="516" on="0"/>
        <pt x="349" y="535" on="0"/>
        <pt x="311" y="535" on="1"/>
        <pt x="223" y="535" on="0"/>
        <pt x="112" y="409" on="0"/>
        <pt x="112" y="281" on="1"/>
        <pt x="112" y="197" on="0"/>
        <pt x="164" y="83" on="0"/>
        <pt x="253" y="27" on="0"/>
        <pt x="309" y="27" on="1"/>
        <pt x="353" y="27" on="0"/>
        <pt x="411" y="50" on="0"/>
        <pt x="440" y="74" on="1"/>
        <pt x="462" y="47" on="1"/>
        <pt x="400" y="-8" on="0"/>
        <pt x="307" y="-8" on="1"/>
        <pt x="240" y="-8" on="0"/>
        <pt x="133" y="59" on="0"/>
        <pt x="72" y="189" on="0"/>
        <pt x="72" y="281" on="1"/>
        <pt x="72" y="374" on="0"/>
        <pt x="135" y="504" on="0"/>
        <pt x="243" y="569" on="0"/>
        <pt x="309" y="569" on="1"/>
      </contour>
    </TTGlyph>
    <TTGlyph name="cacute" xMin="68" yMin="-10" xMax="430" yMax="771">
      <component glyphName="c" x="0" y="0" flags="0x0"/>
      <component glyphName="acutecomb" x="405" y="0" flags="0x0"/>
    </TTGlyph>
    <TTGlyph name="cacute.loclPLK" xMin="68" yMin="-10" xMax="430" yMax="754">
      <component glyphName="c" x="0" y="0" flags="0x0"/>
      <component glyphName="acute.loclPLK" x="158" y="0" flags="0x0"/>
    </TTGlyph>
    <TTGlyph name="cacute.sc" xMin="72" yMin="-8" xMax="462" yMax="801">
      <component glyphName="c.sc" x="0" y="0" flags="0x0"/>
      <component glyphName="acutecomb.sc" x="184" y="0" flags="0x0"/>
    </TTGlyph>
    <TTGlyph name="cacute.sc.loclPLK" xMin="72" yMin="-8" xMax="462" yMax="795">
      <component glyphName="c.sc" x="0" y="0" flags="0x0"/>
      <component glyphName="acute.sc.loclPLK" x="187" y="0" flags="0x0"/>
    </TTGlyph>
    <TTGlyph name="caron" xMin="30" yMin="637" xMax="304" yMax="760">
      <contour>
        <pt x="304" y="738" on="1"/>
        <pt x="178" y="637" on="1"/>
        <pt x="156" y="637" on="1"/>
        <pt x="30" y="738" on="1"/>
        <pt x="48" y="760" on="1"/>
        <pt x="167" y="675" on="1"/>
        <pt x="286" y="760" on="1"/>
      </contour>
    </TTGlyph>
    <TTGlyph name="caron.alt" xMin="64" yMin="530" xMax="122" yMax="687">
      <contour>
        <pt x="122" y="682" on="1"/>
        <pt x="89" y="530" on="1"/>
        <pt x="64" y="534" on="1"/>
        <pt x="82" y="687" on="1"/>
      </contour>
    </TTGlyph>
    <TTGlyph name="caron.case" xMin="30" yMin="757" xMax="304" yMax="875">
      <contour>
        <pt x="304" y="854" on="1"/>
        <pt x="178" y="757" on="1"/>
        <pt x="156" y="757" on="1"/>
        <pt x="30" y="854" on="1"/>
        <pt x="48" y="875" on="1"/>
        <pt x="167" y="796" on="1"/>
        <pt x="286" y="875" on="1"/>
      </contour>
    </TTGlyph>
    <TTGlyph name="caron.sc" xMin="30" yMin="667" xMax="304" yMax="790">
      <component glyphName="uni030C" x="334" y="30" flags="0x0"/>
    </TTGlyph>
    <TTGlyph name="ccaron" xMin="68" yMin="-10" xMax="430" yMax="760">
      <component glyphName="c" x="0" y="0" flags="0x0"/>
      <component glyphName="uni030C" x="450" y="0" flags="0x0"/>
    </TTGlyph>
    <TTGlyph name="ccaron.sc" xMin="72" yMin="-8" xMax="462" yMax="790">
      <component glyphName="c.sc" x="0" y="0" flags="0x0"/>
      <component glyphName="uni030C.sc" x="144" y="0" flags="0x0"/>
    </TTGlyph>
    <TTGlyph name="ccedilla" xMin="68" yMin="-219" xMax="430" yMax="531">
      <contour>
        <pt x="339" y="-72" on="0"/>
        <pt x="384" y="-109" on="0"/>
        <pt x="384" y="-140" on="1"/>
        <pt x="384" y="-176" on="0"/>
        <pt x="329" y="-219" on="0"/>
        <pt x="290" y="-219" on="1"/>
        <pt x="248" y="-219" on="0"/>
        <pt x="216" y="-200" on="1"/>
        <pt x="231" y="-173" on="1"/>
        <pt x="255" y="-188" on="0"/>
        <pt x="289" y="-188" on="1"/>
        <pt x="315" y="-188" on="0"/>
        <pt x="347" y="-164" on="0"/>
        <pt x="347" y="-140" on="1"/>
        <pt x="347" y="-117" on="0"/>
        <pt x="304" y="-95" on="0"/>
        <pt x="258" y="-94" on="1"/>
        <pt x="264" y="-9" on="1"/>
        <pt x="174" y="-1" on="0"/>
        <pt x="68" y="139" on="0"/>
        <pt x="68" y="257" on="1"/>
        <pt x="68" y="340" on="0"/>
        <pt x="122" y="464" on="0"/>
        <pt x="219" y="531" on="0"/>
        <pt x="284" y="531" on="1"/>
        <pt x="327" y="531" on="0"/>
        <pt x="392" y="507" on="0"/>
        <pt x="424" y="480" on="1"/>
        <pt x="404" y="454" on="1"/>
        <pt x="378" y="476" on="0"/>
        <pt x="322" y="497" on="0"/>
        <pt x="286" y="497" on="1"/>
        <pt x="207" y="497" on="0"/>
        <pt x="109" y="373" on="0"/>
        <pt x="109" y="258" on="1"/>
        <pt x="109" y="144" on="0"/>
        <pt x="205" y="24" on="0"/>
        <pt x="285" y="24" on="1"/>
        <pt x="353" y="24" on="0"/>
        <pt x="409" y="70" on="1"/>
        <pt x="430" y="44" on="1"/>
        <pt x="369" y="-9" on="0"/>
        <pt x="293" y="-10" on="1"/>
        <pt x="293" y="-69" on="1"/>
      </contour>
    </TTGlyph>
    <TTGlyph name="ccedilla.sc" xMin="72" yMin="-219" xMax="462" yMax="569">
      <contour>
        <pt x="361" y="-72" on="0"/>
        <pt x="406" y="-109" on="0"/>
        <pt x="406" y="-140" on="1"/>
        <pt x="406" y="-176" on="0"/>
        <pt x="351" y="-219" on="0"/>
        <pt x="312" y="-219" on="1"/>
        <pt x="270" y="-219" on="0"/>
        <pt x="238" y="-200" on="1"/>
        <pt x="253" y="-173" on="1"/>
        <pt x="277" y="-188" on="0"/>
        <pt x="311" y="-188" on="1"/>
        <pt x="337" y="-188" on="0"/>
        <pt x="369" y="-164" on="0"/>
        <pt x="369" y="-140" on="1"/>
        <pt x="369" y="-117" on="0"/>
        <pt x="326" y="-95" on="0"/>
        <pt x="280" y="-94" on="1"/>
        <pt x="286" y="-8" on="1"/>
        <pt x="224" y="-3" on="0"/>
        <pt x="127" y="67" on="0"/>
        <pt x="72" y="194" on="0"/>
        <pt x="72" y="281" on="1"/>
        <pt x="72" y="374" on="0"/>
        <pt x="135" y="504" on="0"/>
        <pt x="243" y="569" on="0"/>
        <pt x="309" y="569" on="1"/>
        <pt x="356" y="569" on="0"/>
        <pt x="423" y="544" on="0"/>
        <pt x="456" y="519" on="1"/>
        <pt x="435" y="493" on="1"/>
        <pt x="402" y="516" on="0"/>
        <pt x="349" y="535" on="0"/>
        <pt x="311" y="535" on="1"/>
        <pt x="223" y="535" on="0"/>
        <pt x="112" y="409" on="0"/>
        <pt x="112" y="281" on="1"/>
        <pt x="112" y="197" on="0"/>
        <pt x="164" y="83" on="0"/>
        <pt x="253" y="27" on="0"/>
        <pt x="309" y="27" on="1"/>
        <pt x="353" y="27" on="0"/>
        <pt x="411" y="50" on="0"/>
        <pt x="440" y="74" on="1"/>
        <pt x="462" y="47" on="1"/>
        <pt x="402" y="-7" on="0"/>
        <pt x="315" y="-8" on="1"/>
        <pt x="315" y="-69" on="1"/>
      </contour>
    </TTGlyph>
    <TTGlyph name="ccircumflex" xMin="68" yMin="-10" xMax="430" yMax="772">
      <component glyphName="c" x="0" y="0" flags="0x0"/>
      <component glyphName="uni0302" x="450" y="0" flags="0x0"/>
    </TTGlyph>
    <TTGlyph name="ccircumflex.sc" xMin="72" yMin="-8" xMax="462" yMax="802">
      <component glyphName="c.sc" x="0" y="0" flags="0x0"/>
      <component glyphName="uni0302.sc" x="144" y="0" flags="0x0"/>
    </TTGlyph>
    <TTGlyph name="cdotaccent" xMin="68" yMin="-10" xMax="430" yMax="737">
      <component glyphName="c" x="0" y="0" flags="0x0"/>
      <component glyphName="uni0307" x="344" y="0" flags="0x0"/>
    </TTGlyph>
    <TTGlyph name="cdotaccent.sc" xMin="72" yMin="-8" xMax="462" yMax="767">
      <component glyphName="c.sc" x="0" y="0" flags="0x0"/>
      <component glyphName="uni0307.sc" x="250" y="0" flags="0x0"/>
    </TTGlyph>
    <TTGlyph name="cedilla" xMin="30" yMin="-219" xMax="198" yMax="16">
      <contour>
        <pt x="107" y="-69" on="1"/>
        <pt x="153" y="-72" on="0"/>
        <pt x="198" y="-109" on="0"/>
        <pt x="198" y="-140" on="1"/>
        <pt x="198" y="-176" on="0"/>
        <pt x="143" y="-219" on="0"/>
        <pt x="104" y="-219" on="1"/>
        <pt x="62" y="-219" on="0"/>
        <pt x="30" y="-200" on="1"/>
        <pt x="45" y="-173" on="1"/>
        <pt x="69" y="-188" on="0"/>
        <pt x="103" y="-188" on="1"/>
        <pt x="129" y="-188" on="0"/>
        <pt x="161" y="-164" on="0"/>
        <pt x="161" y="-140" on="1"/>
        <pt x="161" y="-117" on="0"/>
        <pt x="118" y="-95" on="0"/>
        <pt x="72" y="-94" on="1"/>
        <pt x="80" y="16" on="1"/>
        <pt x="107" y="16" on="1"/>
      </contour>
    </TTGlyph>
    <TTGlyph name="cedilla.case" xMin="30" yMin="-219" xMax="198" yMax="16">
      <component glyphName="uni0327" x="228" y="0" flags="0x0"/>
    </TTGlyph>
    <TTGlyph name="cedilla.sc" xMin="30" yMin="-219" xMax="198" yMax="16">
      <component glyphName="uni0327" x="228" y="0" flags="0x0"/>
    </TTGlyph>
    <TTGlyph name="cent" xMin="97" yMin="-148" xMax="458" yMax="678">
      <contour>
        <pt x="402" y="-4" on="0"/>
        <pt x="329" y="-10" on="1"/>
        <pt x="329" y="-148" on="1"/>
        <pt x="295" y="-148" on="1"/>
        <pt x="295" y="-9" on="1"/>
        <pt x="204" y="-2" on="0"/>
        <pt x="97" y="138" on="0"/>
        <pt x="97" y="257" on="1"/>
        <pt x="97" y="337" on="0"/>
        <pt x="146" y="458" on="0"/>
        <pt x="236" y="526" on="0"/>
        <pt x="296" y="530" on="1"/>
        <pt x="296" y="678" on="1"/>
        <pt x="329" y="678" on="1"/>
        <pt x="329" y="531" on="1"/>
        <pt x="366" y="529" on="0"/>
        <pt x="425" y="505" on="0"/>
        <pt x="453" y="480" on="1"/>
        <pt x="433" y="454" on="1"/>
        <pt x="407" y="476" on="0"/>
        <pt x="350" y="497" on="0"/>
        <pt x="314" y="497" on="1"/>
        <pt x="235" y="497" on="0"/>
        <pt x="138" y="373" on="0"/>
        <pt x="138" y="258" on="1"/>
        <pt x="138" y="144" on="0"/>
        <pt x="234" y="24" on="0"/>
        <pt x="314" y="24" on="1"/>
        <pt x="381" y="24" on="0"/>
        <pt x="437" y="70" on="1"/>
        <pt x="458" y="44" on="1"/>
      </contour>
    </TTGlyph>
    <TTGlyph name="cent.lf" xMin="68" yMin="-148" xMax="430" yMax="678">
      <contour>
        <pt x="374" y="-6" on="0"/>
        <pt x="300" y="-10" on="1"/>
        <pt x="300" y="-148" on="1"/>
        <pt x="266" y="-148" on="1"/>
        <pt x="266" y="-9" on="1"/>
        <pt x="175" y="-2" on="0"/>
        <pt x="68" y="138" on="0"/>
        <pt x="68" y="257" on="1"/>
        <pt x="68" y="377" on="0"/>
        <pt x="176" y="524" on="0"/>
        <pt x="267" y="531" on="1"/>
        <pt x="267" y="678" on="1"/>
        <pt x="300" y="678" on="1"/>
        <pt x="300" y="531" on="1"/>
        <pt x="337" y="529" on="0"/>
        <pt x="396" y="505" on="0"/>
        <pt x="424" y="480" on="1"/>
        <pt x="404" y="454" on="1"/>
        <pt x="378" y="476" on="0"/>
        <pt x="322" y="497" on="0"/>
        <pt x="286" y="497" on="1"/>
        <pt x="207" y="497" on="0"/>
        <pt x="109" y="373" on="0"/>
        <pt x="109" y="258" on="1"/>
        <pt x="109" y="144" on="0"/>
        <pt x="205" y="24" on="0"/>
        <pt x="285" y="24" on="1"/>
        <pt x="353" y="24" on="0"/>
        <pt x="409" y="70" on="1"/>
        <pt x="430" y="44" on="1"/>
      </contour>
    </TTGlyph>
    <TTGlyph name="cent.osf" xMin="68" yMin="-148" xMax="430" yMax="678">
      <component glyphName="cent.lf" x="0" y="0" flags="0x0"/>
    </TTGlyph>
    <TTGlyph name="cent.tosf" xMin="97" yMin="-148" xMax="458" yMax="678">
      <component glyphName="cent" x="0" y="0" flags="0x0"/>
    </TTGlyph>
    <TTGlyph name="chi" xMin="8" yMin="-199" xMax="415" yMax="528">
      <contour>
        <pt x="415" y="-189" on="1"/>
        <pt x="379" y="-199" on="1"/>
        <pt x="215" y="150" on="1"/>
        <pt x="49" y="-198" on="1"/>
        <pt x="10" y="-193" on="1"/>
        <pt x="195" y="184" on="1"/>
        <pt x="135" y="322" on="0"/>
        <pt x="55" y="461" on="0"/>
        <pt x="8" y="515" on="1"/>
        <pt x="45" y="528" on="1"/>
        <pt x="89" y="476" on="0"/>
        <pt x="163" y="343" on="0"/>
        <pt x="215" y="214" on="1"/>
        <pt x="354" y="525" on="1"/>
        <pt x="394" y="521" on="1"/>
        <pt x="234" y="183" on="1"/>
      </contour>
    </TTGlyph>
    <TTGlyph name="chi.sc" xMin="14" yMin="0" xMax="427" yMax="561">
      <component glyphName="x.sc" x="0" y="0" flags="0x0"/>
    </TTGlyph>
    <TTGlyph name="circumflex" xMin="30" yMin="649" xMax="304" yMax="772">
      <contour>
        <pt x="30" y="670" on="1"/>
        <pt x="155" y="772" on="1"/>
        <pt x="177" y="772" on="1"/>
        <pt x="304" y="670" on="1"/>
        <pt x="285" y="649" on="1"/>
        <pt x="166" y="734" on="1"/>
        <pt x="48" y="649" on="1"/>
      </contour>
    </TTGlyph>
    <TTGlyph name="circumflex.case" xMin="30" yMin="764" xMax="304" yMax="882">
      <contour>
        <pt x="167" y="843" on="1"/>
        <pt x="48" y="764" on="1"/>
        <pt x="30" y="786" on="1"/>
        <pt x="156" y="882" on="1"/>
        <pt x="178" y="882" on="1"/>
        <pt x="304" y="786" on="1"/>
        <pt x="286" y="764" on="1"/>
      </contour>
    </TTGlyph>
    <TTGlyph name="circumflex.sc" xMin="30" yMin="679" xMax="304" yMax="802">
      <component glyphName="uni0302" x="334" y="30" flags="0x0"/>
    </TTGlyph>
    <TTGlyph name="colon" xMin="59" yMin="-10" xMax="129" yMax="59">
      <component glyphName="period" x="0" y="0" flags="0x0"/>
      <component glyphName="period" x="0" y="404" flags="0x0"/>
    </TTGlyph>
    <TTGlyph name="comma" xMin="38" yMin="-142" xMax="129" yMax="59">
      <contour>
        <pt x="110" y="59" on="0"/>
        <pt x="129" y="39" on="0"/>
        <pt x="129" y="24" on="1"/>
        <pt x="129" y="15" on="0"/>
        <pt x="121" y="-10" on="0"/>
        <pt x="116" y="-21" on="1"/>
        <pt x="67" y="-142" on="1"/>
        <pt x="38" y="-142" on="1"/>
        <pt x="78" y="-6" on="1"/>
        <pt x="59" y="1" on="0"/>
        <pt x="59" y="24" on="1"/>
        <pt x="59" y="39" on="0"/>
        <pt x="78" y="59" on="0"/>
        <pt x="94" y="59" on="1"/>
      </contour>
    </TTGlyph>
    <TTGlyph name="copyright" xMin="118" yMin="141" xMax="692" yMax="729">
      <contour>
        <pt x="486" y="729" on="0"/>
        <pt x="617" y="654" on="0"/>
        <pt x="692" y="520" on="0"/>
        <pt x="692" y="435" on="1"/>
        <pt x="692" y="351" on="0"/>
        <pt x="617" y="217" on="0"/>
        <pt x="486" y="141" on="0"/>
        <pt x="405" y="141" on="1"/>
        <pt x="324" y="141" on="0"/>
        <pt x="193" y="216" on="0"/>
        <pt x="118" y="350" on="0"/>
        <pt x="118" y="435" on="1"/>
        <pt x="118" y="519" on="0"/>
        <pt x="193" y="653" on="0"/>
        <pt x="324" y="729" on="0"/>
        <pt x="405" y="729" on="1"/>
      </contour>
      <contour>
        <pt x="333" y="698" on="0"/>
        <pt x="218" y="631" on="0"/>
        <pt x="153" y="511" on="0"/>
        <pt x="153" y="435" on="1"/>
        <pt x="153" y="358" on="0"/>
        <pt x="218" y="238" on="0"/>
        <pt x="333" y="172" on="0"/>
        <pt x="406" y="172" on="1"/>
        <pt x="478" y="172" on="0"/>
        <pt x="592" y="239" on="0"/>
        <pt x="657" y="359" on="0"/>
        <pt x="657" y="435" on="1"/>
        <pt x="657" y="512" on="0"/>
        <pt x="592" y="631" on="0"/>
        <pt x="478" y="698" on="0"/>
        <pt x="406" y="698" on="1"/>
      </contour>
      <contour>
        <pt x="435" y="610" on="0"/>
        <pt x="479" y="595" on="0"/>
        <pt x="499" y="579" on="1"/>
        <pt x="481" y="554" on="1"/>
        <pt x="465" y="567" on="0"/>
        <pt x="431" y="578" on="0"/>
        <pt x="407" y="578" on="1"/>
        <pt x="367" y="578" on="0"/>
        <pt x="304" y="511" on="0"/>
        <pt x="304" y="437" on="1"/>
        <pt x="304" y="365" on="0"/>
        <pt x="361" y="292" on="0"/>
        <pt x="408" y="292" on="1"/>
        <pt x="434" y="292" on="0"/>
        <pt x="472" y="307" on="0"/>
        <pt x="491" y="321" on="1"/>
        <pt x="507" y="295" on="1"/>
        <pt x="463" y="260" on="0"/>
        <pt x="406" y="260" on="1"/>
        <pt x="344" y="260" on="0"/>
        <pt x="267" y="357" on="0"/>
        <pt x="267" y="437" on="1"/>
        <pt x="267" y="494" on="0"/>
        <pt x="308" y="572" on="0"/>
        <pt x="372" y="610" on="0"/>
        <pt x="406" y="610" on="1"/>
      </contour>
    </TTGlyph>
    <TTGlyph name="currency" xMin="59" yMin="110" xMax="497" yMax="570">
      <component glyphName="currency.lf" x="-2" y="0" flags="0x0"/>
    </TTGlyph>
    <TTGlyph name="currency.lf" xMin="61" yMin="110" xMax="499" yMax="570">
      <contour>
        <pt x="462" y="304" on="0"/>
        <pt x="439" y="239" on="0"/>
        <pt x="418" y="214" on="1"/>
        <pt x="499" y="134" on="1"/>
        <pt x="474" y="110" on="1"/>
        <pt x="393" y="190" on="1"/>
        <pt x="348" y="154" on="0"/>
        <pt x="281" y="154" on="1"/>
        <pt x="215" y="154" on="0"/>
        <pt x="168" y="191" on="1"/>
        <pt x="86" y="110" on="1"/>
        <pt x="61" y="134" on="1"/>
        <pt x="143" y="215" on="1"/>
        <pt x="101" y="266" on="0"/>
        <pt x="101" y="341" on="1"/>
        <pt x="101" y="415" on="0"/>
        <pt x="142" y="465" on="1"/>
        <pt x="61" y="545" on="1"/>
        <pt x="86" y="570" on="1"/>
        <pt x="167" y="489" on="1"/>
        <pt x="213" y="527" on="0"/>
        <pt x="281" y="527" on="1"/>
        <pt x="349" y="527" on="0"/>
        <pt x="394" y="491" on="1"/>
        <pt x="474" y="570" on="1"/>
        <pt x="499" y="545" on="1"/>
        <pt x="419" y="466" on="1"/>
        <pt x="462" y="415" on="0"/>
        <pt x="462" y="341" on="1"/>
      </contour>
      <contour>
        <pt x="138" y="271" on="0"/>
        <pt x="212" y="187" on="0"/>
        <pt x="281" y="187" on="1"/>
        <pt x="351" y="187" on="0"/>
        <pt x="424" y="271" on="0"/>
        <pt x="424" y="340" on="1"/>
        <pt x="424" y="410" on="0"/>
        <pt x="351" y="495" on="0"/>
        <pt x="281" y="495" on="1"/>
        <pt x="212" y="495" on="0"/>
        <pt x="138" y="410" on="0"/>
        <pt x="138" y="340" on="1"/>
      </contour>
    </TTGlyph>
    <TTGlyph name="currency.osf" xMin="61" yMin="110" xMax="499" yMax="570">
      <component glyphName="currency.lf" x="0" y="0" flags="0x0"/>
    </TTGlyph>
    <TTGlyph name="currency.tosf" xMin="61" yMin="110" xMax="499" yMax="570">
      <component glyphName="currency.lf" x="0" y="0" flags="0x0"/>
    </TTGlyph>
    <TTGlyph name="d" xMin="73" yMin="-10" xMax="466" yMax="740">
      <contour>
        <pt x="466" y="735" on="1"/>
        <pt x="466" y="0" on="1"/>
        <pt x="432" y="0" on="1"/>
        <pt x="428" y="84" on="1"/>
        <pt x="405" y="42" on="0"/>
        <pt x="325" y="-10" on="0"/>
        <pt x="267" y="-10" on="1"/>
        <pt x="209" y="-10" on="0"/>
        <pt x="121" y="55" on="0"/>
        <pt x="73" y="176" on="0"/>
        <pt x="73" y="258" on="1"/>
        <pt x="73" y="338" on="0"/>
        <pt x="122" y="462" on="0"/>
        <pt x="215" y="531" on="0"/>
        <pt x="278" y="531" on="1"/>
        <pt x="371" y="531" on="0"/>
        <pt x="428" y="456" on="1"/>
        <pt x="428" y="740" on="1"/>
      </contour>
      <contour>
        <pt x="326" y="24" on="0"/>
        <pt x="399" y="77" on="0"/>
        <pt x="428" y="132" on="1"/>
        <pt x="428" y="412" on="1"/>
        <pt x="371" y="497" on="0"/>
        <pt x="281" y="497" on="1"/>
        <pt x="232" y="497" on="0"/>
        <pt x="156" y="441" on="0"/>
        <pt x="113" y="335" on="0"/>
        <pt x="113" y="262" on="1"/>
        <pt x="113" y="148" on="0"/>
        <pt x="197" y="24" on="0"/>
        <pt x="271" y="24" on="1"/>
      </contour>
    </TTGlyph>
    <TTGlyph name="d.sc" xMin="117" yMin="0" xMax="498" yMax="561">
      <contour>
        <pt x="351" y="561" on="0"/>
        <pt x="498" y="442" on="0"/>
        <pt x="498" y="285" on="1"/>
        <pt x="498" y="126" on="0"/>
        <pt x="347" y="0" on="0"/>
        <pt x="239" y="0" on="1"/>
        <pt x="117" y="0" on="1"/>
        <pt x="117" y="561" on="1"/>
        <pt x="235" y="561" on="1"/>
      </contour>
      <contour>
        <pt x="155" y="527" on="1"/>
        <pt x="155" y="33" on="1"/>
        <pt x="240" y="33" on="1"/>
        <pt x="335" y="33" on="0"/>
        <pt x="459" y="144" on="0"/>
        <pt x="459" y="285" on="1"/>
        <pt x="459" y="428" on="0"/>
        <pt x="334" y="527" on="0"/>
        <pt x="234" y="527" on="1"/>
      </contour>
    </TTGlyph>
    <TTGlyph name="dagger" xMin="72" yMin="0" xMax="484" yMax="683">
      <contour>
        <pt x="298" y="525" on="1"/>
        <pt x="484" y="525" on="1"/>
        <pt x="484" y="491" on="1"/>
        <pt x="298" y="491" on="1"/>
        <pt x="298" y="0" on="1"/>
        <pt x="259" y="0" on="1"/>
        <pt x="259" y="491" on="1"/>
        <pt x="72" y="491" on="1"/>
        <pt x="72" y="525" on="1"/>
        <pt x="259" y="525" on="1"/>
        <pt x="259" y="683" on="1"/>
        <pt x="298" y="683" on="1"/>
      </contour>
    </TTGlyph>
    <TTGlyph name="dagger.lf" xMin="56" yMin="0" xMax="448" yMax="663">
      <contour>
        <pt x="271" y="505" on="1"/>
        <pt x="448" y="505" on="1"/>
        <pt x="448" y="471" on="1"/>
        <pt x="271" y="471" on="1"/>
        <pt x="271" y="0" on="1"/>
        <pt x="233" y="0" on="1"/>
        <pt x="233" y="471" on="1"/>
        <pt x="56" y="471" on="1"/>
        <pt x="56" y="505" on="1"/>
        <pt x="233" y="505" on="1"/>
        <pt x="233" y="663" on="1"/>
        <pt x="271" y="663" on="1"/>
      </contour>
    </TTGlyph>
    <TTGlyph name="dagger.osf" xMin="56" yMin="0" xMax="448" yMax="663">
      <component glyphName="dagger.lf" x="0" y="0" flags="0x0"/>
    </TTGlyph>
    <TTGlyph name="dagger.tosf" xMin="84" yMin="0" xMax="476" yMax="663">
      <component glyphName="dagger.lf" x="28" y="0" flags="0x0"/>
    </TTGlyph>
    <TTGlyph name="daggerdbl" xMin="70" yMin="0" xMax="484" yMax="683">
      <contour>
        <pt x="484" y="208" on="1"/>
        <pt x="296" y="208" on="1"/>
        <pt x="296" y="0" on="1"/>
        <pt x="257" y="0" on="1"/>
        <pt x="257" y="208" on="1"/>
        <pt x="72" y="208" on="1"/>
        <pt x="72" y="242" on="1"/>
        <pt x="257" y="242" on="1"/>
        <pt x="257" y="491" on="1"/>
        <pt x="70" y="491" on="1"/>
        <pt x="70" y="525" on="1"/>
        <pt x="257" y="525" on="1"/>
        <pt x="257" y="683" on="1"/>
        <pt x="296" y="683" on="1"/>
        <pt x="296" y="525" on="1"/>
        <pt x="482" y="525" on="1"/>
        <pt x="482" y="491" on="1"/>
        <pt x="296" y="491" on="1"/>
        <pt x="296" y="242" on="1"/>
        <pt x="484" y="242" on="1"/>
      </contour>
    </TTGlyph>
    <TTGlyph name="daggerdbl.lf" xMin="56" yMin="0" xMax="452" yMax="663">
      <contour>
        <pt x="452" y="183" on="1"/>
        <pt x="273" y="183" on="1"/>
        <pt x="273" y="0" on="1"/>
        <pt x="235" y="0" on="1"/>
        <pt x="235" y="183" on="1"/>
        <pt x="56" y="183" on="1"/>
        <pt x="56" y="216" on="1"/>
        <pt x="235" y="216" on="1"/>
        <pt x="235" y="471" on="1"/>
        <pt x="58" y="471" on="1"/>
        <pt x="58" y="505" on="1"/>
        <pt x="235" y="505" on="1"/>
        <pt x="235" y="663" on="1"/>
        <pt x="273" y="663" on="1"/>
        <pt x="273" y="505" on="1"/>
        <pt x="450" y="505" on="1"/>
        <pt x="450" y="471" on="1"/>
        <pt x="273" y="471" on="1"/>
        <pt x="273" y="216" on="1"/>
        <pt x="452" y="216" on="1"/>
      </contour>
    </TTGlyph>
    <TTGlyph name="daggerdbl.osf" xMin="56" yMin="0" xMax="452" yMax="663">
      <component glyphName="daggerdbl.lf" x="0" y="0" flags="0x0"/>
    </TTGlyph>
    <TTGlyph name="daggerdbl.tosf" xMin="82" yMin="0" xMax="478" yMax="663">
      <component glyphName="daggerdbl.lf" x="26" y="0" flags="0x0"/>
    </TTGlyph>
    <TTGlyph name="dcaron" xMin="73" yMin="-10" xMax="591" yMax="740">
      <component glyphName="d" x="0" y="0" flags="0x0"/>
      <component glyphName="caron.alt" x="469" y="52" flags="0x0"/>
    </TTGlyph>
    <TTGlyph name="dcaron.sc" xMin="117" yMin="0" xMax="498" yMax="790">
      <component glyphName="d.sc" x="0" y="0" flags="0x0"/>
      <component glyphName="uni030C.sc" x="108" y="0" flags="0x0"/>
    </TTGlyph>
    <TTGlyph name="dcroat" xMin="73" yMin="-10" xMax="541" yMax="740">
      <contour>
        <pt x="541" y="655" on="1"/>
        <pt x="541" y="623" on="1"/>
        <pt x="466" y="623" on="1"/>
        <pt x="466" y="0" on="1"/>
        <pt x="432" y="0" on="1"/>
        <pt x="428" y="84" on="1"/>
        <pt x="405" y="42" on="0"/>
        <pt x="325" y="-10" on="0"/>
        <pt x="267" y="-10" on="1"/>
        <pt x="209" y="-10" on="0"/>
        <pt x="121" y="55" on="0"/>
        <pt x="73" y="176" on="0"/>
        <pt x="73" y="258" on="1"/>
        <pt x="73" y="338" on="0"/>
        <pt x="122" y="462" on="0"/>
        <pt x="215" y="531" on="0"/>
        <pt x="278" y="531" on="1"/>
        <pt x="371" y="531" on="0"/>
        <pt x="428" y="456" on="1"/>
        <pt x="428" y="623" on="1"/>
        <pt x="259" y="623" on="1"/>
        <pt x="259" y="655" on="1"/>
        <pt x="428" y="655" on="1"/>
        <pt x="428" y="740" on="1"/>
        <pt x="466" y="735" on="1"/>
        <pt x="466" y="655" on="1"/>
      </contour>
      <contour>
        <pt x="326" y="24" on="0"/>
        <pt x="399" y="77" on="0"/>
        <pt x="428" y="132" on="1"/>
        <pt x="428" y="412" on="1"/>
        <pt x="371" y="497" on="0"/>
        <pt x="281" y="497" on="1"/>
        <pt x="232" y="497" on="0"/>
        <pt x="156" y="441" on="0"/>
        <pt x="113" y="335" on="0"/>
        <pt x="113" y="262" on="1"/>
        <pt x="113" y="148" on="0"/>
        <pt x="197" y="24" on="0"/>
        <pt x="271" y="24" on="1"/>
      </contour>
    </TTGlyph>
    <TTGlyph name="dcroat.sc" xMin="62" yMin="0" xMax="497" yMax="561">
      <component glyphName="eth.sc" x="0" y="0" flags="0x0"/>
    </TTGlyph>
    <TTGlyph name="degree" xMin="95" yMin="424" xMax="380" yMax="713">
      <component glyphName="degree.lf" x="18" y="20" flags="0x0"/>
    </TTGlyph>
    <TTGlyph name="degree.lf" xMin="77" yMin="404" xMax="362" yMax="693">
      <contour>
        <pt x="182" y="404" on="0"/>
        <pt x="117" y="439" on="0"/>
        <pt x="77" y="505" on="0"/>
        <pt x="77" y="549" on="1"/>
        <pt x="77" y="591" on="0"/>
        <pt x="117" y="657" on="0"/>
        <pt x="182" y="693" on="0"/>
        <pt x="219" y="693" on="1"/>
        <pt x="280" y="693" on="0"/>
        <pt x="362" y="614" on="0"/>
        <pt x="362" y="548" on="1"/>
        <pt x="362" y="484" on="0"/>
        <pt x="280" y="404" on="0"/>
        <pt x="219" y="404" on="1"/>
      </contour>
      <contour>
        <pt x="267" y="436" on="0"/>
        <pt x="325" y="499" on="0"/>
        <pt x="325" y="548" on="1"/>
        <pt x="325" y="599" on="0"/>
        <pt x="268" y="661" on="0"/>
        <pt x="219" y="661" on="1"/>
        <pt x="174" y="661" on="0"/>
        <pt x="114" y="599" on="0"/>
        <pt x="114" y="549" on="1"/>
        <pt x="114" y="500" on="0"/>
        <pt x="174" y="436" on="0"/>
        <pt x="219" y="436" on="1"/>
      </contour>
    </TTGlyph>
    <TTGlyph name="degree.osf" xMin="77" yMin="404" xMax="362" yMax="693">
      <component glyphName="degree.lf" x="0" y="0" flags="0x0"/>
    </TTGlyph>
    <TTGlyph name="degree.tosf" xMin="97" yMin="404" xMax="382" yMax="693">
      <component glyphName="degree.lf" x="20" y="0" flags="0x0"/>
    </TTGlyph>
    <TTGlyph name="delta" xMin="68" yMin="-10" xMax="492" yMax="740">
      <contour>
        <pt x="402" y="451" on="0"/>
        <pt x="492" y="337" on="0"/>
        <pt x="492" y="236" on="1"/>
        <pt x="492" y="117" on="0"/>
        <pt x="383" y="-10" on="0"/>
        <pt x="281" y="-10" on="1"/>
        <pt x="182" y="-10" on="0"/>
        <pt x="68" y="119" on="0"/>
        <pt x="68" y="237" on="1"/>
        <pt x="68" y="326" on="0"/>
        <pt x="155" y="449" on="0"/>
        <pt x="233" y="482" on="1"/>
        <pt x="175" y="507" on="0"/>
        <pt x="122" y="569" on="0"/>
        <pt x="122" y="615" on="1"/>
        <pt x="122" y="650" on="0"/>
        <pt x="162" y="707" on="0"/>
        <pt x="234" y="740" on="0"/>
        <pt x="282" y="740" on="1"/>
        <pt x="329" y="740" on="0"/>
        <pt x="403" y="717" on="0"/>
        <pt x="438" y="693" on="1"/>
        <pt x="416" y="668" on="1"/>
        <pt x="383" y="688" on="0"/>
        <pt x="325" y="706" on="0"/>
        <pt x="286" y="706" on="1"/>
        <pt x="229" y="706" on="0"/>
        <pt x="162" y="655" on="0"/>
        <pt x="162" y="614" on="1"/>
        <pt x="162" y="586" on="0"/>
        <pt x="185" y="547" on="0"/>
        <pt x="244" y="512" on="0"/>
        <pt x="301" y="490" on="1"/>
      </contour>
      <contour>
        <pt x="366" y="24" on="0"/>
        <pt x="453" y="131" on="0"/>
        <pt x="453" y="236" on="1"/>
        <pt x="453" y="299" on="0"/>
        <pt x="419" y="382" on="0"/>
        <pt x="339" y="441" on="0"/>
        <pt x="266" y="469" on="1"/>
        <pt x="194" y="440" on="0"/>
        <pt x="108" y="325" on="0"/>
        <pt x="108" y="237" on="1"/>
        <pt x="108" y="134" on="0"/>
        <pt x="200" y="24" on="0"/>
        <pt x="281" y="24" on="1"/>
      </contour>
    </TTGlyph>
    <TTGlyph name="delta.sc" xMin="23" yMin="0" xMax="479" yMax="561">
      <contour>
        <pt x="479" y="0" on="1"/>
        <pt x="23" y="0" on="1"/>
        <pt x="229" y="561" on="1"/>
        <pt x="275" y="561" on="1"/>
      </contour>
      <contour>
        <pt x="72" y="33" on="1"/>
        <pt x="429" y="33" on="1"/>
        <pt x="252" y="529" on="1"/>
      </contour>
    </TTGlyph>
    <TTGlyph name="dieresis" xMin="30" yMin="668" xMax="266" yMax="726">
      <contour>
        <pt x="72" y="726" on="0"/>
        <pt x="89" y="709" on="0"/>
        <pt x="89" y="697" on="1"/>
        <pt x="89" y="685" on="0"/>
        <pt x="72" y="668" on="0"/>
        <pt x="59" y="668" on="1"/>
        <pt x="46" y="668" on="0"/>
        <pt x="30" y="685" on="0"/>
        <pt x="30" y="697" on="1"/>
        <pt x="30" y="709" on="0"/>
        <pt x="46" y="726" on="0"/>
        <pt x="59" y="726" on="1"/>
      </contour>
      <contour>
        <pt x="250" y="726" on="0"/>
        <pt x="266" y="709" on="0"/>
        <pt x="266" y="697" on="1"/>
        <pt x="266" y="685" on="0"/>
        <pt x="250" y="668" on="0"/>
        <pt x="237" y="668" on="1"/>
        <pt x="224" y="668" on="0"/>
        <pt x="207" y="685" on="0"/>
        <pt x="207" y="697" on="1"/>
        <pt x="207" y="709" on="0"/>
        <pt x="224" y="726" on="0"/>
        <pt x="237" y="726" on="1"/>
      </contour>
    </TTGlyph>
    <TTGlyph name="dieresis.case" xMin="30" yMin="794" xMax="266" yMax="852">
      <component glyphName="uni0308" x="297" y="126" flags="0x0"/>
    </TTGlyph>
    <TTGlyph name="dieresis.sc" xMin="30" yMin="698" xMax="266" yMax="756">
      <component glyphName="uni0308" x="297" y="30" flags="0x0"/>
    </TTGlyph>
    <TTGlyph name="dieresistonos" xMin="30" yMin="638" xMax="266" yMax="842">
      <contour>
        <pt x="203" y="833" on="1"/>
        <pt x="159" y="709" on="1"/>
        <pt x="133" y="714" on="1"/>
        <pt x="162" y="842" on="1"/>
      </contour>
      <contour>
        <pt x="72" y="696" on="0"/>
        <pt x="89" y="679" on="0"/>
        <pt x="89" y="667" on="1"/>
        <pt x="89" y="655" on="0"/>
        <pt x="72" y="638" on="0"/>
        <pt x="59" y="638" on="1"/>
        <pt x="46" y="638" on="0"/>
        <pt x="30" y="655" on="0"/>
        <pt x="30" y="667" on="1"/>
        <pt x="30" y="679" on="0"/>
        <pt x="46" y="696" on="0"/>
        <pt x="59" y="696" on="1"/>
      </contour>
      <contour>
        <pt x="250" y="696" on="0"/>
        <pt x="266" y="679" on="0"/>
        <pt x="266" y="667" on="1"/>
        <pt x="266" y="655" on="0"/>
        <pt x="250" y="638" on="0"/>
        <pt x="237" y="638" on="1"/>
        <pt x="224" y="638" on="0"/>
        <pt x="207" y="655" on="0"/>
        <pt x="207" y="667" on="1"/>
        <pt x="207" y="679" on="0"/>
        <pt x="224" y="696" on="0"/>
        <pt x="237" y="696" on="1"/>
      </contour>
    </TTGlyph>
    <TTGlyph name="divide" xMin="106" yMin="83" xMax="449" yMax="348">
      <component glyphName="period" x="184" y="93" flags="0x0"/>
      <component glyphName="period" x="184" y="520" flags="0x0"/>
      <component glyphName="minus.lf" x="33" y="0" flags="0x0"/>
    </TTGlyph>
    <TTGlyph name="divide.lf" xMin="73" yMin="83" xMax="416" yMax="348">
      <component glyphName="period" x="151" y="93" flags="0x0"/>
      <component glyphName="period" x="151" y="520" flags="0x0"/>
      <component glyphName="minus.lf" x="0" y="0" flags="0x0"/>
    </TTGlyph>
    <TTGlyph name="divide.osf" xMin="73" yMin="83" xMax="416" yMax="348">
      <component glyphName="period" x="151" y="93" flags="0x0"/>
      <component glyphName="period" x="151" y="520" flags="0x0"/>
      <component glyphName="minus.lf" x="0" y="0" flags="0x0"/>
    </TTGlyph>
    <TTGlyph name="divide.tosf" xMin="108" yMin="83" xMax="451" yMax="348">
      <component glyphName="period" x="186" y="93" flags="0x0"/>
      <component glyphName="period" x="186" y="520" flags="0x0"/>
      <component glyphName="minus.lf" x="35" y="0" flags="0x0"/>
    </TTGlyph>
    <TTGlyph name="dollar" xMin="55" yMin="-148" xMax="476" yMax="841">
      <contour>
        <pt x="476" y="104" on="0"/>
        <pt x="374" y="0" on="0"/>
        <pt x="290" y="-8" on="1"/>
        <pt x="290" y="-148" on="1"/>
        <pt x="256" y="-148" on="1"/>
        <pt x="256" y="-9" on="1"/>
        <pt x="195" y="-8" on="0"/>
        <pt x="97" y="34" on="0"/>
        <pt x="55" y="72" on="1"/>
        <pt x="78" y="98" on="1"/>
        <pt x="117" y="63" on="0"/>
        <pt x="203" y="26" on="0"/>
        <pt x="261" y="26" on="1"/>
        <pt x="340" y="26" on="0"/>
        <pt x="437" y="110" on="0"/>
        <pt x="437" y="182" on="1"/>
        <pt x="437" y="227" on="0"/>
        <pt x="405" y="286" on="0"/>
        <pt x="333" y="327" on="0"/>
        <pt x="269" y="347" on="1"/>
        <pt x="199" y="369" on="0"/>
        <pt x="118" y="417" on="0"/>
        <pt x="81" y="480" on="0"/>
        <pt x="81" y="526" on="1"/>
        <pt x="81" y="593" on="0"/>
        <pt x="177" y="682" on="0"/>
        <pt x="256" y="686" on="1"/>
        <pt x="256" y="841" on="1"/>
        <pt x="290" y="841" on="1"/>
        <pt x="290" y="686" on="1"/>
        <pt x="342" y="682" on="0"/>
        <pt x="418" y="647" on="0"/>
        <pt x="456" y="614" on="1"/>
        <pt x="431" y="588" on="1"/>
        <pt x="394" y="622" on="0"/>
        <pt x="319" y="651" on="0"/>
        <pt x="269" y="651" on="1"/>
        <pt x="202" y="651" on="0"/>
        <pt x="120" y="582" on="0"/>
        <pt x="120" y="526" on="1"/>
        <pt x="120" y="487" on="0"/>
        <pt x="151" y="437" on="0"/>
        <pt x="220" y="399" on="0"/>
        <pt x="283" y="380" on="1"/>
        <pt x="353" y="359" on="0"/>
        <pt x="435" y="311" on="0"/>
        <pt x="476" y="239" on="0"/>
        <pt x="476" y="183" on="1"/>
      </contour>
    </TTGlyph>
    <TTGlyph name="dollar.lf" xMin="47" yMin="-148" xMax="461" yMax="815">
      <contour>
        <pt x="461" y="101" on="0"/>
        <pt x="360" y="-1" on="0"/>
        <pt x="277" y="-9" on="1"/>
        <pt x="277" y="-148" on="1"/>
        <pt x="243" y="-148" on="1"/>
        <pt x="243" y="-10" on="1"/>
        <pt x="183" y="-9" on="0"/>
        <pt x="88" y="33" on="0"/>
        <pt x="47" y="70" on="1"/>
        <pt x="70" y="95" on="1"/>
        <pt x="108" y="61" on="0"/>
        <pt x="193" y="24" on="0"/>
        <pt x="249" y="24" on="1"/>
        <pt x="327" y="24" on="0"/>
        <pt x="422" y="107" on="0"/>
        <pt x="422" y="178" on="1"/>
        <pt x="422" y="222" on="0"/>
        <pt x="390" y="279" on="0"/>
        <pt x="320" y="319" on="0"/>
        <pt x="257" y="339" on="1"/>
        <pt x="188" y="361" on="0"/>
        <pt x="109" y="408" on="0"/>
        <pt x="73" y="470" on="0"/>
        <pt x="73" y="515" on="1"/>
        <pt x="73" y="580" on="0"/>
        <pt x="166" y="668" on="0"/>
        <pt x="243" y="672" on="1"/>
        <pt x="243" y="815" on="1"/>
        <pt x="277" y="815" on="1"/>
        <pt x="277" y="672" on="1"/>
        <pt x="328" y="669" on="0"/>
        <pt x="404" y="634" on="0"/>
        <pt x="440" y="601" on="1"/>
        <pt x="416" y="575" on="1"/>
        <pt x="380" y="609" on="0"/>
        <pt x="306" y="638" on="0"/>
        <pt x="257" y="638" on="1"/>
        <pt x="192" y="638" on="0"/>
        <pt x="111" y="570" on="0"/>
        <pt x="111" y="515" on="1"/>
        <pt x="111" y="477" on="0"/>
        <pt x="142" y="428" on="0"/>
        <pt x="209" y="391" on="0"/>
        <pt x="271" y="372" on="1"/>
        <pt x="340" y="351" on="0"/>
        <pt x="420" y="304" on="0"/>
        <pt x="461" y="233" on="0"/>
        <pt x="461" y="179" on="1"/>
      </contour>
    </TTGlyph>
    <TTGlyph name="dollar.osf" xMin="47" yMin="-148" xMax="461" yMax="815">
      <component glyphName="dollar.lf" x="0" y="0" flags="0x0"/>
    </TTGlyph>
    <TTGlyph name="dollar.tosf" xMin="58" yMin="-148" xMax="471" yMax="822">
      <contour>
        <pt x="471" y="102" on="0"/>
        <pt x="371" y="-1" on="0"/>
        <pt x="288" y="-8" on="1"/>
        <pt x="288" y="-148" on="1"/>
        <pt x="254" y="-148" on="1"/>
        <pt x="254" y="-9" on="1"/>
        <pt x="144" y="-6" on="0"/>
        <pt x="58" y="73" on="1"/>
        <pt x="80" y="99" on="1"/>
        <pt x="122" y="63" on="0"/>
        <pt x="207" y="25" on="0"/>
        <pt x="262" y="25" on="1"/>
        <pt x="339" y="25" on="0"/>
        <pt x="432" y="108" on="0"/>
        <pt x="432" y="181" on="1"/>
        <pt x="432" y="226" on="0"/>
        <pt x="398" y="284" on="0"/>
        <pt x="328" y="323" on="0"/>
        <pt x="264" y="344" on="1"/>
        <pt x="198" y="365" on="0"/>
        <pt x="121" y="410" on="0"/>
        <pt x="86" y="471" on="0"/>
        <pt x="86" y="516" on="1"/>
        <pt x="86" y="580" on="0"/>
        <pt x="179" y="669" on="0"/>
        <pt x="255" y="673" on="1"/>
        <pt x="255" y="822" on="1"/>
        <pt x="289" y="822" on="1"/>
        <pt x="289" y="673" on="1"/>
        <pt x="342" y="670" on="0"/>
        <pt x="419" y="635" on="0"/>
        <pt x="455" y="602" on="1"/>
        <pt x="432" y="576" on="1"/>
        <pt x="397" y="610" on="0"/>
        <pt x="321" y="639" on="0"/>
        <pt x="271" y="639" on="1"/>
        <pt x="205" y="639" on="0"/>
        <pt x="125" y="572" on="0"/>
        <pt x="125" y="516" on="1"/>
        <pt x="125" y="479" on="0"/>
        <pt x="154" y="430" on="0"/>
        <pt x="219" y="394" on="0"/>
        <pt x="277" y="376" on="1"/>
        <pt x="344" y="354" on="0"/>
        <pt x="426" y="309" on="0"/>
        <pt x="471" y="238" on="0"/>
        <pt x="471" y="183" on="1"/>
      </contour>
    </TTGlyph>
    <TTGlyph name="dotaccent" xMin="30" yMin="678" xMax="92" yMax="737">
      <contour>
        <pt x="75" y="737" on="0"/>
        <pt x="92" y="720" on="0"/>
        <pt x="92" y="707" on="1"/>
        <pt x="92" y="695" on="0"/>
        <pt x="75" y="678" on="0"/>
        <pt x="61" y="678" on="1"/>
        <pt x="47" y="678" on="0"/>
        <pt x="30" y="695" on="0"/>
        <pt x="30" y="707" on="1"/>
        <pt x="30" y="719" on="0"/>
        <pt x="47" y="737" on="0"/>
        <pt x="61" y="737" on="1"/>
      </contour>
    </TTGlyph>
    <TTGlyph name="dotaccent.case" xMin="30" yMin="804" xMax="92" yMax="863">
      <component glyphName="uni0307" x="122" y="126" flags="0x0"/>
    </TTGlyph>
    <TTGlyph name="dotaccent.sc" xMin="30" yMin="708" xMax="92" yMax="767">
      <component glyphName="uni0307" x="122" y="30" flags="0x0"/>
    </TTGlyph>
    <TTGlyph name="dotbelowcomb" xMin="-92" yMin="-153" xMax="-30" yMax="-93">
      <contour>
        <pt x="-75" y="-153" on="0"/>
        <pt x="-92" y="-136" on="0"/>
        <pt x="-92" y="-123" on="1"/>
        <pt x="-92" y="-110" on="0"/>
        <pt x="-75" y="-93" on="0"/>
        <pt x="-61" y="-93" on="1"/>
        <pt x="-47" y="-93" on="0"/>
        <pt x="-30" y="-111" on="0"/>
        <pt x="-30" y="-123" on="1"/>
        <pt x="-30" y="-135" on="0"/>
        <pt x="-47" y="-153" on="0"/>
        <pt x="-61" y="-153" on="1"/>
      </contour>
    </TTGlyph>
    <TTGlyph name="dotlessi" xMin="112" yMin="0" xMax="150" yMax="521">
      <contour>
        <pt x="150" y="0" on="1"/>
        <pt x="112" y="0" on="1"/>
        <pt x="112" y="521" on="1"/>
        <pt x="150" y="521" on="1"/>
      </contour>
    </TTGlyph>
    <TTGlyph name="dotlessi.sc" xMin="117" yMin="0" xMax="155" yMax="561">
      <component glyphName="i.sc" x="0" y="0" flags="0x0"/>
    </TTGlyph>
    <TTGlyph name="dotmath" xMin="59" yMin="289" xMax="129" yMax="358">
      <component glyphName="periodcentered" x="0" y="0" flags="0x0"/>
    </TTGlyph>
    <TTGlyph name="e" xMin="68" yMin="-10" xMax="468" yMax="531">
      <contour>
        <pt x="468" y="262" on="0"/>
        <pt x="466" y="242" on="1"/>
        <pt x="108" y="242" on="1"/>
        <pt x="113" y="132" on="0"/>
        <pt x="208" y="24" on="0"/>
        <pt x="284" y="24" on="1"/>
        <pt x="327" y="24" on="0"/>
        <pt x="391" y="50" on="0"/>
        <pt x="427" y="79" on="1"/>
        <pt x="447" y="52" on="1"/>
        <pt x="410" y="21" on="0"/>
        <pt x="332" y="-10" on="0"/>
        <pt x="283" y="-10" on="1"/>
        <pt x="184" y="-10" on="0"/>
        <pt x="68" y="131" on="0"/>
        <pt x="68" y="256" on="1"/>
        <pt x="68" y="340" on="0"/>
        <pt x="119" y="464" on="0"/>
        <pt x="211" y="531" on="0"/>
        <pt x="272" y="531" on="1"/>
        <pt x="368" y="531" on="0"/>
        <pt x="468" y="398" on="0"/>
        <pt x="468" y="282" on="1"/>
      </contour>
      <contour>
        <pt x="430" y="296" on="1"/>
        <pt x="430" y="389" on="0"/>
        <pt x="352" y="497" on="0"/>
        <pt x="274" y="497" on="1"/>
        <pt x="204" y="497" on="0"/>
        <pt x="112" y="385" on="0"/>
        <pt x="108" y="274" on="1"/>
        <pt x="430" y="274" on="1"/>
      </contour>
    </TTGlyph>
    <TTGlyph name="e.sc" xMin="117" yMin="0" xMax="413" yMax="561">
      <contour>
        <pt x="404" y="527" on="1"/>
        <pt x="155" y="527" on="1"/>
        <pt x="155" y="310" on="1"/>
        <pt x="370" y="310" on="1"/>
        <pt x="370" y="277" on="1"/>
        <pt x="155" y="277" on="1"/>
        <pt x="155" y="34" on="1"/>
        <pt x="413" y="34" on="1"/>
        <pt x="413" y="0" on="1"/>
        <pt x="117" y="0" on="1"/>
        <pt x="117" y="561" on="1"/>
        <pt x="408" y="561" on="1"/>
      </contour>
    </TTGlyph>
    <TTGlyph name="eacute" xMin="68" yMin="-10" xMax="468" yMax="771">
      <component glyphName="e" x="0" y="0" flags="0x0"/>
      <component glyphName="acutecomb" x="397" y="0" flags="0x0"/>
    </TTGlyph>
    <TTGlyph name="eacute.sc" xMin="117" yMin="0" xMax="413" yMax="801">
      <component glyphName="e.sc" x="0" y="0" flags="0x0"/>
      <component glyphName="acutecomb.sc" x="136" y="0" flags="0x0"/>
    </TTGlyph>
    <TTGlyph name="ebreve" xMin="68" yMin="-10" xMax="468" yMax="762">
      <component glyphName="e" x="0" y="0" flags="0x0"/>
      <component glyphName="uni0306" x="423" y="0" flags="0x0"/>
    </TTGlyph>
    <TTGlyph name="ebreve.sc" xMin="117" yMin="0" xMax="413" yMax="792">
      <component glyphName="e.sc" x="0" y="0" flags="0x0"/>
      <component glyphName="uni0306.sc" x="115" y="0" flags="0x0"/>
    </TTGlyph>
    <TTGlyph name="ecaron" xMin="68" yMin="-10" xMax="468" yMax="760">
      <component glyphName="e" x="0" y="0" flags="0x0"/>
      <component glyphName="uni030C" x="441" y="0" flags="0x0"/>
    </TTGlyph>
    <TTGlyph name="ecaron.sc" xMin="117" yMin="0" xMax="413" yMax="790">
      <component glyphName="e.sc" x="0" y="0" flags="0x0"/>
      <component glyphName="uni030C.sc" x="96" y="0" flags="0x0"/>
    </TTGlyph>
    <TTGlyph name="ecircumflex" xMin="68" yMin="-10" xMax="468" yMax="772">
      <component glyphName="e" x="0" y="0" flags="0x0"/>
      <component glyphName="uni0302" x="441" y="0" flags="0x0"/>
    </TTGlyph>
    <TTGlyph name="ecircumflex.sc" xMin="117" yMin="0" xMax="413" yMax="802">
      <component glyphName="e.sc" x="0" y="0" flags="0x0"/>
      <component glyphName="uni0302.sc" x="96" y="0" flags="0x0"/>
    </TTGlyph>
    <TTGlyph name="edieresis" xMin="68" yMin="-10" xMax="468" yMax="726">
      <component glyphName="e" x="0" y="0" flags="0x0"/>
      <component glyphName="uni0308" x="423" y="0" flags="0x0"/>
    </TTGlyph>
    <TTGlyph name="edieresis.sc" xMin="117" yMin="0" xMax="413" yMax="756">
      <component glyphName="e.sc" x="0" y="0" flags="0x0"/>
      <component glyphName="uni0308.sc" x="115" y="0" flags="0x0"/>
    </TTGlyph>
    <TTGlyph name="edotaccent" xMin="68" yMin="-10" xMax="468" yMax="737">
      <component glyphName="e" x="0" y="0" flags="0x0"/>
      <component glyphName="uni0307" x="336" y="0" flags="0x0"/>
    </TTGlyph>
    <TTGlyph name="edotaccent.sc" xMin="117" yMin="0" xMax="413" yMax="767">
      <component glyphName="e.sc" x="0" y="0" flags="0x0"/>
      <component glyphName="uni0307.sc" x="203" y="0" flags="0x0"/>
    </TTGlyph>
    <TTGlyph name="egrave" xMin="68" yMin="-10" xMax="468" yMax="771">
      <component glyphName="e" x="0" y="0" flags="0x0"/>
      <component glyphName="gravecomb" x="405" y="0" flags="0x0"/>
    </TTGlyph>
    <TTGlyph name="egrave.sc" xMin="117" yMin="0" xMax="413" yMax="801">
      <component glyphName="e.sc" x="0" y="0" flags="0x0"/>
      <component glyphName="gravecomb.sc" x="138" y="0" flags="0x0"/>
    </TTGlyph>
    <TTGlyph name="eight" xMin="67" yMin="-10" xMax="488" yMax="693">
      <contour>
        <pt x="418" y="326" on="0"/>
        <pt x="488" y="245" on="0"/>
        <pt x="488" y="174" on="1"/>
        <pt x="488" y="89" on="0"/>
        <pt x="371" y="-10" on="0"/>
        <pt x="276" y="-10" on="1"/>
        <pt x="180" y="-10" on="0"/>
        <pt x="67" y="90" on="0"/>
        <pt x="67" y="173" on="1"/>
        <pt x="67" y="315" on="0"/>
        <pt x="220" y="370" on="1"/>
        <pt x="154" y="397" on="0"/>
        <pt x="97" y="467" on="0"/>
        <pt x="97" y="526" on="1"/>
        <pt x="97" y="578" on="0"/>
        <pt x="147" y="653" on="0"/>
        <pt x="230" y="693" on="0"/>
        <pt x="278" y="693" on="1"/>
        <pt x="326" y="693" on="0"/>
        <pt x="409" y="655" on="0"/>
        <pt x="459" y="580" on="0"/>
        <pt x="459" y="526" on="1"/>
        <pt x="459" y="469" on="0"/>
        <pt x="401" y="393" on="0"/>
        <pt x="336" y="359" on="1"/>
      </contour>
      <contour>
        <pt x="135" y="490" on="0"/>
        <pt x="157" y="443" on="0"/>
        <pt x="212" y="405" on="0"/>
        <pt x="262" y="386" on="1"/>
        <pt x="304" y="371" on="1"/>
        <pt x="366" y="402" on="0"/>
        <pt x="421" y="473" on="0"/>
        <pt x="421" y="524" on="1"/>
        <pt x="421" y="589" on="0"/>
        <pt x="341" y="660" on="0"/>
        <pt x="278" y="660" on="1"/>
        <pt x="216" y="660" on="0"/>
        <pt x="135" y="589" on="0"/>
        <pt x="135" y="525" on="1"/>
      </contour>
      <contour>
        <pt x="354" y="24" on="0"/>
        <pt x="449" y="101" on="0"/>
        <pt x="449" y="174" on="1"/>
        <pt x="449" y="219" on="0"/>
        <pt x="417" y="277" on="0"/>
        <pt x="354" y="318" on="0"/>
        <pt x="299" y="339" on="1"/>
        <pt x="257" y="356" on="1"/>
        <pt x="176" y="328" on="0"/>
        <pt x="106" y="242" on="0"/>
        <pt x="106" y="173" on="1"/>
        <pt x="106" y="101" on="0"/>
        <pt x="199" y="24" on="0"/>
        <pt x="277" y="24" on="1"/>
      </contour>
    </TTGlyph>
    <TTGlyph name="eight.dnom" xMin="60" yMin="-7" xMax="339" yMax="420">
      <contour>
        <pt x="292" y="199" on="0"/>
        <pt x="339" y="150" on="0"/>
        <pt x="339" y="107" on="1"/>
        <pt x="339" y="54" on="0"/>
        <pt x="260" y="-7" on="0"/>
        <pt x="197" y="-7" on="1"/>
        <pt x="135" y="-7" on="0"/>
        <pt x="60" y="55" on="0"/>
        <pt x="60" y="104" on="1"/>
        <pt x="60" y="145" on="0"/>
        <pt x="110" y="207" on="0"/>
        <pt x="156" y="221" on="1"/>
        <pt x="116" y="239" on="0"/>
        <pt x="80" y="281" on="0"/>
        <pt x="80" y="317" on="1"/>
        <pt x="80" y="365" on="0"/>
        <pt x="150" y="420" on="0"/>
        <pt x="200" y="420" on="1"/>
        <pt x="249" y="420" on="0"/>
        <pt x="319" y="365" on="0"/>
        <pt x="319" y="316" on="1"/>
        <pt x="319" y="285" on="0"/>
        <pt x="280" y="239" on="0"/>
        <pt x="239" y="219" on="1"/>
      </contour>
      <contour>
        <pt x="115" y="288" on="0"/>
        <pt x="146" y="253" on="0"/>
        <pt x="189" y="238" on="1"/>
        <pt x="211" y="231" on="1"/>
        <pt x="249" y="248" on="0"/>
        <pt x="284" y="289" on="0"/>
        <pt x="284" y="316" on="1"/>
        <pt x="284" y="352" on="0"/>
        <pt x="237" y="390" on="0"/>
        <pt x="200" y="390" on="1"/>
        <pt x="162" y="390" on="0"/>
        <pt x="115" y="353" on="0"/>
        <pt x="115" y="318" on="1"/>
      </contour>
      <contour>
        <pt x="245" y="23" on="0"/>
        <pt x="303" y="64" on="0"/>
        <pt x="303" y="107" on="1"/>
        <pt x="303" y="142" on="0"/>
        <pt x="264" y="181" on="0"/>
        <pt x="216" y="199" on="1"/>
        <pt x="190" y="209" on="1"/>
        <pt x="139" y="193" on="0"/>
        <pt x="97" y="144" on="0"/>
        <pt x="97" y="104" on="1"/>
        <pt x="97" y="64" on="0"/>
        <pt x="153" y="23" on="0"/>
        <pt x="198" y="23" on="1"/>
      </contour>
    </TTGlyph>
    <TTGlyph name="eight.lf" xMin="58" yMin="-10" xMax="472" yMax="675">
      <contour>
        <pt x="401" y="316" on="0"/>
        <pt x="472" y="236" on="0"/>
        <pt x="472" y="169" on="1"/>
        <pt x="472" y="87" on="0"/>
        <pt x="357" y="-10" on="0"/>
        <pt x="264" y="-10" on="1"/>
        <pt x="202" y="-10" on="0"/>
        <pt x="109" y="35" on="0"/>
        <pt x="58" y="116" on="0"/>
        <pt x="58" y="168" on="1"/>
        <pt x="58" y="236" on="0"/>
        <pt x="135" y="333" on="0"/>
        <pt x="208" y="360" on="1"/>
        <pt x="145" y="387" on="0"/>
        <pt x="88" y="455" on="0"/>
        <pt x="88" y="511" on="1"/>
        <pt x="88" y="561" on="0"/>
        <pt x="137" y="636" on="0"/>
        <pt x="218" y="675" on="0"/>
        <pt x="266" y="675" on="1"/>
        <pt x="313" y="675" on="0"/>
        <pt x="394" y="637" on="0"/>
        <pt x="443" y="563" on="0"/>
        <pt x="443" y="511" on="1"/>
        <pt x="443" y="458" on="0"/>
        <pt x="384" y="382" on="0"/>
        <pt x="320" y="349" on="1"/>
      </contour>
      <contour>
        <pt x="126" y="462" on="0"/>
        <pt x="178" y="404" on="0"/>
        <pt x="249" y="377" on="1"/>
        <pt x="289" y="361" on="1"/>
        <pt x="351" y="393" on="0"/>
        <pt x="405" y="462" on="0"/>
        <pt x="405" y="510" on="1"/>
        <pt x="405" y="572" on="0"/>
        <pt x="328" y="641" on="0"/>
        <pt x="266" y="641" on="1"/>
        <pt x="205" y="641" on="0"/>
        <pt x="126" y="572" on="0"/>
        <pt x="126" y="510" on="1"/>
      </contour>
      <contour>
        <pt x="340" y="24" on="0"/>
        <pt x="433" y="100" on="0"/>
        <pt x="433" y="169" on="1"/>
        <pt x="433" y="212" on="0"/>
        <pt x="402" y="268" on="0"/>
        <pt x="339" y="309" on="0"/>
        <pt x="283" y="330" on="1"/>
        <pt x="245" y="345" on="1"/>
        <pt x="167" y="317" on="0"/>
        <pt x="97" y="233" on="0"/>
        <pt x="97" y="168" on="1"/>
        <pt x="97" y="99" on="0"/>
        <pt x="189" y="24" on="0"/>
        <pt x="265" y="24" on="1"/>
      </contour>
    </TTGlyph>
    <TTGlyph name="eight.numr" xMin="60" yMin="264" xMax="339" yMax="691">
      <component glyphName="eight.dnom" x="0" y="271" flags="0x0"/>
    </TTGlyph>
    <TTGlyph name="eight.osf" xMin="58" yMin="-10" xMax="472" yMax="675">
      <contour>
        <pt x="401" y="316" on="0"/>
        <pt x="472" y="236" on="0"/>
        <pt x="472" y="169" on="1"/>
        <pt x="472" y="87" on="0"/>
        <pt x="357" y="-10" on="0"/>
        <pt x="264" y="-10" on="1"/>
        <pt x="202" y="-10" on="0"/>
        <pt x="109" y="35" on="0"/>
        <pt x="58" y="116" on="0"/>
        <pt x="58" y="168" on="1"/>
        <pt x="58" y="236" on="0"/>
        <pt x="135" y="333" on="0"/>
        <pt x="208" y="360" on="1"/>
        <pt x="145" y="387" on="0"/>
        <pt x="88" y="455" on="0"/>
        <pt x="88" y="511" on="1"/>
        <pt x="88" y="561" on="0"/>
        <pt x="137" y="636" on="0"/>
        <pt x="218" y="675" on="0"/>
        <pt x="266" y="675" on="1"/>
        <pt x="313" y="675" on="0"/>
        <pt x="394" y="637" on="0"/>
        <pt x="443" y="563" on="0"/>
        <pt x="443" y="511" on="1"/>
        <pt x="443" y="458" on="0"/>
        <pt x="384" y="382" on="0"/>
        <pt x="320" y="349" on="1"/>
      </contour>
      <contour>
        <pt x="126" y="462" on="0"/>
        <pt x="178" y="404" on="0"/>
        <pt x="249" y="377" on="1"/>
        <pt x="289" y="361" on="1"/>
        <pt x="351" y="393" on="0"/>
        <pt x="405" y="462" on="0"/>
        <pt x="405" y="510" on="1"/>
        <pt x="405" y="572" on="0"/>
        <pt x="328" y="641" on="0"/>
        <pt x="266" y="641" on="1"/>
        <pt x="205" y="641" on="0"/>
        <pt x="126" y="572" on="0"/>
        <pt x="126" y="510" on="1"/>
      </contour>
      <contour>
        <pt x="340" y="24" on="0"/>
        <pt x="433" y="100" on="0"/>
        <pt x="433" y="169" on="1"/>
        <pt x="433" y="212" on="0"/>
        <pt x="402" y="268" on="0"/>
        <pt x="339" y="309" on="0"/>
        <pt x="283" y="330" on="1"/>
        <pt x="245" y="345" on="1"/>
        <pt x="167" y="317" on="0"/>
        <pt x="97" y="233" on="0"/>
        <pt x="97" y="168" on="1"/>
        <pt x="97" y="99" on="0"/>
        <pt x="189" y="24" on="0"/>
        <pt x="265" y="24" on="1"/>
      </contour>
    </TTGlyph>
    <TTGlyph name="eight.tosf" xMin="69" yMin="-10" xMax="491" yMax="675">
      <contour>
        <pt x="420" y="317" on="0"/>
        <pt x="491" y="236" on="0"/>
        <pt x="491" y="169" on="1"/>
        <pt x="491" y="115" on="0"/>
        <pt x="437" y="34" on="0"/>
        <pt x="341" y="-10" on="0"/>
        <pt x="279" y="-10" on="1"/>
        <pt x="216" y="-10" on="0"/>
        <pt x="121" y="35" on="0"/>
        <pt x="69" y="116" on="0"/>
        <pt x="69" y="168" on="1"/>
        <pt x="69" y="236" on="0"/>
        <pt x="147" y="334" on="0"/>
        <pt x="222" y="361" on="1"/>
        <pt x="157" y="388" on="0"/>
        <pt x="99" y="456" on="0"/>
        <pt x="99" y="512" on="1"/>
        <pt x="99" y="561" on="0"/>
        <pt x="149" y="635" on="0"/>
        <pt x="232" y="675" on="0"/>
        <pt x="281" y="675" on="1"/>
        <pt x="329" y="675" on="0"/>
        <pt x="412" y="637" on="0"/>
        <pt x="462" y="563" on="0"/>
        <pt x="462" y="512" on="1"/>
        <pt x="462" y="459" on="0"/>
        <pt x="403" y="383" on="0"/>
        <pt x="339" y="350" on="1"/>
      </contour>
      <contour>
        <pt x="138" y="463" on="0"/>
        <pt x="191" y="405" on="0"/>
        <pt x="264" y="378" on="1"/>
        <pt x="307" y="362" on="1"/>
        <pt x="368" y="393" on="0"/>
        <pt x="423" y="462" on="0"/>
        <pt x="423" y="510" on="1"/>
        <pt x="423" y="571" on="0"/>
        <pt x="344" y="641" on="0"/>
        <pt x="281" y="641" on="1"/>
        <pt x="219" y="641" on="0"/>
        <pt x="138" y="571" on="0"/>
        <pt x="138" y="511" on="1"/>
      </contour>
      <contour>
        <pt x="356" y="24" on="0"/>
        <pt x="451" y="100" on="0"/>
        <pt x="451" y="169" on="1"/>
        <pt x="451" y="231" on="0"/>
        <pt x="383" y="299" on="0"/>
        <pt x="302" y="330" on="1"/>
        <pt x="259" y="346" on="1"/>
        <pt x="179" y="319" on="0"/>
        <pt x="109" y="234" on="0"/>
        <pt x="109" y="168" on="1"/>
        <pt x="109" y="100" on="0"/>
        <pt x="203" y="24" on="0"/>
        <pt x="280" y="24" on="1"/>
      </contour>
    </TTGlyph>
    <TTGlyph name="ellipsis" xMin="248" yMin="-10" xMax="318" yMax="59">
      <component glyphName="period" x="189" y="0" flags="0x0"/>
      <component glyphName="period" x="378" y="0" flags="0x0"/>
      <component glyphName="period" x="0" y="0" flags="0x0"/>
    </TTGlyph>
    <TTGlyph name="emacron" xMin="68" yMin="-10" xMax="468" yMax="715">
      <component glyphName="e" x="0" y="0" flags="0x0"/>
      <component glyphName="uni0304" x="416" y="0" flags="0x0"/>
    </TTGlyph>
    <TTGlyph name="emacron.sc" xMin="117" yMin="0" xMax="413" yMax="745">
      <component glyphName="e.sc" x="0" y="0" flags="0x0"/>
      <component glyphName="uni0304.sc" x="123" y="0" flags="0x0"/>
    </TTGlyph>
    <TTGlyph name="emdash" xMin="44" yMin="297" xMax="734" yMax="330">
      <contour>
        <pt x="44" y="330" on="1"/>
        <pt x="734" y="330" on="1"/>
        <pt x="734" y="297" on="1"/>
        <pt x="44" y="297" on="1"/>
      </contour>
    </TTGlyph>
    <TTGlyph name="emdash.case" xMin="44" yMin="342" xMax="734" yMax="375">
      <component glyphName="emdash" x="0" y="45" flags="0x0"/>
    </TTGlyph>
    <TTGlyph name="emptyset" xMin="84" yMin="-16" xMax="816" yMax="716">
      <contour>
        <pt x="740" y="590" on="0"/>
        <pt x="816" y="438" on="0"/>
        <pt x="816" y="349" on="1"/>
        <pt x="816" y="248" on="0"/>
        <pt x="718" y="81" on="0"/>
        <pt x="551" y="-16" on="0"/>
        <pt x="451" y="-16" on="1"/>
        <pt x="333" y="-16" on="0"/>
        <pt x="239" y="50" on="1"/>
        <pt x="193" y="-12" on="1"/>
        <pt x="154" y="-12" on="1"/>
        <pt x="214" y="69" on="1"/>
        <pt x="153" y="120" on="0"/>
        <pt x="84" y="265" on="0"/>
        <pt x="84" y="349" on="1"/>
        <pt x="84" y="450" on="0"/>
        <pt x="183" y="618" on="0"/>
        <pt x="351" y="716" on="0"/>
        <pt x="451" y="716" on="1"/>
        <pt x="558" y="716" on="0"/>
        <pt x="648" y="659" on="1"/>
        <pt x="687" y="712" on="1"/>
        <pt x="726" y="712" on="1"/>
        <pt x="674" y="641" on="1"/>
      </contour>
      <contour>
        <pt x="120" y="274" on="0"/>
        <pt x="180" y="143" on="0"/>
        <pt x="234" y="97" on="1"/>
        <pt x="628" y="632" on="1"/>
        <pt x="548" y="684" on="0"/>
        <pt x="451" y="684" on="1"/>
        <pt x="360" y="684" on="0"/>
        <pt x="208" y="594" on="0"/>
        <pt x="120" y="440" on="0"/>
        <pt x="120" y="349" on="1"/>
      </contour>
      <contour>
        <pt x="542" y="16" on="0"/>
        <pt x="693" y="105" on="0"/>
        <pt x="780" y="257" on="0"/>
        <pt x="780" y="349" on="1"/>
        <pt x="780" y="429" on="0"/>
        <pt x="713" y="567" on="0"/>
        <pt x="654" y="614" on="1"/>
        <pt x="259" y="77" on="1"/>
        <pt x="343" y="16" on="0"/>
        <pt x="451" y="16" on="1"/>
      </contour>
    </TTGlyph>
    <TTGlyph name="endash" xMin="44" yMin="296" xMax="476" yMax="330">
      <contour>
        <pt x="44" y="330" on="1"/>
        <pt x="476" y="330" on="1"/>
        <pt x="476" y="296" on="1"/>
        <pt x="44" y="296" on="1"/>
      </contour>
    </TTGlyph>
    <TTGlyph name="endash.case" xMin="44" yMin="341" xMax="476" yMax="375">
      <component glyphName="endash" x="0" y="45" flags="0x0"/>
    </TTGlyph>
    <TTGlyph name="eng" xMin="112" yMin="-201" xMax="475" yMax="531">
      <contour>
        <pt x="475" y="-79" on="1"/>
        <pt x="475" y="-139" on="0"/>
        <pt x="415" y="-201" on="0"/>
        <pt x="365" y="-201" on="1"/>
        <pt x="314" y="-201" on="0"/>
        <pt x="271" y="-169" on="1"/>
        <pt x="289" y="-144" on="1"/>
        <pt x="324" y="-168" on="0"/>
        <pt x="364" y="-168" on="1"/>
        <pt x="397" y="-168" on="0"/>
        <pt x="437" y="-126" on="0"/>
        <pt x="437" y="-79" on="1"/>
        <pt x="437" y="366" on="1"/>
        <pt x="437" y="434" on="0"/>
        <pt x="384" y="498" on="0"/>
        <pt x="330" y="498" on="1"/>
        <pt x="275" y="498" on="0"/>
        <pt x="190" y="438" on="0"/>
        <pt x="150" y="382" on="1"/>
        <pt x="150" y="0" on="1"/>
        <pt x="112" y="0" on="1"/>
        <pt x="112" y="521" on="1"/>
        <pt x="145" y="521" on="1"/>
        <pt x="149" y="425" on="1"/>
        <pt x="225" y="531" on="0"/>
        <pt x="333" y="531" on="1"/>
        <pt x="403" y="531" on="0"/>
        <pt x="475" y="448" on="0"/>
        <pt x="475" y="371" on="1"/>
      </contour>
    </TTGlyph>
    <TTGlyph name="eng.sc" xMin="117" yMin="-201" xMax="495" yMax="561">
      <contour>
        <pt x="495" y="-139" on="0"/>
        <pt x="435" y="-201" on="0"/>
        <pt x="385" y="-201" on="1"/>
        <pt x="334" y="-201" on="0"/>
        <pt x="291" y="-169" on="1"/>
        <pt x="309" y="-144" on="1"/>
        <pt x="344" y="-168" on="0"/>
        <pt x="384" y="-168" on="1"/>
        <pt x="417" y="-168" on="0"/>
        <pt x="457" y="-126" on="0"/>
        <pt x="457" y="-79" on="1"/>
        <pt x="457" y="0" on="1"/>
        <pt x="444" y="0" on="1"/>
        <pt x="148" y="524" on="1"/>
        <pt x="154" y="460" on="0"/>
        <pt x="154" y="326" on="1"/>
        <pt x="154" y="0" on="1"/>
        <pt x="117" y="0" on="1"/>
        <pt x="117" y="561" on="1"/>
        <pt x="167" y="561" on="1"/>
        <pt x="463" y="37" on="1"/>
        <pt x="458" y="120" on="0"/>
        <pt x="458" y="214" on="1"/>
        <pt x="458" y="561" on="1"/>
        <pt x="495" y="561" on="1"/>
        <pt x="495" y="-79" on="1"/>
      </contour>
    </TTGlyph>
    <TTGlyph name="eng.sc.ss01" xMin="117" yMin="-201" xMax="499" yMax="571">
      <contour>
        <pt x="499" y="-79" on="1"/>
        <pt x="499" y="-139" on="0"/>
        <pt x="439" y="-201" on="0"/>
        <pt x="389" y="-201" on="1"/>
        <pt x="340" y="-201" on="0"/>
        <pt x="295" y="-169" on="1"/>
        <pt x="313" y="-144" on="1"/>
        <pt x="331" y="-156" on="0"/>
        <pt x="365" y="-168" on="0"/>
        <pt x="389" y="-168" on="1"/>
        <pt x="461" y="-168" on="0"/>
        <pt x="461" y="-79" on="1"/>
        <pt x="461" y="402" on="1"/>
        <pt x="461" y="472" on="0"/>
        <pt x="405" y="538" on="0"/>
        <pt x="346" y="538" on="1"/>
        <pt x="286" y="538" on="0"/>
        <pt x="196" y="477" on="0"/>
        <pt x="155" y="422" on="1"/>
        <pt x="155" y="0" on="1"/>
        <pt x="117" y="0" on="1"/>
        <pt x="117" y="561" on="1"/>
        <pt x="150" y="561" on="1"/>
        <pt x="154" y="464" on="1"/>
        <pt x="236" y="571" on="0"/>
        <pt x="349" y="571" on="1"/>
        <pt x="424" y="571" on="0"/>
        <pt x="499" y="487" on="0"/>
        <pt x="499" y="407" on="1"/>
      </contour>
    </TTGlyph>
    <TTGlyph name="eogonek" xMin="68" yMin="-204" xMax="468" yMax="531">
      <contour>
        <pt x="468" y="262" on="0"/>
        <pt x="466" y="242" on="1"/>
        <pt x="108" y="242" on="1"/>
        <pt x="113" y="132" on="0"/>
        <pt x="208" y="24" on="0"/>
        <pt x="284" y="24" on="1"/>
        <pt x="327" y="24" on="0"/>
        <pt x="391" y="50" on="0"/>
        <pt x="427" y="79" on="1"/>
        <pt x="447" y="52" on="1"/>
        <pt x="407" y="18" on="0"/>
        <pt x="362" y="2" on="1"/>
        <pt x="301" y="-26" on="0"/>
        <pt x="247" y="-78" on="0"/>
        <pt x="247" y="-115" on="1"/>
        <pt x="247" y="-140" on="0"/>
        <pt x="282" y="-169" on="0"/>
        <pt x="316" y="-169" on="1"/>
        <pt x="337" y="-169" on="0"/>
        <pt x="370" y="-163" on="1"/>
        <pt x="366" y="-198" on="1"/>
        <pt x="336" y="-204" on="0"/>
        <pt x="311" y="-204" on="1"/>
        <pt x="260" y="-204" on="0"/>
        <pt x="208" y="-157" on="0"/>
        <pt x="208" y="-118" on="1"/>
        <pt x="208" y="-84" on="0"/>
        <pt x="248" y="-31" on="0"/>
        <pt x="290" y="-10" on="1"/>
        <pt x="283" y="-10" on="1"/>
        <pt x="184" y="-10" on="0"/>
        <pt x="68" y="131" on="0"/>
        <pt x="68" y="256" on="1"/>
        <pt x="68" y="340" on="0"/>
        <pt x="119" y="464" on="0"/>
        <pt x="211" y="531" on="0"/>
        <pt x="272" y="531" on="1"/>
        <pt x="368" y="531" on="0"/>
        <pt x="468" y="398" on="0"/>
        <pt x="468" y="282" on="1"/>
      </contour>
      <contour>
        <pt x="430" y="296" on="1"/>
        <pt x="430" y="389" on="0"/>
        <pt x="352" y="497" on="0"/>
        <pt x="274" y="497" on="1"/>
        <pt x="204" y="497" on="0"/>
        <pt x="112" y="385" on="0"/>
        <pt x="108" y="274" on="1"/>
        <pt x="430" y="274" on="1"/>
      </contour>
    </TTGlyph>
</ttFont>
